<?xml version="1.0" encoding="UTF-8"?>
<svg id="a" data-name="レイヤー 1" xmlns="http://www.w3.org/2000/svg" width="256" height="256" viewBox="0 0 256 256">
  <g>
    <path d="M37.42,4h181.16c18.45,0,33.42,14.98,33.42,33.42v181.16c0,18.45-14.98,33.42-33.42,33.42H37.42c-18.45,0-33.42-14.98-33.42-33.42V37.42C4,18.98,18.98,4,37.42,4Z" style="fill: #363542;"/>
    <path d="M218.58,8c16.22,0,29.42,13.2,29.42,29.42v181.16c0,16.22-13.2,29.42-29.42,29.42H37.42c-16.22,0-29.42-13.2-29.42-29.42V37.42c0-16.22,13.2-29.42,29.42-29.42h181.16M218.58,0H37.42C16.75,0,0,16.75,0,37.42v181.16c0,20.67,16.75,37.42,37.42,37.42h181.16c20.67,0,37.42-16.75,37.42-37.42V37.42c0-20.67-16.75-37.42-37.42-37.42h0Z" style="fill: #e0e0e0;"/>
  </g>
  <g>
    <rect x="38" y="179.28" width="180" height="10.42" rx="5.04" ry="5.04" style="fill: #e0e0e0;"/>
    <rect x="38" y="122.79" width="180" height="10.42" rx="5.04" ry="5.04" style="fill: #e0e0e0;"/>
    <rect x="38" y="66.3" width="180" height="10.42" rx="5.04" ry="5.04" style="fill: #e0e0e0;"/>
  </g>
</svg>