<?xml version="1.0" encoding="UTF-8"?>
<svg id="a" data-name="レイヤー 1" xmlns="http://www.w3.org/2000/svg" width="64" height="64" viewBox="0 0 64 64">
  <path d="m31.99,5.5c14.61,0,26.5,11.89,26.5,26.5s-11.89,26.5-26.5,26.5S5.49,46.61,5.49,32,17.37,5.5,31.99,5.5m0-5C14.59.5.49,14.6.49,32s14.1,31.5,31.5,31.5,31.5-14.1,31.5-31.5S49.38.5,31.99.5h0Z" style="fill: #fff;"/>
  <path d="m28.5,38.71c.08-.8.08-.87.11-2.09,0-2.2.49-3.76,1.63-5.13.8-.95,1.06-1.18,3.69-2.81.87-.53,1.67-1.22,2.17-1.82.49-.57.72-1.22.72-2.13,0-2.24-1.63-3.5-4.64-3.5-1.79,0-3.27.68-4.07,1.9-.46.72-.65,1.33-.87,2.77l-6.5-.68c.53-2.77,1.22-4.18,2.74-5.74,2.13-2.13,5.21-3.23,9.08-3.23,6.5,0,10.68,3.15,10.68,8.06,0,1.75-.46,3.23-1.37,4.41-.76,1.03-1.86,1.9-3.99,3.31-1.9,1.22-2.47,1.71-2.93,2.43s-.68,1.6-.68,2.7c0,.42.04.87.11,1.56h-5.89Zm6.16,2.89v6.16h-6.5v-6.16h6.5Z" style="fill: #fff;"/>
</svg>