<svg xmlns="http://www.w3.org/2000/svg" viewBox="0 0 332.82 173.43"><defs><style>.cls-1,.cls-2{font-size:30px;font-family:HiraKakuStdN-W8-83pv-RKSJ-H, Hiragino Kaku Gothic StdN;}.cls-1{fill:none;stroke:#fff;stroke-width:2px;}.cls-2{fill:#33f;}.cls-3{fill:#fff;}.cls-4{fill:#e23737;}</style></defs><g id="レイヤー_2" data-name="レイヤー 2"><g id="メインタイトル"><text class="cls-1" transform="translate(81.72 27.4)">機動俱楽部</text><text class="cls-2" transform="translate(81.72 27.4)">機動俱楽部</text><g id="緑_Gブレイバー" data-name="緑 Gブレイバー"><path class="cls-3" d="M9.05,97.62,0,18.44,64.15,40.2V68.48H53.61L48,53.83,30.79,45.74,26.54,85l10.25,24.61L49.9,90l-8.78,3.3V81.11L67.38,74l3.45,47.18-14.31,9.11,1.65-32.05L47.33,121.3,25.06,135.37Zm251.39-60,13.22-10.75,32.44,80.37-28.22,21.22ZM222,105.42,243.83,47.5l13.4-5.9-11.85,79ZM77.69,101.63l31.48-19.3V69.75l-39-6v-18l59,10.35V90.42L90,117.25Zm124.5,9.09-1-44.24L181.69,69,178.38,55.5l51.93-14.29,2.78,21.18L214,64.85l5.58,49.29Zm-55-15.35V51.89h16v27l13.92-10.78,6.72,15.14L157,103.41ZM302.44,84.83V74.6l28.35-9.45V94.28ZM124.36,53.64l-5.67-18.15,10.39,2.6,2.3,18.36Zm9.92,0-3.36-19.06,10.25,2.56V56.37Zm157.89-30.9,18.69-3.2-9.63,28-12.38,3.31Zm22-10.42,18.68-3.2-9.63,28-12.37,3.31Z"/><path class="cls-3" d="M9.05,97.62,0,18.44,64.15,40.2V68.48H53.61L48,53.83,30.79,45.74,26.54,85l10.25,24.61L49.9,90l-8.78,3.3V81.11L67.38,74l3.45,47.18-14.31,9.11,1.65-32.05L47.33,121.3,25.06,135.37Zm251.39-60,13.22-10.75,32.44,80.37-28.22,21.22ZM222,105.42,243.83,47.5l13.4-5.9-11.85,79ZM77.69,101.63l31.48-19.3V69.75l-39-6v-18l59,10.35V90.42L90,117.25Zm124.5,9.09-1-44.24L181.69,69,178.38,55.5l51.93-14.29,2.78,21.18L214,64.85l5.58,49.29Zm-55-15.35V51.89h16v27l13.92-10.78,6.72,15.14L157,103.41ZM302.44,84.83V74.6l28.35-9.45V94.28ZM124.36,53.64l-5.67-18.15,10.39,2.6,2.3,18.36Zm9.92,0-3.36-19.06,10.25,2.56V56.37Zm157.89-30.9,18.69-3.2-9.63,28-12.38,3.31Zm22-10.42,18.68-3.2-9.63,28-12.37,3.31Z"/></g><g id="Gブレイバー"><path class="cls-4" d="M71.17,62.89l39,6v14l-31,19,11,14,38-26v-33l-57-10Zm49-26,5,16,5,2-2-16Zm42,44v-28h-14v42l8.89,7.25,25.52-19.25-5.89-13.24ZM232,61.53l-2.5-19.05L179.58,56.21l2.87,11.67,19.75-2.53,1,44.54,15.23,3L212.87,64ZM223.17,105l21.45,13.87L256,43.25l-11.35,5Zm38.37-67,17,88.68,26.33-19.8-31.65-78.4Zm47.82-17.23-16.28,2.79L290,49.44l10.44-2.79Zm-5.92,63.33,26.35,8.78V66.54l-26.35,8.78ZM42.12,81.87v10L52.45,88l-15.86,23.8L25.52,85.19,30,44.24,48.77,53.1,54.3,67.48h8.85V40.92l-62-21L10,97.37l15.49,36.52,21-13.28L59.43,93.15l-1.81,35.21,12.17-7.75L66.47,75.23Zm93-29,5,2v-17l-8-2ZM331.33,10.36,315,13.15,312,39l10.44-2.79Z"/></g><g id="縁_バースト" data-name="縁 バースト"><path class="cls-3" d="M179.9,157.2l-15.3,13.58-11.75-6.95L181,137.28l-26.52,1,.34-12.66,38.2-2.06L194.77,144l-7.45,6.61,17.06,6.67-4.45,16.14Zm28.31,14.69-2.08-51h16.08l-.75,18.42L240,145.69l-7,14-12.06-7.53-.81,19.72Zm-130.64-5,15-45.24,9.92,2.57-8.09,46.21Zm24.74-41.54,8-3.18,4.82,10.84,2.17-12,9.59-2.74-.4,1,8.69-2.48-6,14.38-6,1.5L125,123l-4.07,9.76-5.32,1.33,14.66,33-18,2.84Zm28.86,32.5v-13h20v13Z"/><path class="cls-3" d="M179.9,157.2l-15.3,13.58-11.75-6.95L181,137.28l-26.52,1,.34-12.66,38.2-2.06L194.77,144l-7.45,6.61,17.06,6.67-4.45,16.14Zm28.31,14.69-2.08-51h16.08l-.75,18.42L240,145.69l-7,14-12.06-7.53-.81,19.72Zm-130.64-5,15-45.24,9.92,2.57-8.09,46.21Zm24.74-41.54,8-3.18,4.82,10.84,2.17-12,9.59-2.74-.4,1,8.69-2.48-6,14.38-6,1.5L125,123l-4.07,9.76-5.32,1.33,14.66,33-18,2.84Zm28.86,32.5v-13h20v13Z"/></g><g id="バースト"><path class="cls-4" d="M78.87,166.18l14.67,3.1L101.3,125l-8.13-2.11ZM103.47,126,113,168.77l15.8-2.5-19-42.78Zm28.7,30.89h18v-11h-18ZM220.43,140l.74-18.12h-14l2,49h10l.84-20.48,12.59,7.86,6-12Zm-95.26-20.12-7,2-2,11,4-1Zm3.29,10.49,5-12-7,2-2,11Zm65.27,13.21-1.63-19-36.3,2-.29,10.68,28.11-1-29.11,27.46,10,5.91,15.38-13.66,19.5,15.8,3.8-13.8L185.44,151Z"/></g></g></g></svg>