<?xml version="1.0" encoding="UTF-8"?>
<svg id="b" data-name="レイヤー 2" xmlns="http://www.w3.org/2000/svg" width="366.01" height="203.51" viewBox="0 0 366.01 203.51">
  <g id="c" data-name="メインタイトル">
    <g>
      <g>
        <g>
          <g>
            <g>
              <g id="d" data-name="Gブレイバー">
                <g>
                  <path d="M13.55,111.41L2.35,13.4l88.05,29.88v3.09l33.84,5.94-6.65-21.28,15.54,3.88-.74-4.18,35.03,8.76v12.37h22v4.36l65.4-18,1.25,9.55,7.62-3.35-.04-.22,29.88-24.31,3.44,8.52.5-4.19,21.16-3.62.8-6.8,45.09-7.72-17.58,51.06-20.24,5.4-1.73,5.02-11.01,2.94,1.68,4.15,41.4-13.8v59.65l-26.45-8.82,4.12,10.22-49.06,36.89-10.1-52.6-6.58,43.84-21.88-14.16.33,2.92-40.79-8.04-.61-28.06-34.01,25.65-20.6-16.79v-1.63l-48.5,33.18-5.52-7.03.13,1.77-37.84,24.08.79-15.33-25.24,15.94-21.69-51.12ZM94.66,98.62l14.83-9.09-15.67-2.41.84,11.5ZM54.46,81.18l2.98-.81-2.25-5.86-.72,6.67Z" style="fill: #e23737;"/>
                  <path d="M13.55,111.41L2.35,13.4l88.05,29.88v3.09l33.84,5.94-6.65-21.28,15.54,3.88-.74-4.18,35.03,8.76v12.37h22v4.36l65.4-18,1.25,9.55,7.62-3.35-.04-.22,29.88-24.31,3.44,8.52.5-4.19,21.16-3.62.8-6.8,45.09-7.72-17.58,51.06-20.24,5.4-1.73,5.02-11.01,2.94,1.68,4.15,41.4-13.8v59.65l-26.45-8.82,4.12,10.22-49.06,36.89-10.1-52.6-6.58,43.84-21.88-14.16.33,2.92-40.79-8.04-.61-28.06-34.01,25.65-20.6-16.79v-1.63l-48.5,33.18-5.52-7.03.13,1.77-37.84,24.08.79-15.33-25.24,15.94-21.69-51.12ZM94.66,98.62l14.83-9.09-15.67-2.41.84,11.5ZM54.46,81.18l2.98-.81-2.25-5.86-.72,6.67Z" style="fill: #e23737;"/>
                </g>
              </g>
              <g id="e" data-name="バースト">
                <g>
                  <path d="M195.47,182.58l-14.32,12.72-21.65-12.82,1.85,4.17-42.38,6.68-.16-.73-.34,1.95-39.95-8.45,22.04-66.69,18.06,4.68,12.71-5.05.76,1.71,29-8.29-.41.97,8.69-2.48-6.23,14.96,46.89-2.53-.1-2.53h39l-.89,21.68,22.67,7.8-18.03,36.05-6.27-3.92-.46,11.38h-21.96l-2.67,9.66-25.83-20.93ZM158.84,144.84l.25-9.24-3.85,9.24h3.6Z" style="fill: #e23737;"/>
                  <path d="M195.47,182.58l-14.32,12.72-21.65-12.82,1.85,4.17-42.38,6.68-.16-.73-.34,1.95-39.95-8.45,22.04-66.69,18.06,4.68,12.71-5.05.76,1.71,29-8.29-.41.97,8.69-2.48-6.23,14.96,46.89-2.53-.1-2.53h39l-.89,21.68,22.67,7.8-18.03,36.05-6.27-3.92-.46,11.38h-21.96l-2.67,9.66-25.83-20.93ZM158.84,144.84l.25-9.24-3.85,9.24h3.6Z" style="fill: #e23737;"/>
                </g>
              </g>
            </g>
            <g>
              <g id="f" data-name="Gブレイバー">
                <g>
                  <path d="M13.55,111.41L2.35,13.4l88.05,29.88v3.09l33.84,5.94-6.65-21.28,15.54,3.88-.74-4.18,35.03,8.76v12.37h22v4.36l65.4-18,1.25,9.55,7.62-3.35-.04-.22,29.88-24.31,3.44,8.52.5-4.19,21.16-3.62.8-6.8,45.09-7.72-17.58,51.06-20.24,5.4-1.73,5.02-11.01,2.94,1.68,4.15,41.4-13.8v59.65l-26.45-8.82,4.12,10.22-49.06,36.89-10.1-52.6-6.58,43.84-21.88-14.16.33,2.92-40.79-8.04-.61-28.06-34.01,25.65-20.6-16.79v-1.63l-48.5,33.18-5.52-7.03.13,1.77-37.84,24.08.79-15.33-25.24,15.94-21.69-51.12ZM94.66,98.62l14.83-9.09-15.67-2.41.84,11.5ZM54.46,81.18l2.98-.81-2.25-5.86-.72,6.67Z" style="fill: #fff;"/>
                  <path d="M13.55,111.41L2.35,13.4l88.05,29.88v3.09l33.84,5.94-6.65-21.28,15.54,3.88-.74-4.18,35.03,8.76v12.37h22v4.36l65.4-18,1.25,9.55,7.62-3.35-.04-.22,29.88-24.31,3.44,8.52.5-4.19,21.16-3.62.8-6.8,45.09-7.72-17.58,51.06-20.24,5.4-1.73,5.02-11.01,2.94,1.68,4.15,41.4-13.8v59.65l-26.45-8.82,4.12,10.22-49.06,36.89-10.1-52.6-6.58,43.84-21.88-14.16.33,2.92-40.79-8.04-.61-28.06-34.01,25.65-20.6-16.79v-1.63l-48.5,33.18-5.52-7.03.13,1.77-37.84,24.08.79-15.33-25.24,15.94-21.69-51.12ZM94.66,98.62l14.83-9.09-15.67-2.41.84,11.5ZM54.46,81.18l2.98-.81-2.25-5.86-.72,6.67Z" style="fill: #fff;"/>
                </g>
                <g>
                  <path d="M13.55,111.41L2.35,13.4l88.05,29.88v3.09l33.84,5.94-6.65-21.28,15.54,3.88-.74-4.18,35.03,8.76v12.37h22v4.36l65.4-18,1.25,9.55,7.62-3.35-.04-.22,29.88-24.31,3.44,8.52.5-4.19,21.16-3.62.8-6.8,45.09-7.72-17.58,51.06-20.24,5.4-1.73,5.02-11.01,2.94,1.68,4.15,41.4-13.8v59.65l-26.45-8.82,4.12,10.22-49.06,36.89-10.1-52.6-6.58,43.84-21.88-14.16.33,2.92-40.79-8.04-.61-28.06-34.01,25.65-20.6-16.79v-1.63l-48.5,33.18-5.52-7.03.13,1.77-37.84,24.08.79-15.33-25.24,15.94-21.69-51.12ZM94.66,98.62l14.83-9.09-15.67-2.41.84,11.5ZM54.46,81.18l2.98-.81-2.25-5.86-.72,6.67Z" style="fill: #fff;"/>
                  <path d="M13.55,111.41L2.35,13.4l88.05,29.88v3.09l33.84,5.94-6.65-21.28,15.54,3.88-.74-4.18,35.03,8.76v12.37h22v4.36l65.4-18,1.25,9.55,7.62-3.35-.04-.22,29.88-24.31,3.44,8.52.5-4.19,21.16-3.62.8-6.8,45.09-7.72-17.58,51.06-20.24,5.4-1.73,5.02-11.01,2.94,1.68,4.15,41.4-13.8v59.65l-26.45-8.82,4.12,10.22-49.06,36.89-10.1-52.6-6.58,43.84-21.88-14.16.33,2.92-40.79-8.04-.61-28.06-34.01,25.65-20.6-16.79v-1.63l-48.5,33.18-5.52-7.03.13,1.77-37.84,24.08.79-15.33-25.24,15.94-21.69-51.12ZM94.66,98.62l14.83-9.09-15.67-2.41.84,11.5ZM54.46,81.18l2.98-.81-2.25-5.86-.72,6.67Z" style="fill: #fff;"/>
                </g>
                <g>
                  <path d="M13.55,111.41L2.35,13.4l88.05,29.88v3.09l33.84,5.94-6.65-21.28,15.54,3.88-.74-4.18,35.03,8.76v12.37h22v4.36l65.4-18,1.25,9.55,7.62-3.35-.04-.22,29.88-24.31,3.44,8.52.5-4.19,21.16-3.62.8-6.8,45.09-7.72-17.58,51.06-20.24,5.4-1.73,5.02-11.01,2.94,1.68,4.15,41.4-13.8v59.65l-26.45-8.82,4.12,10.22-49.06,36.89-10.1-52.6-6.58,43.84-21.88-14.16.33,2.92-40.79-8.04-.61-28.06-34.01,25.65-20.6-16.79v-1.63l-48.5,33.18-5.52-7.03.13,1.77-37.84,24.08.79-15.33-25.24,15.94-21.69-51.12ZM94.66,98.62l14.83-9.09-15.67-2.41.84,11.5ZM54.46,81.18l2.98-.81-2.25-5.86-.72,6.67Z" style="fill: #fff;"/>
                  <path d="M13.55,111.41L2.35,13.4l88.05,29.88v3.09l33.84,5.94-6.65-21.28,15.54,3.88-.74-4.18,35.03,8.76v12.37h22v4.36l65.4-18,1.25,9.55,7.62-3.35-.04-.22,29.88-24.31,3.44,8.52.5-4.19,21.16-3.62.8-6.8,45.09-7.72-17.58,51.06-20.24,5.4-1.73,5.02-11.01,2.94,1.68,4.15,41.4-13.8v59.65l-26.45-8.82,4.12,10.22-49.06,36.89-10.1-52.6-6.58,43.84-21.88-14.16.33,2.92-40.79-8.04-.61-28.06-34.01,25.65-20.6-16.79v-1.63l-48.5,33.18-5.52-7.03.13,1.77-37.84,24.08.79-15.33-25.24,15.94-21.69-51.12ZM94.66,98.62l14.83-9.09-15.67-2.41.84,11.5ZM54.46,81.18l2.98-.81-2.25-5.86-.72,6.67Z" style="fill: #fff;"/>
                </g>
              </g>
              <g id="g" data-name="バースト">
                <g>
                  <path d="M195.47,182.58l-14.32,12.72-21.65-12.82,1.85,4.17-42.38,6.68-.16-.73-.34,1.95-39.95-8.45,22.04-66.69,18.06,4.68,12.71-5.05.76,1.71,29-8.29-.41.97,8.69-2.48-6.23,14.96,46.89-2.53-.1-2.53h39l-.89,21.68,22.67,7.8-18.03,36.05-6.27-3.92-.46,11.38h-21.96l-2.67,9.66-25.83-20.93ZM158.84,144.84l.25-9.24-3.85,9.24h3.6Z" style="fill: #fff;"/>
                  <path d="M195.47,182.58l-14.32,12.72-21.65-12.82,1.85,4.17-42.38,6.68-.16-.73-.34,1.95-39.95-8.45,22.04-66.69,18.06,4.68,12.71-5.05.76,1.71,29-8.29-.41.97,8.69-2.48-6.23,14.96,46.89-2.53-.1-2.53h39l-.89,21.68,22.67,7.8-18.03,36.05-6.27-3.92-.46,11.38h-21.96l-2.67,9.66-25.83-20.93ZM158.84,144.84l.25-9.24-3.85,9.24h3.6Z" style="fill: #fff;"/>
                </g>
                <g>
                  <path d="M195.47,182.58l-14.32,12.72-21.65-12.82,1.85,4.17-42.38,6.68-.16-.73-.34,1.95-39.95-8.45,22.04-66.69,18.06,4.68,12.71-5.05.76,1.71,29-8.29-.41.97,8.69-2.48-6.23,14.96,46.89-2.53-.1-2.53h39l-.89,21.68,22.67,7.8-18.03,36.05-6.27-3.92-.46,11.38h-21.96l-2.67,9.66-25.83-20.93ZM158.84,144.84l.25-9.24-3.85,9.24h3.6Z" style="fill: #fff;"/>
                  <path d="M195.47,182.58l-14.32,12.72-21.65-12.82,1.85,4.17-42.38,6.68-.16-.73-.34,1.95-39.95-8.45,22.04-66.69,18.06,4.68,12.71-5.05.76,1.71,29-8.29-.41.97,8.69-2.48-6.23,14.96,46.89-2.53-.1-2.53h39l-.89,21.68,22.67,7.8-18.03,36.05-6.27-3.92-.46,11.38h-21.96l-2.67,9.66-25.83-20.93ZM158.84,144.84l.25-9.24-3.85,9.24h3.6Z" style="fill: #fff;"/>
                </g>
                <g>
                  <path d="M195.47,182.58l-14.32,12.72-21.65-12.82,1.85,4.17-42.38,6.68-.16-.73-.34,1.95-39.95-8.45,22.04-66.69,18.06,4.68,12.71-5.05.76,1.71,29-8.29-.41.97,8.69-2.48-6.23,14.96,46.89-2.53-.1-2.53h39l-.89,21.68,22.67,7.8-18.03,36.05-6.27-3.92-.46,11.38h-21.96l-2.67,9.66-25.83-20.93ZM158.84,144.84l.25-9.24-3.85,9.24h3.6Z" style="fill: #fff;"/>
                  <path d="M195.47,182.58l-14.32,12.72-21.65-12.82,1.85,4.17-42.38,6.68-.16-.73-.34,1.95-39.95-8.45,22.04-66.69,18.06,4.68,12.71-5.05.76,1.71,29-8.29-.41.97,8.69-2.48-6.23,14.96,46.89-2.53-.1-2.53h39l-.89,21.68,22.67,7.8-18.03,36.05-6.27-3.92-.46,11.38h-21.96l-2.67,9.66-25.83-20.93ZM158.84,144.84l.25-9.24-3.85,9.24h3.6Z" style="fill: #fff;"/>
                </g>
              </g>
            </g>
          </g>
          <g>
            <g id="h" data-name="Gブレイバー">
              <g>
                <path d="M19.41,109.86L9.38,22.12l75.02,25.45v3.83l48.5,8.51-6.4-20.48,14.14,3.53-.74-4.18,21.52,5.38v13.68h22v21.76l6.96-5.39-2.78-11.29,62.16-17.11,2.25,17.17,3.12-8.26,15.34-6.76-.27-1.4,20.79-16.92,9.17,22.71,2.72-23,21.16-3.62.8-6.8,30.68-5.25-13.24,38.47-20.24,5.4-1.73,5.02-14.48,3.87,6.83,16.91v-1.41l38.35-12.78v43l-30.88-10.29,7.26,18-37.69,28.34-14.9-77.62-10.41,69.34-24.72-15.99.83,7.37-28.01-5.52-.93-42.7-11.33,1.45,4.98,11.21-33.08,24.95-14.74-12.02v-35.59l-5.31-2.12.53,4.21-3.22-1.29v30.1l-45.25,30.96-14.19-18.06,1.3,17.79-25.01,15.91.83-16.25-.63,1.33-28.48,17.99-18.59-43.82ZM89.4,108.89l30.02-18.4v-5.49l-32.13-4.94,2.11,28.84ZM51.37,105.99v-17.75l14.04-3.83-6.14-15.96-9.02-4.25-3.36,31.05,4.47,10.73ZM237.23,102.14l8.86-23.46-11.36,1.46,2.49,22.01Z" style="fill: #e23737;"/>
                <path d="M19.41,109.86L9.38,22.12l75.02,25.45v3.83l48.5,8.51-6.4-20.48,14.14,3.53-.74-4.18,21.52,5.38v13.68h22v21.76l6.96-5.39-2.78-11.29,62.16-17.11,2.25,17.17,3.12-8.26,15.34-6.76-.27-1.4,20.79-16.92,9.17,22.71,2.72-23,21.16-3.62.8-6.8,30.68-5.25-13.24,38.47-20.24,5.4-1.73,5.02-14.48,3.87,6.83,16.91v-1.41l38.35-12.78v43l-30.88-10.29,7.26,18-37.69,28.34-14.9-77.62-10.41,69.34-24.72-15.99.83,7.37-28.01-5.52-.93-42.7-11.33,1.45,4.98,11.21-33.08,24.95-14.74-12.02v-35.59l-5.31-2.12.53,4.21-3.22-1.29v30.1l-45.25,30.96-14.19-18.06,1.3,17.79-25.01,15.91.83-16.25-.63,1.33-28.48,17.99-18.59-43.82ZM89.4,108.89l30.02-18.4v-5.49l-32.13-4.94,2.11,28.84ZM51.37,105.99v-17.75l14.04-3.83-6.14-15.96-9.02-4.25-3.36,31.05,4.47,10.73ZM237.23,102.14l8.86-23.46-11.36,1.46,2.49,22.01Z" style="fill: #e23737;"/>
              </g>
            </g>
            <g id="i" data-name="バースト">
              <g>
                <path d="M195.3,174.71l-14.86,13.19-20.6-12.2,1.97-1.85h-12.7l3.59,8.09-29.09,4.59-5.5-24.71-4.48,25.57-27.31-5.77,18.17-54.99,14.52,3.76,9.17-3.65.54,1.21,22.04-6.3-.4.97,8.69-2.48-10.95,26.28-10.05,2.51,3.38,7.61v-5.7h23.26l.51-19.04,47.64-2.57,2.37,27.8-3.22,2.85,5.62,2.2-1.44-35.24h26.5l-.81,19.9,20.42,7.03-12.01,24.03-9.43-5.89-.65,15.93h-20.77l-1.44,5.23-22.67-18.37ZM171.42,164.78l11.72-11.06-11.72.43v10.62Z" style="fill: #e23737;"/>
                <path d="M195.3,174.71l-14.86,13.19-20.6-12.2,1.97-1.85h-12.7l3.59,8.09-29.09,4.59-5.5-24.71-4.48,25.57-27.31-5.77,18.17-54.99,14.52,3.76,9.17-3.65.54,1.21,22.04-6.3-.4.97,8.69-2.48-10.95,26.28-10.05,2.51,3.38,7.61v-5.7h23.26l.51-19.04,47.64-2.57,2.37,27.8-3.22,2.85,5.62,2.2-1.44-35.24h26.5l-.81,19.9,20.42,7.03-12.01,24.03-9.43-5.89-.65,15.93h-20.77l-1.44,5.23-22.67-18.37ZM171.42,164.78l11.72-11.06-11.72.43v10.62Z" style="fill: #e23737;"/>
              </g>
            </g>
          </g>
        </g>
        <g>
          <g>
            <g>
              <path d="M103.61,50.2h-12.92s.77-8.02.87-9.08l-1.13-3.87c-.45-1.54-.75-2.35-1.27-3.5l-2.17-4.71,2.03-2.89V6.54l1.94.45-.31-3.14h13.23l1.52-3.65,7.09,3.65h2.15l1.59-3.85,6.96,3.85h5.64l-.5,2.85,8.37,4.63-1.33,1.99,4.01,2.69-4.59,5.38c.16.67.33,1.42.51,2.34l.8,3.91,2.09,1.06-1.47,1.99.25,1.2-1.06.3-.64,4.58c-.35,2.54-.89,5.23-2.44,7.75-1.74,2.74-4.05,4.45-6.93,5.17-1.38.35-2.27.39-2.81.39h-.45l-.92-.09h-.51l-.87-.17c-.96-.19-1.9-.51-2.82-.95-.51.22-1.05.45-1.62.67l-6.31,2.49-2.47,2.6-3.52-4.43Z" style="fill: #fff;"/>
              <path d="M103.61,50.2h-12.92s.77-8.02.87-9.08l-1.13-3.87c-.45-1.54-.75-2.35-1.27-3.5l-2.17-4.71,2.03-2.89V6.54l1.94.45-.31-3.14h13.23l1.52-3.65,7.09,3.65h2.15l1.59-3.85,6.96,3.85h5.64l-.5,2.85,8.37,4.63-1.33,1.99,4.01,2.69-4.59,5.38c.16.67.33,1.42.51,2.34l.8,3.91,2.09,1.06-1.47,1.99.25,1.2-1.06.3-.64,4.58c-.35,2.54-.89,5.23-2.44,7.75-1.74,2.74-4.05,4.45-6.93,5.17-1.38.35-2.27.39-2.81.39h-.45l-.92-.09h-.51l-.87-.17c-.96-.19-1.9-.51-2.82-.95-.51.22-1.05.45-1.62.67l-6.31,2.49-2.47,2.6-3.52-4.43Z" style="fill: #fff;"/>
            </g>
            <g>
              <path d="M139.45,49.04c-2.6.23-4.35.35-8.29.61-.47.03-.87.07-1.46.13l-8.68.9-3.78-24.04,1.92.17v-10.55l-6.26-11.16,15.2-.14c6.46-.06,9.71-.49,10.59-.68l6.56-2.63,1.6,2.41h14.51l-.87,4.87,5.27-.57-.99,10.94q-.09.97-.15,5.24c-.16,11.53-.77,16.02-2.62,19.21-3.11,5.47-8.45,6.07-11.97,6.13l-4.88,6.78-5.73-7.64Z" style="fill: #fff;"/>
              <path d="M139.45,49.04c-2.6.23-4.35.35-8.29.61-.47.03-.87.07-1.46.13l-8.68.9-3.78-24.04,1.92.17v-10.55l-6.26-11.16,15.2-.14c6.46-.06,9.71-.49,10.59-.68l6.56-2.63,1.6,2.41h14.51l-.87,4.87,5.27-.57-.99,10.94q-.09.97-.15,5.24c-.16,11.53-.77,16.02-2.62,19.21-3.11,5.47-8.45,6.07-11.97,6.13l-4.88,6.78-5.73-7.64Z" style="fill: #fff;"/>
            </g>
            <g>
              <path d="M181.02,49.55c-2.13-.79-3.74-1.49-5.21-2.3-.35.19-.7.37-1.07.55l.24,2.37h-6.25l-5.69,2.04-1-2.04h-11.86l1.1-9.99c.09-.85.12-1.24.12-2.09l-1.34-7.67c-.26-1.5-.53-2.48-1.06-3.9l-2.01-5.37,4.02-4.09c.49-.5,1.23-1.42,2.01-3.62.51-1.4.59-1.87.6-1.92l1.2-10.5,12.85,3.65.89.08c.35.03.59.05,2.03.05h10.59c1.39,0,1.64-.02,2.1-.06l11-.92-1.31,10.96c-.02.2-.06.47-.06,1.81v4.38l2.19-.25v9.12l7.17,1.62-8.54,11.16c-.71.93-.97,1.35-1.53,2.49l-3.58,7.29-7.62-2.82Z" style="fill: #fff;"/>
              <path d="M181.02,49.55c-2.13-.79-3.74-1.49-5.21-2.3-.35.19-.7.37-1.07.55l.24,2.37h-6.25l-5.69,2.04-1-2.04h-11.86l1.1-9.99c.09-.85.12-1.24.12-2.09l-1.34-7.67c-.26-1.5-.53-2.48-1.06-3.9l-2.01-5.37,4.02-4.09c.49-.5,1.23-1.42,2.01-3.62.51-1.4.59-1.87.6-1.92l1.2-10.5,12.85,3.65.89.08c.35.03.59.05,2.03.05h10.59c1.39,0,1.64-.02,2.1-.06l11-.92-1.31,10.96c-.02.2-.06.47-.06,1.81v4.38l2.19-.25v9.12l7.17,1.62-8.54,11.16c-.71.93-.97,1.35-1.53,2.49l-3.58,7.29-7.62-2.82Z" style="fill: #fff;"/>
            </g>
            <g>
              <path d="M182.25,44.56c-.47-.98-.81-1.52-1.45-2.29l-9.24-11.23,7.85-1.81v-1.99l-2.69-7.42-2.02-1.45,15.54-16.49,2.51,1.89.18-.85,15.59,1.27,2.67-3.52,4.61,4.12,3.05.25-.86,1.72,10.63,9.5-3.28,3.61,3.05,2.13-3.87,6.17v.73l6.77,1.38-7.69,11.21c-.77,1.12-1.11,1.72-1.66,2.93l-3.23,7.08-5.31-1.55h-22.54l-5.2,1.69-3.41-7.09Z" style="fill: #fff;"/>
              <path d="M182.25,44.56c-.47-.98-.81-1.52-1.45-2.29l-9.24-11.23,7.85-1.81v-1.99l-2.69-7.42-2.02-1.45,15.54-16.49,2.51,1.89.18-.85,15.59,1.27,2.67-3.52,4.61,4.12,3.05.25-.86,1.72,10.63,9.5-3.28,3.61,3.05,2.13-3.87,6.17v.73l6.77,1.38-7.69,11.21c-.77,1.12-1.11,1.72-1.66,2.93l-3.23,7.08-5.31-1.55h-22.54l-5.2,1.69-3.41-7.09Z" style="fill: #fff;"/>
            </g>
            <g>
              <path d="M224.08,50.08v-.06s-14.98,0-14.98,0l1.31-10.15c.05-.39.08-.77.08-1.79v-.74l-1.56.22V12.12l.48.07v-7.55l3.51.56-.27-1.35h26.88l-.16.81h2.8c.32,0,.51,0,.67-.01l5.69-.95,8.19,11.78-2.19,4.69c-.08.19-.21.59-.63,1.76-.22.63-.48,1.3-.75,1.99.27.57.51,1.16.75,1.79.85,2.37,1.26,4.67,1.26,6.94,0,5.34-2.66,9.85-7.01,12.04l.74,5.39h-24.82Z" style="fill: #fff;"/>
              <path d="M224.08,50.08v-.06s-14.98,0-14.98,0l1.31-10.15c.05-.39.08-.77.08-1.79v-.74l-1.56.22V12.12l.48.07v-7.55l3.51.56-.27-1.35h26.88l-.16.81h2.8c.32,0,.51,0,.67-.01l5.69-.95,8.19,11.78-2.19,4.69c-.08.19-.21.59-.63,1.76-.22.63-.48,1.3-.75,1.99.27.57.51,1.16.75,1.79.85,2.37,1.26,4.67,1.26,6.94,0,5.34-2.66,9.85-7.01,12.04l.74,5.39h-24.82Z" style="fill: #fff;"/>
            </g>
          </g>
          <g>
            <g>
              <path d="M105.05,47.2h-6.68l-1.3,2.09-.61-2.09h-2.48l.61-6.37-1.3-4.43c-.49-1.68-.84-2.63-1.43-3.91l-1.45-3.14,1.63-2.31-.04-4.83v-11.89l2.33.55-.39-4.02h11.93l1.04-2.49,4.84,2.49h4.88l1.07-2.6,4.7,2.6h2.82l-.24,1.43,7.41,4.1-1.18,1.77,3.7,2.48-2.94,3.44v2.46c.12.52.25,1.11.39,1.8l1.09,5.33.22.11-1.35,1.82.61.27-.62,4.49c-.36,2.56-.84,4.66-2.03,6.6-1.3,2.04-3,3.3-5.1,3.82-1.19.3-1.82.3-2.08.3h-.3s-.77-.08-.92-.09h-.37l-.58-.12c-1.14-.23-2.22-.67-3.28-1.36-.86.42-1.79.82-2.85,1.24l-5.37,2.12-.31-.7-1.8,1.89-2.27-2.86Z" style="fill: #33f;"/>
              <path d="M105.05,47.2h-6.68l-1.3,2.09-.61-2.09h-2.48l.61-6.37-1.3-4.43c-.49-1.68-.84-2.63-1.43-3.91l-1.45-3.14,1.63-2.31-.04-4.83v-11.89l2.33.55-.39-4.02h11.93l1.04-2.49,4.84,2.49h4.88l1.07-2.6,4.7,2.6h2.82l-.24,1.43,7.41,4.1-1.18,1.77,3.7,2.48-2.94,3.44v2.46c.12.52.25,1.11.39,1.8l1.09,5.33.22.11-1.35,1.82.61.27-.62,4.49c-.36,2.56-.84,4.66-2.03,6.6-1.3,2.04-3,3.3-5.1,3.82-1.19.3-1.82.3-2.08.3h-.3s-.77-.08-.92-.09h-.37l-.58-.12c-1.14-.23-2.22-.67-3.28-1.36-.86.42-1.79.82-2.85,1.24l-5.37,2.12-.31-.7-1.8,1.89-2.27-2.86Z" style="fill: #33f;"/>
            </g>
            <g>
              <path d="M140.84,45.9c-3.62.34-5.15.44-9.88.76-.5.03-.96.08-1.65.15l-5.77.6-.85-5.42h-.07s0-.47,0-.47l-1.81-11.53,1.81.17v-2.27l-.45.05v-12.43l-4.16-7.42,10.14-.09c5.46-.05,8.71-.35,10.34-.6l-.07-.3h1.42l4.36-1.74,1.11,1.74h12.48l-.94,5.28,5.61-.6-.66,7.29q-.1,1.09-.16,5.48c-.16,12.05-.87,15.43-2.22,17.75-2.64,4.64-7.41,4.64-10.56,4.64-.1,0-.22,0-.35,0l-3.39,4.71-4.29-5.72Z" style="fill: #33f;"/>
              <path d="M140.84,45.9c-3.62.34-5.15.44-9.88.76-.5.03-.96.08-1.65.15l-5.77.6-.85-5.42h-.07s0-.47,0-.47l-1.81-11.53,1.81.17v-2.27l-.45.05v-12.43l-4.16-7.42,10.14-.09c5.46-.05,8.71-.35,10.34-.6l-.07-.3h1.42l4.36-1.74,1.11,1.74h12.48l-.94,5.28,5.61-.6-.66,7.29q-.1,1.09-.16,5.48c-.16,12.05-.87,15.43-2.22,17.75-2.64,4.64-7.41,4.64-10.56,4.64-.1,0-.22,0-.35,0l-3.39,4.71-4.29-5.72Z" style="fill: #33f;"/>
            </g>
            <g>
              <path d="M182.06,46.74c-2.68-.99-4.43-1.8-6.24-2.98-1.32.85-2.64,1.51-4.28,2.17l.12,1.24h-3.45l-3.65,1.31-.64-1.31h-10.38l.74-6.66c.12-1.04.14-1.52.14-2.68l-1.38-7.93c-.29-1.69-.61-2.85-1.21-4.44l-1.34-3.58,2.68-2.73c1.1-1.12,1.96-2.62,2.7-4.72.58-1.58.72-2.28.75-2.55l.8-7.02,9.72,2.76,1.17.11c.43.04.72.07,2.31.07h10.59c1.52,0,1.83-.03,2.35-.07l7.33-.61-.88,7.3c-.05.43-.08.88-.08,2.17v7.74l2.19-.25v8.16l4.94,1.12-4.94,6.45v1.61l-1.14-.11c-.58.79-.92,1.38-1.46,2.48l-2.39,4.86-5.08-1.88Z" style="fill: #33f;"/>
              <path d="M182.06,46.74c-2.68-.99-4.43-1.8-6.24-2.98-1.32.85-2.64,1.51-4.28,2.17l.12,1.24h-3.45l-3.65,1.31-.64-1.31h-10.38l.74-6.66c.12-1.04.14-1.52.14-2.68l-1.38-7.93c-.29-1.69-.61-2.85-1.21-4.44l-1.34-3.58,2.68-2.73c1.1-1.12,1.96-2.62,2.7-4.72.58-1.58.72-2.28.75-2.55l.8-7.02,9.72,2.76,1.17.11c.43.04.72.07,2.31.07h10.59c1.52,0,1.83-.03,2.35-.07l7.33-.61-.88,7.3c-.05.43-.08.88-.08,2.17v7.74l2.19-.25v8.16l4.94,1.12-4.94,6.45v1.61l-1.14-.11c-.58.79-.92,1.38-1.46,2.48l-2.39,4.86-5.08-1.88Z" style="fill: #33f;"/>
            </g>
            <g>
              <path d="M184.95,43.26c-.58-1.2-1.04-1.93-1.84-2.9l-.19-.24-.51.07v-.7l-5.45-6.63,5.45-1.26v-4.9l-2.56-7.08,1.36-.3-1.96-1.4,11.34-12.03,4.12,3.11.61-2.87,14.6,1.19,1.7-2.24,12.75,11.4-3.54,3.9,3.51,2.45-2.81,4.48v4.05l4.73.96-4.73,6.9v.85l-.54-.07c-.77,1.14-1.18,1.88-1.77,3.17l-2.15,4.72s-5.08-1.48-5.13-1.49l.13.55h-19.51l.1-.74c-.14.05-5.43,1.77-5.43,1.77l-2.27-4.73Z" style="fill: #33f;"/>
              <path d="M184.95,43.26c-.58-1.2-1.04-1.93-1.84-2.9l-.19-.24-.51.07v-.7l-5.45-6.63,5.45-1.26v-4.9l-2.56-7.08,1.36-.3-1.96-1.4,11.34-12.03,4.12,3.11.61-2.87,14.6,1.19,1.7-2.24,12.75,11.4-3.54,3.9,3.51,2.45-2.81,4.48v4.05l4.73.96-4.73,6.9v.85l-.54-.07c-.77,1.14-1.18,1.88-1.77,3.17l-2.15,4.72s-5.08-1.48-5.13-1.49l.13.55h-19.51l.1-.74c-.14.05-5.43,1.77-5.43,1.77l-2.27-4.73Z" style="fill: #33f;"/>
            </g>
            <g>
              <path d="M227.3,47.08v-.06s-14.79,0-14.79,0l.87-6.77c.08-.58.1-1.13.1-2.17v-4.2l-1.56.22V15.61l.48.07v-7.53l4.3.69-.4-1.99h11.02v-.02s.19.02.19.02h8.35l-.16.8c.19,0,.4,0,.64,0h5.58c1.06,0,1.2-.02,1.47-.07l3.75-.63,6.12,8.8-1.51,3.25c-.1.24-.23.64-.68,1.92-.34.96-.76,2.04-1.22,3.14.49.86.87,1.71,1.24,2.69.71,1.99,1.07,4,1.07,5.89,0,4.54-2.28,8.16-6.11,9.7-.38.16-.78.29-1.2.41l.6,4.32h-18.15Z" style="fill: #33f;"/>
              <path d="M227.3,47.08v-.06s-14.79,0-14.79,0l.87-6.77c.08-.58.1-1.13.1-2.17v-4.2l-1.56.22V15.61l.48.07v-7.53l4.3.69-.4-1.99h11.02v-.02s.19.02.19.02h8.35l-.16.8c.19,0,.4,0,.64,0h5.58c1.06,0,1.2-.02,1.47-.07l3.75-.63,6.12,8.8-1.51,3.25c-.1.24-.23.64-.68,1.92-.34.96-.76,2.04-1.22,3.14.49.86.87,1.71,1.24,2.69.71,1.99,1.07,4,1.07,5.89,0,4.54-2.28,8.16-6.11,9.7-.38.16-.78.29-1.2.41l.6,4.32h-18.15Z" style="fill: #33f;"/>
            </g>
          </g>
        </g>
      </g>
      <g>
        <g>
          <g>
            <g>
              <g id="j" data-name="Gブレイバー">
                <g>
                  <path d="M13.55,111.41L2.35,13.4l88.05,29.88v3.09l33.84,5.94-6.65-21.28,15.54,3.88-.74-4.18,35.03,8.76v12.37h22v4.36l65.4-18,1.25,9.55,7.62-3.35-.04-.22,29.88-24.31,3.44,8.52.5-4.19,21.16-3.62.8-6.8,45.09-7.72-17.58,51.06-20.24,5.4-1.73,5.02-11.01,2.94,1.68,4.15,41.4-13.8v59.65l-26.45-8.82,4.12,10.22-49.06,36.89-10.1-52.6-6.58,43.84-21.88-14.16.33,2.92-40.79-8.04-.61-28.06-34.01,25.65-20.6-16.79v-1.63l-48.5,33.18-5.52-7.03.13,1.77-37.84,24.08.79-15.33-25.24,15.94-21.69-51.12ZM94.66,98.62l14.83-9.09-15.67-2.41.84,11.5ZM54.46,81.18l2.98-.81-2.25-5.86-.72,6.67Z"/>
                  <path d="M13.55,111.41L2.35,13.4l88.05,29.88v3.09l33.84,5.94-6.65-21.28,15.54,3.88-.74-4.18,35.03,8.76v12.37h22v4.36l65.4-18,1.25,9.55,7.62-3.35-.04-.22,29.88-24.31,3.44,8.52.5-4.19,21.16-3.62.8-6.8,45.09-7.72-17.58,51.06-20.24,5.4-1.73,5.02-11.01,2.94,1.68,4.15,41.4-13.8v59.65l-26.45-8.82,4.12,10.22-49.06,36.89-10.1-52.6-6.58,43.84-21.88-14.16.33,2.92-40.79-8.04-.61-28.06-34.01,25.65-20.6-16.79v-1.63l-48.5,33.18-5.52-7.03.13,1.77-37.84,24.08.79-15.33-25.24,15.94-21.69-51.12ZM94.66,98.62l14.83-9.09-15.67-2.41.84,11.5ZM54.46,81.18l2.98-.81-2.25-5.86-.72,6.67Z"/>
                </g>
                <g>
                  <path d="M13.55,111.41L2.35,13.4l88.05,29.88v3.09l33.84,5.94-6.65-21.28,15.54,3.88-.74-4.18,35.03,8.76v12.37h22v4.36l65.4-18,1.25,9.55,7.62-3.35-.04-.22,29.88-24.31,3.44,8.52.5-4.19,21.16-3.62.8-6.8,45.09-7.72-17.58,51.06-20.24,5.4-1.73,5.02-11.01,2.94,1.68,4.15,41.4-13.8v59.65l-26.45-8.82,4.12,10.22-49.06,36.89-10.1-52.6-6.58,43.84-21.88-14.16.33,2.92-40.79-8.04-.61-28.06-34.01,25.65-20.6-16.79v-1.63l-48.5,33.18-5.52-7.03.13,1.77-37.84,24.08.79-15.33-25.24,15.94-21.69-51.12ZM94.66,98.62l14.83-9.09-15.67-2.41.84,11.5ZM54.46,81.18l2.98-.81-2.25-5.86-.72,6.67Z"/>
                  <path d="M13.55,111.41L2.35,13.4l88.05,29.88v3.09l33.84,5.94-6.65-21.28,15.54,3.88-.74-4.18,35.03,8.76v12.37h22v4.36l65.4-18,1.25,9.55,7.62-3.35-.04-.22,29.88-24.31,3.44,8.52.5-4.19,21.16-3.62.8-6.8,45.09-7.72-17.58,51.06-20.24,5.4-1.73,5.02-11.01,2.94,1.68,4.15,41.4-13.8v59.65l-26.45-8.82,4.12,10.22-49.06,36.89-10.1-52.6-6.58,43.84-21.88-14.16.33,2.92-40.79-8.04-.61-28.06-34.01,25.65-20.6-16.79v-1.63l-48.5,33.18-5.52-7.03.13,1.77-37.84,24.08.79-15.33-25.24,15.94-21.69-51.12ZM94.66,98.62l14.83-9.09-15.67-2.41.84,11.5ZM54.46,81.18l2.98-.81-2.25-5.86-.72,6.67Z"/>
                </g>
                <g>
                  <path d="M13.55,111.41L2.35,13.4l88.05,29.88v3.09l33.84,5.94-6.65-21.28,15.54,3.88-.74-4.18,35.03,8.76v12.37h22v4.36l65.4-18,1.25,9.55,7.62-3.35-.04-.22,29.88-24.31,3.44,8.52.5-4.19,21.16-3.62.8-6.8,45.09-7.72-17.58,51.06-20.24,5.4-1.73,5.02-11.01,2.94,1.68,4.15,41.4-13.8v59.65l-26.45-8.82,4.12,10.22-49.06,36.89-10.1-52.6-6.58,43.84-21.88-14.16.33,2.92-40.79-8.04-.61-28.06-34.01,25.65-20.6-16.79v-1.63l-48.5,33.18-5.52-7.03.13,1.77-37.84,24.08.79-15.33-25.24,15.94-21.69-51.12ZM94.66,98.62l14.83-9.09-15.67-2.41.84,11.5ZM54.46,81.18l2.98-.81-2.25-5.86-.72,6.67Z"/>
                  <path d="M13.55,111.41L2.35,13.4l88.05,29.88v3.09l33.84,5.94-6.65-21.28,15.54,3.88-.74-4.18,35.03,8.76v12.37h22v4.36l65.4-18,1.25,9.55,7.62-3.35-.04-.22,29.88-24.31,3.44,8.52.5-4.19,21.16-3.62.8-6.8,45.09-7.72-17.58,51.06-20.24,5.4-1.73,5.02-11.01,2.94,1.68,4.15,41.4-13.8v59.65l-26.45-8.82,4.12,10.22-49.06,36.89-10.1-52.6-6.58,43.84-21.88-14.16.33,2.92-40.79-8.04-.61-28.06-34.01,25.65-20.6-16.79v-1.63l-48.5,33.18-5.52-7.03.13,1.77-37.84,24.08.79-15.33-25.24,15.94-21.69-51.12ZM94.66,98.62l14.83-9.09-15.67-2.41.84,11.5ZM54.46,81.18l2.98-.81-2.25-5.86-.72,6.67Z"/>
                </g>
              </g>
              <g id="k" data-name="バースト">
                <g>
                  <path d="M195.47,182.58l-14.32,12.72-21.65-12.82,1.85,4.17-42.38,6.68-.16-.73-.34,1.95-39.95-8.45,22.04-66.69,18.06,4.68,12.71-5.05.76,1.71,29-8.29-.41.97,8.69-2.48-6.23,14.96,46.89-2.53-.1-2.53h39l-.89,21.68,22.67,7.8-18.03,36.05-6.27-3.92-.46,11.38h-21.96l-2.67,9.66-25.83-20.93ZM158.84,144.84l.25-9.24-3.85,9.24h3.6Z"/>
                  <path d="M195.47,182.58l-14.32,12.72-21.65-12.82,1.85,4.17-42.38,6.68-.16-.73-.34,1.95-39.95-8.45,22.04-66.69,18.06,4.68,12.71-5.05.76,1.71,29-8.29-.41.97,8.69-2.48-6.23,14.96,46.89-2.53-.1-2.53h39l-.89,21.68,22.67,7.8-18.03,36.05-6.27-3.92-.46,11.38h-21.96l-2.67,9.66-25.83-20.93ZM158.84,144.84l.25-9.24-3.85,9.24h3.6Z"/>
                </g>
                <g>
                  <path d="M195.47,182.58l-14.32,12.72-21.65-12.82,1.85,4.17-42.38,6.68-.16-.73-.34,1.95-39.95-8.45,22.04-66.69,18.06,4.68,12.71-5.05.76,1.71,29-8.29-.41.97,8.69-2.48-6.23,14.96,46.89-2.53-.1-2.53h39l-.89,21.68,22.67,7.8-18.03,36.05-6.27-3.92-.46,11.38h-21.96l-2.67,9.66-25.83-20.93ZM158.84,144.84l.25-9.24-3.85,9.24h3.6Z"/>
                  <path d="M195.47,182.58l-14.32,12.72-21.65-12.82,1.85,4.17-42.38,6.68-.16-.73-.34,1.95-39.95-8.45,22.04-66.69,18.06,4.68,12.71-5.05.76,1.71,29-8.29-.41.97,8.69-2.48-6.23,14.96,46.89-2.53-.1-2.53h39l-.89,21.68,22.67,7.8-18.03,36.05-6.27-3.92-.46,11.38h-21.96l-2.67,9.66-25.83-20.93ZM158.84,144.84l.25-9.24-3.85,9.24h3.6Z"/>
                </g>
                <g>
                  <path d="M195.47,182.58l-14.32,12.72-21.65-12.82,1.85,4.17-42.38,6.68-.16-.73-.34,1.95-39.95-8.45,22.04-66.69,18.06,4.68,12.71-5.05.76,1.71,29-8.29-.41.97,8.69-2.48-6.23,14.96,46.89-2.53-.1-2.53h39l-.89,21.68,22.67,7.8-18.03,36.05-6.27-3.92-.46,11.38h-21.96l-2.67,9.66-25.83-20.93ZM158.84,144.84l.25-9.24-3.85,9.24h3.6Z"/>
                  <path d="M195.47,182.58l-14.32,12.72-21.65-12.82,1.85,4.17-42.38,6.68-.16-.73-.34,1.95-39.95-8.45,22.04-66.69,18.06,4.68,12.71-5.05.76,1.71,29-8.29-.41.97,8.69-2.48-6.23,14.96,46.89-2.53-.1-2.53h39l-.89,21.68,22.67,7.8-18.03,36.05-6.27-3.92-.46,11.38h-21.96l-2.67,9.66-25.83-20.93ZM158.84,144.84l.25-9.24-3.85,9.24h3.6Z"/>
                </g>
              </g>
            </g>
            <g>
              <g id="l" data-name="Gブレイバー">
                <g>
                  <path d="M13.55,111.41L2.35,13.4l88.05,29.88v3.09l33.84,5.94-6.65-21.28,15.54,3.88-.74-4.18,35.03,8.76v12.37h22v4.36l65.4-18,1.25,9.55,7.62-3.35-.04-.22,29.88-24.31,3.44,8.52.5-4.19,21.16-3.62.8-6.8,45.09-7.72-17.58,51.06-20.24,5.4-1.73,5.02-11.01,2.94,1.68,4.15,41.4-13.8v59.65l-26.45-8.82,4.12,10.22-49.06,36.89-10.1-52.6-6.58,43.84-21.88-14.16.33,2.92-40.79-8.04-.61-28.06-34.01,25.65-20.6-16.79v-1.63l-48.5,33.18-5.52-7.03.13,1.77-37.84,24.08.79-15.33-25.24,15.94-21.69-51.12ZM94.66,98.62l14.83-9.09-15.67-2.41.84,11.5ZM54.46,81.18l2.98-.81-2.25-5.86-.72,6.67Z"/>
                  <path d="M13.55,111.41L2.35,13.4l88.05,29.88v3.09l33.84,5.94-6.65-21.28,15.54,3.88-.74-4.18,35.03,8.76v12.37h22v4.36l65.4-18,1.25,9.55,7.62-3.35-.04-.22,29.88-24.31,3.44,8.52.5-4.19,21.16-3.62.8-6.8,45.09-7.72-17.58,51.06-20.24,5.4-1.73,5.02-11.01,2.94,1.68,4.15,41.4-13.8v59.65l-26.45-8.82,4.12,10.22-49.06,36.89-10.1-52.6-6.58,43.84-21.88-14.16.33,2.92-40.79-8.04-.61-28.06-34.01,25.65-20.6-16.79v-1.63l-48.5,33.18-5.52-7.03.13,1.77-37.84,24.08.79-15.33-25.24,15.94-21.69-51.12ZM94.66,98.62l14.83-9.09-15.67-2.41.84,11.5ZM54.46,81.18l2.98-.81-2.25-5.86-.72,6.67Z"/>
                </g>
                <g>
                  <path d="M13.55,111.41L2.35,13.4l88.05,29.88v3.09l33.84,5.94-6.65-21.28,15.54,3.88-.74-4.18,35.03,8.76v12.37h22v4.36l65.4-18,1.25,9.55,7.62-3.35-.04-.22,29.88-24.31,3.44,8.52.5-4.19,21.16-3.62.8-6.8,45.09-7.72-17.58,51.06-20.24,5.4-1.73,5.02-11.01,2.94,1.68,4.15,41.4-13.8v59.65l-26.45-8.82,4.12,10.22-49.06,36.89-10.1-52.6-6.58,43.84-21.88-14.16.33,2.92-40.79-8.04-.61-28.06-34.01,25.65-20.6-16.79v-1.63l-48.5,33.18-5.52-7.03.13,1.77-37.84,24.08.79-15.33-25.24,15.94-21.69-51.12ZM94.66,98.62l14.83-9.09-15.67-2.41.84,11.5ZM54.46,81.18l2.98-.81-2.25-5.86-.72,6.67Z"/>
                  <path d="M13.55,111.41L2.35,13.4l88.05,29.88v3.09l33.84,5.94-6.65-21.28,15.54,3.88-.74-4.18,35.03,8.76v12.37h22v4.36l65.4-18,1.25,9.55,7.62-3.35-.04-.22,29.88-24.31,3.44,8.52.5-4.19,21.16-3.62.8-6.8,45.09-7.72-17.58,51.06-20.24,5.4-1.73,5.02-11.01,2.94,1.68,4.15,41.4-13.8v59.65l-26.45-8.82,4.12,10.22-49.06,36.89-10.1-52.6-6.58,43.84-21.88-14.16.33,2.92-40.79-8.04-.61-28.06-34.01,25.65-20.6-16.79v-1.63l-48.5,33.18-5.52-7.03.13,1.77-37.84,24.08.79-15.33-25.24,15.94-21.69-51.12ZM94.66,98.62l14.83-9.09-15.67-2.41.84,11.5ZM54.46,81.18l2.98-.81-2.25-5.86-.72,6.67Z"/>
                </g>
                <g>
                  <path d="M13.55,111.41L2.35,13.4l88.05,29.88v3.09l33.84,5.94-6.65-21.28,15.54,3.88-.74-4.18,35.03,8.76v12.37h22v4.36l65.4-18,1.25,9.55,7.62-3.35-.04-.22,29.88-24.31,3.44,8.52.5-4.19,21.16-3.62.8-6.8,45.09-7.72-17.58,51.06-20.24,5.4-1.73,5.02-11.01,2.94,1.68,4.15,41.4-13.8v59.65l-26.45-8.82,4.12,10.22-49.06,36.89-10.1-52.6-6.58,43.84-21.88-14.16.33,2.92-40.79-8.04-.61-28.06-34.01,25.65-20.6-16.79v-1.63l-48.5,33.18-5.52-7.03.13,1.77-37.84,24.08.79-15.33-25.24,15.94-21.69-51.12ZM94.66,98.62l14.83-9.09-15.67-2.41.84,11.5ZM54.46,81.18l2.98-.81-2.25-5.86-.72,6.67Z"/>
                  <path d="M13.55,111.41L2.35,13.4l88.05,29.88v3.09l33.84,5.94-6.65-21.28,15.54,3.88-.74-4.18,35.03,8.76v12.37h22v4.36l65.4-18,1.25,9.55,7.62-3.35-.04-.22,29.88-24.31,3.44,8.52.5-4.19,21.16-3.62.8-6.8,45.09-7.72-17.58,51.06-20.24,5.4-1.73,5.02-11.01,2.94,1.68,4.15,41.4-13.8v59.65l-26.45-8.82,4.12,10.22-49.06,36.89-10.1-52.6-6.58,43.84-21.88-14.16.33,2.92-40.79-8.04-.61-28.06-34.01,25.65-20.6-16.79v-1.63l-48.5,33.18-5.52-7.03.13,1.77-37.84,24.08.79-15.33-25.24,15.94-21.69-51.12ZM94.66,98.62l14.83-9.09-15.67-2.41.84,11.5ZM54.46,81.18l2.98-.81-2.25-5.86-.72,6.67Z"/>
                </g>
              </g>
              <g id="m" data-name="バースト">
                <g>
                  <path d="M195.47,182.58l-14.32,12.72-21.65-12.82,1.85,4.17-42.38,6.68-.16-.73-.34,1.95-39.95-8.45,22.04-66.69,18.06,4.68,12.71-5.05.76,1.71,29-8.29-.41.97,8.69-2.48-6.23,14.96,46.89-2.53-.1-2.53h39l-.89,21.68,22.67,7.8-18.03,36.05-6.27-3.92-.46,11.38h-21.96l-2.67,9.66-25.83-20.93ZM158.84,144.84l.25-9.24-3.85,9.24h3.6Z"/>
                  <path d="M195.47,182.58l-14.32,12.72-21.65-12.82,1.85,4.17-42.38,6.68-.16-.73-.34,1.95-39.95-8.45,22.04-66.69,18.06,4.68,12.71-5.05.76,1.71,29-8.29-.41.97,8.69-2.48-6.23,14.96,46.89-2.53-.1-2.53h39l-.89,21.68,22.67,7.8-18.03,36.05-6.27-3.92-.46,11.38h-21.96l-2.67,9.66-25.83-20.93ZM158.84,144.84l.25-9.24-3.85,9.24h3.6Z"/>
                </g>
                <g>
                  <path d="M195.47,182.58l-14.32,12.72-21.65-12.82,1.85,4.17-42.38,6.68-.16-.73-.34,1.95-39.95-8.45,22.04-66.69,18.06,4.68,12.71-5.05.76,1.71,29-8.29-.41.97,8.69-2.48-6.23,14.96,46.89-2.53-.1-2.53h39l-.89,21.68,22.67,7.8-18.03,36.05-6.27-3.92-.46,11.38h-21.96l-2.67,9.66-25.83-20.93ZM158.84,144.84l.25-9.24-3.85,9.24h3.6Z"/>
                  <path d="M195.47,182.58l-14.32,12.72-21.65-12.82,1.85,4.17-42.38,6.68-.16-.73-.34,1.95-39.95-8.45,22.04-66.69,18.06,4.68,12.71-5.05.76,1.71,29-8.29-.41.97,8.69-2.48-6.23,14.96,46.89-2.53-.1-2.53h39l-.89,21.68,22.67,7.8-18.03,36.05-6.27-3.92-.46,11.38h-21.96l-2.67,9.66-25.83-20.93ZM158.84,144.84l.25-9.24-3.85,9.24h3.6Z"/>
                </g>
                <g>
                  <path d="M195.47,182.58l-14.32,12.72-21.65-12.82,1.85,4.17-42.38,6.68-.16-.73-.34,1.95-39.95-8.45,22.04-66.69,18.06,4.68,12.71-5.05.76,1.71,29-8.29-.41.97,8.69-2.48-6.23,14.96,46.89-2.53-.1-2.53h39l-.89,21.68,22.67,7.8-18.03,36.05-6.27-3.92-.46,11.38h-21.96l-2.67,9.66-25.83-20.93ZM158.84,144.84l.25-9.24-3.85,9.24h3.6Z"/>
                  <path d="M195.47,182.58l-14.32,12.72-21.65-12.82,1.85,4.17-42.38,6.68-.16-.73-.34,1.95-39.95-8.45,22.04-66.69,18.06,4.68,12.71-5.05.76,1.71,29-8.29-.41.97,8.69-2.48-6.23,14.96,46.89-2.53-.1-2.53h39l-.89,21.68,22.67,7.8-18.03,36.05-6.27-3.92-.46,11.38h-21.96l-2.67,9.66-25.83-20.93ZM158.84,144.84l.25-9.24-3.85,9.24h3.6Z"/>
                </g>
              </g>
            </g>
            <g>
              <g id="n" data-name="Gブレイバー">
                <g>
                  <path d="M13.55,111.41L2.35,13.4l88.05,29.88v3.09l33.84,5.94-6.65-21.28,15.54,3.88-.74-4.18,35.03,8.76v12.37h22v4.36l65.4-18,1.25,9.55,7.62-3.35-.04-.22,29.88-24.31,3.44,8.52.5-4.19,21.16-3.62.8-6.8,45.09-7.72-17.58,51.06-20.24,5.4-1.73,5.02-11.01,2.94,1.68,4.15,41.4-13.8v59.65l-26.45-8.82,4.12,10.22-49.06,36.89-10.1-52.6-6.58,43.84-21.88-14.16.33,2.92-40.79-8.04-.61-28.06-34.01,25.65-20.6-16.79v-1.63l-48.5,33.18-5.52-7.03.13,1.77-37.84,24.08.79-15.33-25.24,15.94-21.69-51.12ZM94.66,98.62l14.83-9.09-15.67-2.41.84,11.5ZM54.46,81.18l2.98-.81-2.25-5.86-.72,6.67Z"/>
                  <path d="M13.55,111.41L2.35,13.4l88.05,29.88v3.09l33.84,5.94-6.65-21.28,15.54,3.88-.74-4.18,35.03,8.76v12.37h22v4.36l65.4-18,1.25,9.55,7.62-3.35-.04-.22,29.88-24.31,3.44,8.52.5-4.19,21.16-3.62.8-6.8,45.09-7.72-17.58,51.06-20.24,5.4-1.73,5.02-11.01,2.94,1.68,4.15,41.4-13.8v59.65l-26.45-8.82,4.12,10.22-49.06,36.89-10.1-52.6-6.58,43.84-21.88-14.16.33,2.92-40.79-8.04-.61-28.06-34.01,25.65-20.6-16.79v-1.63l-48.5,33.18-5.52-7.03.13,1.77-37.84,24.08.79-15.33-25.24,15.94-21.69-51.12ZM94.66,98.62l14.83-9.09-15.67-2.41.84,11.5ZM54.46,81.18l2.98-.81-2.25-5.86-.72,6.67Z"/>
                </g>
                <g>
                  <path d="M13.55,111.41L2.35,13.4l88.05,29.88v3.09l33.84,5.94-6.65-21.28,15.54,3.88-.74-4.18,35.03,8.76v12.37h22v4.36l65.4-18,1.25,9.55,7.62-3.35-.04-.22,29.88-24.31,3.44,8.52.5-4.19,21.16-3.62.8-6.8,45.09-7.72-17.58,51.06-20.24,5.4-1.73,5.02-11.01,2.94,1.68,4.15,41.4-13.8v59.65l-26.45-8.82,4.12,10.22-49.06,36.89-10.1-52.6-6.58,43.84-21.88-14.16.33,2.92-40.79-8.04-.61-28.06-34.01,25.65-20.6-16.79v-1.63l-48.5,33.18-5.52-7.03.13,1.77-37.84,24.08.79-15.33-25.24,15.94-21.69-51.12ZM94.66,98.62l14.83-9.09-15.67-2.41.84,11.5ZM54.46,81.18l2.98-.81-2.25-5.86-.72,6.67Z"/>
                  <path d="M13.55,111.41L2.35,13.4l88.05,29.88v3.09l33.84,5.94-6.65-21.28,15.54,3.88-.74-4.18,35.03,8.76v12.37h22v4.36l65.4-18,1.25,9.55,7.62-3.35-.04-.22,29.88-24.31,3.44,8.52.5-4.19,21.16-3.62.8-6.8,45.09-7.72-17.58,51.06-20.24,5.4-1.73,5.02-11.01,2.94,1.68,4.15,41.4-13.8v59.65l-26.45-8.82,4.12,10.22-49.06,36.89-10.1-52.6-6.58,43.84-21.88-14.16.33,2.92-40.79-8.04-.61-28.06-34.01,25.65-20.6-16.79v-1.63l-48.5,33.18-5.52-7.03.13,1.77-37.84,24.08.79-15.33-25.24,15.94-21.69-51.12ZM94.66,98.62l14.83-9.09-15.67-2.41.84,11.5ZM54.46,81.18l2.98-.81-2.25-5.86-.72,6.67Z"/>
                </g>
                <g>
                  <path d="M13.55,111.41L2.35,13.4l88.05,29.88v3.09l33.84,5.94-6.65-21.28,15.54,3.88-.74-4.18,35.03,8.76v12.37h22v4.36l65.4-18,1.25,9.55,7.62-3.35-.04-.22,29.88-24.31,3.44,8.52.5-4.19,21.16-3.62.8-6.8,45.09-7.72-17.58,51.06-20.24,5.4-1.73,5.02-11.01,2.94,1.68,4.15,41.4-13.8v59.65l-26.45-8.82,4.12,10.22-49.06,36.89-10.1-52.6-6.58,43.84-21.88-14.16.33,2.92-40.79-8.04-.61-28.06-34.01,25.65-20.6-16.79v-1.63l-48.5,33.18-5.52-7.03.13,1.77-37.84,24.08.79-15.33-25.24,15.94-21.69-51.12ZM94.66,98.62l14.83-9.09-15.67-2.41.84,11.5ZM54.46,81.18l2.98-.81-2.25-5.86-.72,6.67Z"/>
                  <path d="M13.55,111.41L2.35,13.4l88.05,29.88v3.09l33.84,5.94-6.65-21.28,15.54,3.88-.74-4.18,35.03,8.76v12.37h22v4.36l65.4-18,1.25,9.55,7.62-3.35-.04-.22,29.88-24.31,3.44,8.52.5-4.19,21.16-3.62.8-6.8,45.09-7.72-17.58,51.06-20.24,5.4-1.73,5.02-11.01,2.94,1.68,4.15,41.4-13.8v59.65l-26.45-8.82,4.12,10.22-49.06,36.89-10.1-52.6-6.58,43.84-21.88-14.16.33,2.92-40.79-8.04-.61-28.06-34.01,25.65-20.6-16.79v-1.63l-48.5,33.18-5.52-7.03.13,1.77-37.84,24.08.79-15.33-25.24,15.94-21.69-51.12ZM94.66,98.62l14.83-9.09-15.67-2.41.84,11.5ZM54.46,81.18l2.98-.81-2.25-5.86-.72,6.67Z"/>
                </g>
              </g>
              <g id="o" data-name="バースト">
                <g>
                  <path d="M195.47,182.58l-14.32,12.72-21.65-12.82,1.85,4.17-42.38,6.68-.16-.73-.34,1.95-39.95-8.45,22.04-66.69,18.06,4.68,12.71-5.05.76,1.71,29-8.29-.41.97,8.69-2.48-6.23,14.96,46.89-2.53-.1-2.53h39l-.89,21.68,22.67,7.8-18.03,36.05-6.27-3.92-.46,11.38h-21.96l-2.67,9.66-25.83-20.93ZM158.84,144.84l.25-9.24-3.85,9.24h3.6Z"/>
                  <path d="M195.47,182.58l-14.32,12.72-21.65-12.82,1.85,4.17-42.38,6.68-.16-.73-.34,1.95-39.95-8.45,22.04-66.69,18.06,4.68,12.71-5.05.76,1.71,29-8.29-.41.97,8.69-2.48-6.23,14.96,46.89-2.53-.1-2.53h39l-.89,21.68,22.67,7.8-18.03,36.05-6.27-3.92-.46,11.38h-21.96l-2.67,9.66-25.83-20.93ZM158.84,144.84l.25-9.24-3.85,9.24h3.6Z"/>
                </g>
                <g>
                  <path d="M195.47,182.58l-14.32,12.72-21.65-12.82,1.85,4.17-42.38,6.68-.16-.73-.34,1.95-39.95-8.45,22.04-66.69,18.06,4.68,12.71-5.05.76,1.71,29-8.29-.41.97,8.69-2.48-6.23,14.96,46.89-2.53-.1-2.53h39l-.89,21.68,22.67,7.8-18.03,36.05-6.27-3.92-.46,11.38h-21.96l-2.67,9.66-25.83-20.93ZM158.84,144.84l.25-9.24-3.85,9.24h3.6Z"/>
                  <path d="M195.47,182.58l-14.32,12.72-21.65-12.82,1.85,4.17-42.38,6.68-.16-.73-.34,1.95-39.95-8.45,22.04-66.69,18.06,4.68,12.71-5.05.76,1.71,29-8.29-.41.97,8.69-2.48-6.23,14.96,46.89-2.53-.1-2.53h39l-.89,21.68,22.67,7.8-18.03,36.05-6.27-3.92-.46,11.38h-21.96l-2.67,9.66-25.83-20.93ZM158.84,144.84l.25-9.24-3.85,9.24h3.6Z"/>
                </g>
                <g>
                  <path d="M195.47,182.58l-14.32,12.72-21.65-12.82,1.85,4.17-42.38,6.68-.16-.73-.34,1.95-39.95-8.45,22.04-66.69,18.06,4.68,12.71-5.05.76,1.71,29-8.29-.41.97,8.69-2.48-6.23,14.96,46.89-2.53-.1-2.53h39l-.89,21.68,22.67,7.8-18.03,36.05-6.27-3.92-.46,11.38h-21.96l-2.67,9.66-25.83-20.93ZM158.84,144.84l.25-9.24-3.85,9.24h3.6Z"/>
                  <path d="M195.47,182.58l-14.32,12.72-21.65-12.82,1.85,4.17-42.38,6.68-.16-.73-.34,1.95-39.95-8.45,22.04-66.69,18.06,4.68,12.71-5.05.76,1.71,29-8.29-.41.97,8.69-2.48-6.23,14.96,46.89-2.53-.1-2.53h39l-.89,21.68,22.67,7.8-18.03,36.05-6.27-3.92-.46,11.38h-21.96l-2.67,9.66-25.83-20.93ZM158.84,144.84l.25-9.24-3.85,9.24h3.6Z"/>
                </g>
              </g>
            </g>
          </g>
          <g>
            <g id="p" data-name="Gブレイバー">
              <g>
                <path d="M19.41,109.86L9.38,22.12l75.02,25.45v3.83l48.5,8.51-6.4-20.48,14.14,3.53-.74-4.18,21.52,5.38v13.68h22v21.76l6.96-5.39-2.78-11.29,62.16-17.11,2.25,17.17,3.12-8.26,15.34-6.76-.27-1.4,20.79-16.92,9.17,22.71,2.72-23,21.16-3.62.8-6.8,30.68-5.25-13.24,38.47-20.24,5.4-1.73,5.02-14.48,3.87,6.83,16.91v-1.41l38.35-12.78v43l-30.88-10.29,7.26,18-37.69,28.34-14.9-77.62-10.41,69.34-24.72-15.99.83,7.37-28.01-5.52-.93-42.7-11.33,1.45,4.98,11.21-33.08,24.95-14.74-12.02v-35.59l-5.31-2.12.53,4.21-3.22-1.29v30.1l-45.25,30.96-14.19-18.06,1.3,17.79-25.01,15.91.83-16.25-.63,1.33-28.48,17.99-18.59-43.82ZM89.4,108.89l30.02-18.4v-5.49l-32.13-4.94,2.11,28.84ZM51.37,105.99v-17.75l14.04-3.83-6.14-15.96-9.02-4.25-3.36,31.05,4.47,10.73ZM237.23,102.14l8.86-23.46-11.36,1.46,2.49,22.01Z"/>
                <path d="M19.41,109.86L9.38,22.12l75.02,25.45v3.83l48.5,8.51-6.4-20.48,14.14,3.53-.74-4.18,21.52,5.38v13.68h22v21.76l6.96-5.39-2.78-11.29,62.16-17.11,2.25,17.17,3.12-8.26,15.34-6.76-.27-1.4,20.79-16.92,9.17,22.71,2.72-23,21.16-3.62.8-6.8,30.68-5.25-13.24,38.47-20.24,5.4-1.73,5.02-14.48,3.87,6.83,16.91v-1.41l38.35-12.78v43l-30.88-10.29,7.26,18-37.69,28.34-14.9-77.62-10.41,69.34-24.72-15.99.83,7.37-28.01-5.52-.93-42.7-11.33,1.45,4.98,11.21-33.08,24.95-14.74-12.02v-35.59l-5.31-2.12.53,4.21-3.22-1.29v30.1l-45.25,30.96-14.19-18.06,1.3,17.79-25.01,15.91.83-16.25-.63,1.33-28.48,17.99-18.59-43.82ZM89.4,108.89l30.02-18.4v-5.49l-32.13-4.94,2.11,28.84ZM51.37,105.99v-17.75l14.04-3.83-6.14-15.96-9.02-4.25-3.36,31.05,4.47,10.73ZM237.23,102.14l8.86-23.46-11.36,1.46,2.49,22.01Z"/>
              </g>
              <g>
                <path d="M19.41,109.86L9.38,22.12l75.02,25.45v3.83l48.5,8.51-6.4-20.48,14.14,3.53-.74-4.18,21.52,5.38v13.68h22v21.76l6.96-5.39-2.78-11.29,62.16-17.11,2.25,17.17,3.12-8.26,15.34-6.76-.27-1.4,20.79-16.92,9.17,22.71,2.72-23,21.16-3.62.8-6.8,30.68-5.25-13.24,38.47-20.24,5.4-1.73,5.02-14.48,3.87,6.83,16.91v-1.41l38.35-12.78v43l-30.88-10.29,7.26,18-37.69,28.34-14.9-77.62-10.41,69.34-24.72-15.99.83,7.37-28.01-5.52-.93-42.7-11.33,1.45,4.98,11.21-33.08,24.95-14.74-12.02v-35.59l-5.31-2.12.53,4.21-3.22-1.29v30.1l-45.25,30.96-14.19-18.06,1.3,17.79-25.01,15.91.83-16.25-.63,1.33-28.48,17.99-18.59-43.82ZM89.4,108.89l30.02-18.4v-5.49l-32.13-4.94,2.11,28.84ZM51.37,105.99v-17.75l14.04-3.83-6.14-15.96-9.02-4.25-3.36,31.05,4.47,10.73ZM237.23,102.14l8.86-23.46-11.36,1.46,2.49,22.01Z"/>
                <path d="M19.41,109.86L9.38,22.12l75.02,25.45v3.83l48.5,8.51-6.4-20.48,14.14,3.53-.74-4.18,21.52,5.38v13.68h22v21.76l6.96-5.39-2.78-11.29,62.16-17.11,2.25,17.17,3.12-8.26,15.34-6.76-.27-1.4,20.79-16.92,9.17,22.71,2.72-23,21.16-3.62.8-6.8,30.68-5.25-13.24,38.47-20.24,5.4-1.73,5.02-14.48,3.87,6.83,16.91v-1.41l38.35-12.78v43l-30.88-10.29,7.26,18-37.69,28.34-14.9-77.62-10.41,69.34-24.72-15.99.83,7.37-28.01-5.52-.93-42.7-11.33,1.45,4.98,11.21-33.08,24.95-14.74-12.02v-35.59l-5.31-2.12.53,4.21-3.22-1.29v30.1l-45.25,30.96-14.19-18.06,1.3,17.79-25.01,15.91.83-16.25-.63,1.33-28.48,17.99-18.59-43.82ZM89.4,108.89l30.02-18.4v-5.49l-32.13-4.94,2.11,28.84ZM51.37,105.99v-17.75l14.04-3.83-6.14-15.96-9.02-4.25-3.36,31.05,4.47,10.73ZM237.23,102.14l8.86-23.46-11.36,1.46,2.49,22.01Z"/>
              </g>
              <g>
                <path d="M19.41,109.86L9.38,22.12l75.02,25.45v3.83l48.5,8.51-6.4-20.48,14.14,3.53-.74-4.18,21.52,5.38v13.68h22v21.76l6.96-5.39-2.78-11.29,62.16-17.11,2.25,17.17,3.12-8.26,15.34-6.76-.27-1.4,20.79-16.92,9.17,22.71,2.72-23,21.16-3.62.8-6.8,30.68-5.25-13.24,38.47-20.24,5.4-1.73,5.02-14.48,3.87,6.83,16.91v-1.41l38.35-12.78v43l-30.88-10.29,7.26,18-37.69,28.34-14.9-77.62-10.41,69.34-24.72-15.99.83,7.37-28.01-5.52-.93-42.7-11.33,1.45,4.98,11.21-33.08,24.95-14.74-12.02v-35.59l-5.31-2.12.53,4.21-3.22-1.29v30.1l-45.25,30.96-14.19-18.06,1.3,17.79-25.01,15.91.83-16.25-.63,1.33-28.48,17.99-18.59-43.82ZM89.4,108.89l30.02-18.4v-5.49l-32.13-4.94,2.11,28.84ZM51.37,105.99v-17.75l14.04-3.83-6.14-15.96-9.02-4.25-3.36,31.05,4.47,10.73ZM237.23,102.14l8.86-23.46-11.36,1.46,2.49,22.01Z"/>
                <path d="M19.41,109.86L9.38,22.12l75.02,25.45v3.83l48.5,8.51-6.4-20.48,14.14,3.53-.74-4.18,21.52,5.38v13.68h22v21.76l6.96-5.39-2.78-11.29,62.16-17.11,2.25,17.17,3.12-8.26,15.34-6.76-.27-1.4,20.79-16.92,9.17,22.71,2.72-23,21.16-3.62.8-6.8,30.68-5.25-13.24,38.47-20.24,5.4-1.73,5.02-14.48,3.87,6.83,16.91v-1.41l38.35-12.78v43l-30.88-10.29,7.26,18-37.69,28.34-14.9-77.62-10.41,69.34-24.72-15.99.83,7.37-28.01-5.52-.93-42.7-11.33,1.45,4.98,11.21-33.08,24.95-14.74-12.02v-35.59l-5.31-2.12.53,4.21-3.22-1.29v30.1l-45.25,30.96-14.19-18.06,1.3,17.79-25.01,15.91.83-16.25-.63,1.33-28.48,17.99-18.59-43.82ZM89.4,108.89l30.02-18.4v-5.49l-32.13-4.94,2.11,28.84ZM51.37,105.99v-17.75l14.04-3.83-6.14-15.96-9.02-4.25-3.36,31.05,4.47,10.73ZM237.23,102.14l8.86-23.46-11.36,1.46,2.49,22.01Z"/>
              </g>
            </g>
            <g id="q" data-name="バースト">
              <g>
                <path d="M195.3,174.71l-14.86,13.19-20.6-12.2,1.97-1.85h-12.7l3.59,8.09-29.09,4.59-5.5-24.71-4.48,25.57-27.31-5.77,18.17-54.99,14.52,3.76,9.17-3.65.54,1.21,22.04-6.3-.4.97,8.69-2.48-10.95,26.28-10.05,2.51,3.38,7.61v-5.7h23.26l.51-19.04,47.64-2.57,2.37,27.8-3.22,2.85,5.62,2.2-1.44-35.24h26.5l-.81,19.9,20.42,7.03-12.01,24.03-9.43-5.89-.65,15.93h-20.77l-1.44,5.23-22.67-18.37ZM171.42,164.78l11.72-11.06-11.72.43v10.62Z"/>
                <path d="M195.3,174.71l-14.86,13.19-20.6-12.2,1.97-1.85h-12.7l3.59,8.09-29.09,4.59-5.5-24.71-4.48,25.57-27.31-5.77,18.17-54.99,14.52,3.76,9.17-3.65.54,1.21,22.04-6.3-.4.97,8.69-2.48-10.95,26.28-10.05,2.51,3.38,7.61v-5.7h23.26l.51-19.04,47.64-2.57,2.37,27.8-3.22,2.85,5.62,2.2-1.44-35.24h26.5l-.81,19.9,20.42,7.03-12.01,24.03-9.43-5.89-.65,15.93h-20.77l-1.44,5.23-22.67-18.37ZM171.42,164.78l11.72-11.06-11.72.43v10.62Z"/>
              </g>
              <g>
                <path d="M195.3,174.71l-14.86,13.19-20.6-12.2,1.97-1.85h-12.7l3.59,8.09-29.09,4.59-5.5-24.71-4.48,25.57-27.31-5.77,18.17-54.99,14.52,3.76,9.17-3.65.54,1.21,22.04-6.3-.4.97,8.69-2.48-10.95,26.28-10.05,2.51,3.38,7.61v-5.7h23.26l.51-19.04,47.64-2.57,2.37,27.8-3.22,2.85,5.62,2.2-1.44-35.24h26.5l-.81,19.9,20.42,7.03-12.01,24.03-9.43-5.89-.65,15.93h-20.77l-1.44,5.23-22.67-18.37ZM171.42,164.78l11.72-11.06-11.72.43v10.62Z"/>
                <path d="M195.3,174.71l-14.86,13.19-20.6-12.2,1.97-1.85h-12.7l3.59,8.09-29.09,4.59-5.5-24.71-4.48,25.57-27.31-5.77,18.17-54.99,14.52,3.76,9.17-3.65.54,1.21,22.04-6.3-.4.97,8.69-2.48-10.95,26.28-10.05,2.51,3.38,7.61v-5.7h23.26l.51-19.04,47.64-2.57,2.37,27.8-3.22,2.85,5.62,2.2-1.44-35.24h26.5l-.81,19.9,20.42,7.03-12.01,24.03-9.43-5.89-.65,15.93h-20.77l-1.44,5.23-22.67-18.37ZM171.42,164.78l11.72-11.06-11.72.43v10.62Z"/>
              </g>
              <g>
                <path d="M195.3,174.71l-14.86,13.19-20.6-12.2,1.97-1.85h-12.7l3.59,8.09-29.09,4.59-5.5-24.71-4.48,25.57-27.31-5.77,18.17-54.99,14.52,3.76,9.17-3.65.54,1.21,22.04-6.3-.4.97,8.69-2.48-10.95,26.28-10.05,2.51,3.38,7.61v-5.7h23.26l.51-19.04,47.64-2.57,2.37,27.8-3.22,2.85,5.62,2.2-1.44-35.24h26.5l-.81,19.9,20.42,7.03-12.01,24.03-9.43-5.89-.65,15.93h-20.77l-1.44,5.23-22.67-18.37ZM171.42,164.78l11.72-11.06-11.72.43v10.62Z"/>
                <path d="M195.3,174.71l-14.86,13.19-20.6-12.2,1.97-1.85h-12.7l3.59,8.09-29.09,4.59-5.5-24.71-4.48,25.57-27.31-5.77,18.17-54.99,14.52,3.76,9.17-3.65.54,1.21,22.04-6.3-.4.97,8.69-2.48-10.95,26.28-10.05,2.51,3.38,7.61v-5.7h23.26l.51-19.04,47.64-2.57,2.37,27.8-3.22,2.85,5.62,2.2-1.44-35.24h26.5l-.81,19.9,20.42,7.03-12.01,24.03-9.43-5.89-.65,15.93h-20.77l-1.44,5.23-22.67-18.37ZM171.42,164.78l11.72-11.06-11.72.43v10.62Z"/>
              </g>
            </g>
          </g>
        </g>
        <g>
          <g>
            <g>
              <g>
                <path d="M103.61,50.2h-12.92s.77-8.02.87-9.08l-1.13-3.87c-.45-1.54-.75-2.35-1.27-3.5l-2.17-4.71,2.03-2.89V6.54l1.94.45-.31-3.14h13.23l1.52-3.65,7.09,3.65h2.15l1.59-3.85,6.96,3.85h5.64l-.5,2.85,8.37,4.63-1.33,1.99,4.01,2.69-4.59,5.38c.16.67.33,1.42.51,2.34l.8,3.91,2.09,1.06-1.47,1.99.25,1.2-1.06.3-.64,4.58c-.35,2.54-.89,5.23-2.44,7.75-1.74,2.74-4.05,4.45-6.93,5.17-1.38.35-2.27.39-2.81.39h-.45l-.92-.09h-.51l-.87-.17c-.96-.19-1.9-.51-2.82-.95-.51.22-1.05.45-1.62.67l-6.31,2.49-2.47,2.6-3.52-4.43Z"/>
                <path d="M103.61,50.2h-12.92s.77-8.02.87-9.08l-1.13-3.87c-.45-1.54-.75-2.35-1.27-3.5l-2.17-4.71,2.03-2.89V6.54l1.94.45-.31-3.14h13.23l1.52-3.65,7.09,3.65h2.15l1.59-3.85,6.96,3.85h5.64l-.5,2.85,8.37,4.63-1.33,1.99,4.01,2.69-4.59,5.38c.16.67.33,1.42.51,2.34l.8,3.91,2.09,1.06-1.47,1.99.25,1.2-1.06.3-.64,4.58c-.35,2.54-.89,5.23-2.44,7.75-1.74,2.74-4.05,4.45-6.93,5.17-1.38.35-2.27.39-2.81.39h-.45l-.92-.09h-.51l-.87-.17c-.96-.19-1.9-.51-2.82-.95-.51.22-1.05.45-1.62.67l-6.31,2.49-2.47,2.6-3.52-4.43Z"/>
              </g>
              <g>
                <path d="M139.45,49.04c-2.6.23-4.35.35-8.29.61-.47.03-.87.07-1.46.13l-8.68.9-3.78-24.04,1.92.17v-10.55l-6.26-11.16,15.2-.14c6.46-.06,9.71-.49,10.59-.68l6.56-2.63,1.6,2.41h14.51l-.87,4.87,5.27-.57-.99,10.94q-.09.97-.15,5.24c-.16,11.53-.77,16.02-2.62,19.21-3.11,5.47-8.45,6.07-11.97,6.13l-4.88,6.78-5.73-7.64Z"/>
                <path d="M139.45,49.04c-2.6.23-4.35.35-8.29.61-.47.03-.87.07-1.46.13l-8.68.9-3.78-24.04,1.92.17v-10.55l-6.26-11.16,15.2-.14c6.46-.06,9.71-.49,10.59-.68l6.56-2.63,1.6,2.41h14.51l-.87,4.87,5.27-.57-.99,10.94q-.09.97-.15,5.24c-.16,11.53-.77,16.02-2.62,19.21-3.11,5.47-8.45,6.07-11.97,6.13l-4.88,6.78-5.73-7.64Z"/>
              </g>
              <g>
                <path d="M181.02,49.55c-2.13-.79-3.74-1.49-5.21-2.3-.35.19-.7.37-1.07.55l.24,2.37h-6.25l-5.69,2.04-1-2.04h-11.86l1.1-9.99c.09-.85.12-1.24.12-2.09l-1.34-7.67c-.26-1.5-.53-2.48-1.06-3.9l-2.01-5.37,4.02-4.09c.49-.5,1.23-1.42,2.01-3.62.51-1.4.59-1.87.6-1.92l1.2-10.5,12.85,3.65.89.08c.35.03.59.05,2.03.05h10.59c1.39,0,1.64-.02,2.1-.06l11-.92-1.31,10.96c-.02.2-.06.47-.06,1.81v4.38l2.19-.25v9.12l7.17,1.62-8.54,11.16c-.71.93-.97,1.35-1.53,2.49l-3.58,7.29-7.62-2.82Z"/>
                <path d="M181.02,49.55c-2.13-.79-3.74-1.49-5.21-2.3-.35.19-.7.37-1.07.55l.24,2.37h-6.25l-5.69,2.04-1-2.04h-11.86l1.1-9.99c.09-.85.12-1.24.12-2.09l-1.34-7.67c-.26-1.5-.53-2.48-1.06-3.9l-2.01-5.37,4.02-4.09c.49-.5,1.23-1.42,2.01-3.62.51-1.4.59-1.87.6-1.92l1.2-10.5,12.85,3.65.89.08c.35.03.59.05,2.03.05h10.59c1.39,0,1.64-.02,2.1-.06l11-.92-1.31,10.96c-.02.2-.06.47-.06,1.81v4.38l2.19-.25v9.12l7.17,1.62-8.54,11.16c-.71.93-.97,1.35-1.53,2.49l-3.58,7.29-7.62-2.82Z"/>
              </g>
              <g>
                <path d="M182.25,44.56c-.47-.98-.81-1.52-1.45-2.29l-9.24-11.23,7.85-1.81v-1.99l-2.69-7.42-2.02-1.45,15.54-16.49,2.51,1.89.18-.85,15.59,1.27,2.67-3.52,4.61,4.12,3.05.25-.86,1.72,10.63,9.5-3.28,3.61,3.05,2.13-3.87,6.17v.73l6.77,1.38-7.69,11.21c-.77,1.12-1.11,1.72-1.66,2.93l-3.23,7.08-5.31-1.55h-22.54l-5.2,1.69-3.41-7.09Z"/>
                <path d="M182.25,44.56c-.47-.98-.81-1.52-1.45-2.29l-9.24-11.23,7.85-1.81v-1.99l-2.69-7.42-2.02-1.45,15.54-16.49,2.51,1.89.18-.85,15.59,1.27,2.67-3.52,4.61,4.12,3.05.25-.86,1.72,10.63,9.5-3.28,3.61,3.05,2.13-3.87,6.17v.73l6.77,1.38-7.69,11.21c-.77,1.12-1.11,1.72-1.66,2.93l-3.23,7.08-5.31-1.55h-22.54l-5.2,1.69-3.41-7.09Z"/>
              </g>
              <g>
                <path d="M224.08,50.08v-.06s-14.98,0-14.98,0l1.31-10.15c.05-.39.08-.77.08-1.79v-.74l-1.56.22V12.12l.48.07v-7.55l3.51.56-.27-1.35h26.88l-.16.81h2.8c.32,0,.51,0,.67-.01l5.69-.95,8.19,11.78-2.19,4.69c-.08.19-.21.59-.63,1.76-.22.63-.48,1.3-.75,1.99.27.57.51,1.16.75,1.79.85,2.37,1.26,4.67,1.26,6.94,0,5.34-2.66,9.85-7.01,12.04l.74,5.39h-24.82Z"/>
                <path d="M224.08,50.08v-.06s-14.98,0-14.98,0l1.31-10.15c.05-.39.08-.77.08-1.79v-.74l-1.56.22V12.12l.48.07v-7.55l3.51.56-.27-1.35h26.88l-.16.81h2.8c.32,0,.51,0,.67-.01l5.69-.95,8.19,11.78-2.19,4.69c-.08.19-.21.59-.63,1.76-.22.63-.48,1.3-.75,1.99.27.57.51,1.16.75,1.79.85,2.37,1.26,4.67,1.26,6.94,0,5.34-2.66,9.85-7.01,12.04l.74,5.39h-24.82Z"/>
              </g>
            </g>
            <g>
              <g>
                <path d="M103.61,50.2h-12.92s.77-8.02.87-9.08l-1.13-3.87c-.45-1.54-.75-2.35-1.27-3.5l-2.17-4.71,2.03-2.89V6.54l1.94.45-.31-3.14h13.23l1.52-3.65,7.09,3.65h2.15l1.59-3.85,6.96,3.85h5.64l-.5,2.85,8.37,4.63-1.33,1.99,4.01,2.69-4.59,5.38c.16.67.33,1.42.51,2.34l.8,3.91,2.09,1.06-1.47,1.99.25,1.2-1.06.3-.64,4.58c-.35,2.54-.89,5.23-2.44,7.75-1.74,2.74-4.05,4.45-6.93,5.17-1.38.35-2.27.39-2.81.39h-.45l-.92-.09h-.51l-.87-.17c-.96-.19-1.9-.51-2.82-.95-.51.22-1.05.45-1.62.67l-6.31,2.49-2.47,2.6-3.52-4.43Z"/>
                <path d="M103.61,50.2h-12.92s.77-8.02.87-9.08l-1.13-3.87c-.45-1.54-.75-2.35-1.27-3.5l-2.17-4.71,2.03-2.89V6.54l1.94.45-.31-3.14h13.23l1.52-3.65,7.09,3.65h2.15l1.59-3.85,6.96,3.85h5.64l-.5,2.85,8.37,4.63-1.33,1.99,4.01,2.69-4.59,5.38c.16.67.33,1.42.51,2.34l.8,3.91,2.09,1.06-1.47,1.99.25,1.2-1.06.3-.64,4.58c-.35,2.54-.89,5.23-2.44,7.75-1.74,2.74-4.05,4.45-6.93,5.17-1.38.35-2.27.39-2.81.39h-.45l-.92-.09h-.51l-.87-.17c-.96-.19-1.9-.51-2.82-.95-.51.22-1.05.45-1.62.67l-6.31,2.49-2.47,2.6-3.52-4.43Z"/>
              </g>
              <g>
                <path d="M139.45,49.04c-2.6.23-4.35.35-8.29.61-.47.03-.87.07-1.46.13l-8.68.9-3.78-24.04,1.92.17v-10.55l-6.26-11.16,15.2-.14c6.46-.06,9.71-.49,10.59-.68l6.56-2.63,1.6,2.41h14.51l-.87,4.87,5.27-.57-.99,10.94q-.09.97-.15,5.24c-.16,11.53-.77,16.02-2.62,19.21-3.11,5.47-8.45,6.07-11.97,6.13l-4.88,6.78-5.73-7.64Z"/>
                <path d="M139.45,49.04c-2.6.23-4.35.35-8.29.61-.47.03-.87.07-1.46.13l-8.68.9-3.78-24.04,1.92.17v-10.55l-6.26-11.16,15.2-.14c6.46-.06,9.71-.49,10.59-.68l6.56-2.63,1.6,2.41h14.51l-.87,4.87,5.27-.57-.99,10.94q-.09.97-.15,5.24c-.16,11.53-.77,16.02-2.62,19.21-3.11,5.47-8.45,6.07-11.97,6.13l-4.88,6.78-5.73-7.64Z"/>
              </g>
              <g>
                <path d="M181.02,49.55c-2.13-.79-3.74-1.49-5.21-2.3-.35.19-.7.37-1.07.55l.24,2.37h-6.25l-5.69,2.04-1-2.04h-11.86l1.1-9.99c.09-.85.12-1.24.12-2.09l-1.34-7.67c-.26-1.5-.53-2.48-1.06-3.9l-2.01-5.37,4.02-4.09c.49-.5,1.23-1.42,2.01-3.62.51-1.4.59-1.87.6-1.92l1.2-10.5,12.85,3.65.89.08c.35.03.59.05,2.03.05h10.59c1.39,0,1.64-.02,2.1-.06l11-.92-1.31,10.96c-.02.2-.06.47-.06,1.81v4.38l2.19-.25v9.12l7.17,1.62-8.54,11.16c-.71.93-.97,1.35-1.53,2.49l-3.58,7.29-7.62-2.82Z"/>
                <path d="M181.02,49.55c-2.13-.79-3.74-1.49-5.21-2.3-.35.19-.7.37-1.07.55l.24,2.37h-6.25l-5.69,2.04-1-2.04h-11.86l1.1-9.99c.09-.85.12-1.24.12-2.09l-1.34-7.67c-.26-1.5-.53-2.48-1.06-3.9l-2.01-5.37,4.02-4.09c.49-.5,1.23-1.42,2.01-3.62.51-1.4.59-1.87.6-1.92l1.2-10.5,12.85,3.65.89.08c.35.03.59.05,2.03.05h10.59c1.39,0,1.64-.02,2.1-.06l11-.92-1.31,10.96c-.02.2-.06.47-.06,1.81v4.38l2.19-.25v9.12l7.17,1.62-8.54,11.16c-.71.93-.97,1.35-1.53,2.49l-3.58,7.29-7.62-2.82Z"/>
              </g>
              <g>
                <path d="M182.25,44.56c-.47-.98-.81-1.52-1.45-2.29l-9.24-11.23,7.85-1.81v-1.99l-2.69-7.42-2.02-1.45,15.54-16.49,2.51,1.89.18-.85,15.59,1.27,2.67-3.52,4.61,4.12,3.05.25-.86,1.72,10.63,9.5-3.28,3.61,3.05,2.13-3.87,6.17v.73l6.77,1.38-7.69,11.21c-.77,1.12-1.11,1.72-1.66,2.93l-3.23,7.08-5.31-1.55h-22.54l-5.2,1.69-3.41-7.09Z"/>
                <path d="M182.25,44.56c-.47-.98-.81-1.52-1.45-2.29l-9.24-11.23,7.85-1.81v-1.99l-2.69-7.42-2.02-1.45,15.54-16.49,2.51,1.89.18-.85,15.59,1.27,2.67-3.52,4.61,4.12,3.05.25-.86,1.72,10.63,9.5-3.28,3.61,3.05,2.13-3.87,6.17v.73l6.77,1.38-7.69,11.21c-.77,1.12-1.11,1.72-1.66,2.93l-3.23,7.08-5.31-1.55h-22.54l-5.2,1.69-3.41-7.09Z"/>
              </g>
              <g>
                <path d="M224.08,50.08v-.06s-14.98,0-14.98,0l1.31-10.15c.05-.39.08-.77.08-1.79v-.74l-1.56.22V12.12l.48.07v-7.55l3.51.56-.27-1.35h26.88l-.16.81h2.8c.32,0,.51,0,.67-.01l5.69-.95,8.19,11.78-2.19,4.69c-.08.19-.21.59-.63,1.76-.22.63-.48,1.3-.75,1.99.27.57.51,1.16.75,1.79.85,2.37,1.26,4.67,1.26,6.94,0,5.34-2.66,9.85-7.01,12.04l.74,5.39h-24.82Z"/>
                <path d="M224.08,50.08v-.06s-14.98,0-14.98,0l1.31-10.15c.05-.39.08-.77.08-1.79v-.74l-1.56.22V12.12l.48.07v-7.55l3.51.56-.27-1.35h26.88l-.16.81h2.8c.32,0,.51,0,.67-.01l5.69-.95,8.19,11.78-2.19,4.69c-.08.19-.21.59-.63,1.76-.22.63-.48,1.3-.75,1.99.27.57.51,1.16.75,1.79.85,2.37,1.26,4.67,1.26,6.94,0,5.34-2.66,9.85-7.01,12.04l.74,5.39h-24.82Z"/>
              </g>
            </g>
            <g>
              <g>
                <path d="M103.61,50.2h-12.92s.77-8.02.87-9.08l-1.13-3.87c-.45-1.54-.75-2.35-1.27-3.5l-2.17-4.71,2.03-2.89V6.54l1.94.45-.31-3.14h13.23l1.52-3.65,7.09,3.65h2.15l1.59-3.85,6.96,3.85h5.64l-.5,2.85,8.37,4.63-1.33,1.99,4.01,2.69-4.59,5.38c.16.67.33,1.42.51,2.34l.8,3.91,2.09,1.06-1.47,1.99.25,1.2-1.06.3-.64,4.58c-.35,2.54-.89,5.23-2.44,7.75-1.74,2.74-4.05,4.45-6.93,5.17-1.38.35-2.27.39-2.81.39h-.45l-.92-.09h-.51l-.87-.17c-.96-.19-1.9-.51-2.82-.95-.51.22-1.05.45-1.62.67l-6.31,2.49-2.47,2.6-3.52-4.43Z"/>
                <path d="M103.61,50.2h-12.92s.77-8.02.87-9.08l-1.13-3.87c-.45-1.54-.75-2.35-1.27-3.5l-2.17-4.71,2.03-2.89V6.54l1.94.45-.31-3.14h13.23l1.52-3.65,7.09,3.65h2.15l1.59-3.85,6.96,3.85h5.64l-.5,2.85,8.37,4.63-1.33,1.99,4.01,2.69-4.59,5.38c.16.67.33,1.42.51,2.34l.8,3.91,2.09,1.06-1.47,1.99.25,1.2-1.06.3-.64,4.58c-.35,2.54-.89,5.23-2.44,7.75-1.74,2.74-4.05,4.45-6.93,5.17-1.38.35-2.27.39-2.81.39h-.45l-.92-.09h-.51l-.87-.17c-.96-.19-1.9-.51-2.82-.95-.51.22-1.05.45-1.62.67l-6.31,2.49-2.47,2.6-3.52-4.43Z"/>
              </g>
              <g>
                <path d="M139.45,49.04c-2.6.23-4.35.35-8.29.61-.47.03-.87.07-1.46.13l-8.68.9-3.78-24.04,1.92.17v-10.55l-6.26-11.16,15.2-.14c6.46-.06,9.71-.49,10.59-.68l6.56-2.63,1.6,2.41h14.51l-.87,4.87,5.27-.57-.99,10.94q-.09.97-.15,5.24c-.16,11.53-.77,16.02-2.62,19.21-3.11,5.47-8.45,6.07-11.97,6.13l-4.88,6.78-5.73-7.64Z"/>
                <path d="M139.45,49.04c-2.6.23-4.35.35-8.29.61-.47.03-.87.07-1.46.13l-8.68.9-3.78-24.04,1.92.17v-10.55l-6.26-11.16,15.2-.14c6.46-.06,9.71-.49,10.59-.68l6.56-2.63,1.6,2.41h14.51l-.87,4.87,5.27-.57-.99,10.94q-.09.97-.15,5.24c-.16,11.53-.77,16.02-2.62,19.21-3.11,5.47-8.45,6.07-11.97,6.13l-4.88,6.78-5.73-7.64Z"/>
              </g>
              <g>
                <path d="M181.02,49.55c-2.13-.79-3.74-1.49-5.21-2.3-.35.19-.7.37-1.07.55l.24,2.37h-6.25l-5.69,2.04-1-2.04h-11.86l1.1-9.99c.09-.85.12-1.24.12-2.09l-1.34-7.67c-.26-1.5-.53-2.48-1.06-3.9l-2.01-5.37,4.02-4.09c.49-.5,1.23-1.42,2.01-3.62.51-1.4.59-1.87.6-1.92l1.2-10.5,12.85,3.65.89.08c.35.03.59.05,2.03.05h10.59c1.39,0,1.64-.02,2.1-.06l11-.92-1.31,10.96c-.02.2-.06.47-.06,1.81v4.38l2.19-.25v9.12l7.17,1.62-8.54,11.16c-.71.93-.97,1.35-1.53,2.49l-3.58,7.29-7.62-2.82Z"/>
                <path d="M181.02,49.55c-2.13-.79-3.74-1.49-5.21-2.3-.35.19-.7.37-1.07.55l.24,2.37h-6.25l-5.69,2.04-1-2.04h-11.86l1.1-9.99c.09-.85.12-1.24.12-2.09l-1.34-7.67c-.26-1.5-.53-2.48-1.06-3.9l-2.01-5.37,4.02-4.09c.49-.5,1.23-1.42,2.01-3.62.51-1.4.59-1.87.6-1.92l1.2-10.5,12.85,3.65.89.08c.35.03.59.05,2.03.05h10.59c1.39,0,1.64-.02,2.1-.06l11-.92-1.31,10.96c-.02.2-.06.47-.06,1.81v4.38l2.19-.25v9.12l7.17,1.62-8.54,11.16c-.71.93-.97,1.35-1.53,2.49l-3.58,7.29-7.62-2.82Z"/>
              </g>
              <g>
                <path d="M182.25,44.56c-.47-.98-.81-1.52-1.45-2.29l-9.24-11.23,7.85-1.81v-1.99l-2.69-7.42-2.02-1.45,15.54-16.49,2.51,1.89.18-.85,15.59,1.27,2.67-3.52,4.61,4.12,3.05.25-.86,1.72,10.63,9.5-3.28,3.61,3.05,2.13-3.87,6.17v.73l6.77,1.38-7.69,11.21c-.77,1.12-1.11,1.72-1.66,2.93l-3.23,7.08-5.31-1.55h-22.54l-5.2,1.69-3.41-7.09Z"/>
                <path d="M182.25,44.56c-.47-.98-.81-1.52-1.45-2.29l-9.24-11.23,7.85-1.81v-1.99l-2.69-7.42-2.02-1.45,15.54-16.49,2.51,1.89.18-.85,15.59,1.27,2.67-3.52,4.61,4.12,3.05.25-.86,1.72,10.63,9.5-3.28,3.61,3.05,2.13-3.87,6.17v.73l6.77,1.38-7.69,11.21c-.77,1.12-1.11,1.72-1.66,2.93l-3.23,7.08-5.31-1.55h-22.54l-5.2,1.69-3.41-7.09Z"/>
              </g>
              <g>
                <path d="M224.08,50.08v-.06s-14.98,0-14.98,0l1.31-10.15c.05-.39.08-.77.08-1.79v-.74l-1.56.22V12.12l.48.07v-7.55l3.51.56-.27-1.35h26.88l-.16.81h2.8c.32,0,.51,0,.67-.01l5.69-.95,8.19,11.78-2.19,4.69c-.08.19-.21.59-.63,1.76-.22.63-.48,1.3-.75,1.99.27.57.51,1.16.75,1.79.85,2.37,1.26,4.67,1.26,6.94,0,5.34-2.66,9.85-7.01,12.04l.74,5.39h-24.82Z"/>
                <path d="M224.08,50.08v-.06s-14.98,0-14.98,0l1.31-10.15c.05-.39.08-.77.08-1.79v-.74l-1.56.22V12.12l.48.07v-7.55l3.51.56-.27-1.35h26.88l-.16.81h2.8c.32,0,.51,0,.67-.01l5.69-.95,8.19,11.78-2.19,4.69c-.08.19-.21.59-.63,1.76-.22.63-.48,1.3-.75,1.99.27.57.51,1.16.75,1.79.85,2.37,1.26,4.67,1.26,6.94,0,5.34-2.66,9.85-7.01,12.04l.74,5.39h-24.82Z"/>
              </g>
            </g>
          </g>
          <g>
            <g>
              <g>
                <path d="M105.05,47.2h-6.68l-1.3,2.09-.61-2.09h-2.48l.61-6.37-1.3-4.43c-.49-1.68-.84-2.63-1.43-3.91l-1.45-3.14,1.63-2.31-.04-4.83v-11.89l2.33.55-.39-4.02h11.93l1.04-2.49,4.84,2.49h4.88l1.07-2.6,4.7,2.6h2.82l-.24,1.43,7.41,4.1-1.18,1.77,3.7,2.48-2.94,3.44v2.46c.12.52.25,1.11.39,1.8l1.09,5.33.22.11-1.35,1.82.61.27-.62,4.49c-.36,2.56-.84,4.66-2.03,6.6-1.3,2.04-3,3.3-5.1,3.82-1.19.3-1.82.3-2.08.3h-.3s-.77-.08-.92-.09h-.37l-.58-.12c-1.14-.23-2.22-.67-3.28-1.36-.86.42-1.79.82-2.85,1.24l-5.37,2.12-.31-.7-1.8,1.89-2.27-2.86Z"/>
                <path d="M105.05,47.2h-6.68l-1.3,2.09-.61-2.09h-2.48l.61-6.37-1.3-4.43c-.49-1.68-.84-2.63-1.43-3.91l-1.45-3.14,1.63-2.31-.04-4.83v-11.89l2.33.55-.39-4.02h11.93l1.04-2.49,4.84,2.49h4.88l1.07-2.6,4.7,2.6h2.82l-.24,1.43,7.41,4.1-1.18,1.77,3.7,2.48-2.94,3.44v2.46c.12.52.25,1.11.39,1.8l1.09,5.33.22.11-1.35,1.82.61.27-.62,4.49c-.36,2.56-.84,4.66-2.03,6.6-1.3,2.04-3,3.3-5.1,3.82-1.19.3-1.82.3-2.08.3h-.3s-.77-.08-.92-.09h-.37l-.58-.12c-1.14-.23-2.22-.67-3.28-1.36-.86.42-1.79.82-2.85,1.24l-5.37,2.12-.31-.7-1.8,1.89-2.27-2.86Z"/>
              </g>
              <g>
                <path d="M140.84,45.9c-3.62.34-5.15.44-9.88.76-.5.03-.96.08-1.65.15l-5.77.6-.85-5.42h-.07s0-.47,0-.47l-1.81-11.53,1.81.17v-2.27l-.45.05v-12.43l-4.16-7.42,10.14-.09c5.46-.05,8.71-.35,10.34-.6l-.07-.3h1.42l4.36-1.74,1.11,1.74h12.48l-.94,5.28,5.61-.6-.66,7.29q-.1,1.09-.16,5.48c-.16,12.05-.87,15.43-2.22,17.75-2.64,4.64-7.41,4.64-10.56,4.64-.1,0-.22,0-.35,0l-3.39,4.71-4.29-5.72Z"/>
                <path d="M140.84,45.9c-3.62.34-5.15.44-9.88.76-.5.03-.96.08-1.65.15l-5.77.6-.85-5.42h-.07s0-.47,0-.47l-1.81-11.53,1.81.17v-2.27l-.45.05v-12.43l-4.16-7.42,10.14-.09c5.46-.05,8.71-.35,10.34-.6l-.07-.3h1.42l4.36-1.74,1.11,1.74h12.48l-.94,5.28,5.61-.6-.66,7.29q-.1,1.09-.16,5.48c-.16,12.05-.87,15.43-2.22,17.75-2.64,4.64-7.41,4.64-10.56,4.64-.1,0-.22,0-.35,0l-3.39,4.71-4.29-5.72Z"/>
              </g>
              <g>
                <path d="M182.06,46.74c-2.68-.99-4.43-1.8-6.24-2.98-1.32.85-2.64,1.51-4.28,2.17l.12,1.24h-3.45l-3.65,1.31-.64-1.31h-10.38l.74-6.66c.12-1.04.14-1.52.14-2.68l-1.38-7.93c-.29-1.69-.61-2.85-1.21-4.44l-1.34-3.58,2.68-2.73c1.1-1.12,1.96-2.62,2.7-4.72.58-1.58.72-2.28.75-2.55l.8-7.02,9.72,2.76,1.17.11c.43.04.72.07,2.31.07h10.59c1.52,0,1.83-.03,2.35-.07l7.33-.61-.88,7.3c-.05.43-.08.88-.08,2.17v7.74l2.19-.25v8.16l4.94,1.12-4.94,6.45v1.61l-1.14-.11c-.58.79-.92,1.38-1.46,2.48l-2.39,4.86-5.08-1.88Z"/>
                <path d="M182.06,46.74c-2.68-.99-4.43-1.8-6.24-2.98-1.32.85-2.64,1.51-4.28,2.17l.12,1.24h-3.45l-3.65,1.31-.64-1.31h-10.38l.74-6.66c.12-1.04.14-1.52.14-2.68l-1.38-7.93c-.29-1.69-.61-2.85-1.21-4.44l-1.34-3.58,2.68-2.73c1.1-1.12,1.96-2.62,2.7-4.72.58-1.58.72-2.28.75-2.55l.8-7.02,9.72,2.76,1.17.11c.43.04.72.07,2.31.07h10.59c1.52,0,1.83-.03,2.35-.07l7.33-.61-.88,7.3c-.05.43-.08.88-.08,2.17v7.74l2.19-.25v8.16l4.94,1.12-4.94,6.45v1.61l-1.14-.11c-.58.79-.92,1.38-1.46,2.48l-2.39,4.86-5.08-1.88Z"/>
              </g>
              <g>
                <path d="M184.95,43.26c-.58-1.2-1.04-1.93-1.84-2.9l-.19-.24-.51.07v-.7l-5.45-6.63,5.45-1.26v-4.9l-2.56-7.08,1.36-.3-1.96-1.4,11.34-12.03,4.12,3.11.61-2.87,14.6,1.19,1.7-2.24,12.75,11.4-3.54,3.9,3.51,2.45-2.81,4.48v4.05l4.73.96-4.73,6.9v.85l-.54-.07c-.77,1.14-1.18,1.88-1.77,3.17l-2.15,4.72s-5.08-1.48-5.13-1.49l.13.55h-19.51l.1-.74c-.14.05-5.43,1.77-5.43,1.77l-2.27-4.73Z"/>
                <path d="M184.95,43.26c-.58-1.2-1.04-1.93-1.84-2.9l-.19-.24-.51.07v-.7l-5.45-6.63,5.45-1.26v-4.9l-2.56-7.08,1.36-.3-1.96-1.4,11.34-12.03,4.12,3.11.61-2.87,14.6,1.19,1.7-2.24,12.75,11.4-3.54,3.9,3.51,2.45-2.81,4.48v4.05l4.73.96-4.73,6.9v.85l-.54-.07c-.77,1.14-1.18,1.88-1.77,3.17l-2.15,4.72s-5.08-1.48-5.13-1.49l.13.55h-19.51l.1-.74c-.14.05-5.43,1.77-5.43,1.77l-2.27-4.73Z"/>
              </g>
              <g>
                <path d="M227.3,47.08v-.06s-14.79,0-14.79,0l.87-6.77c.08-.58.1-1.13.1-2.17v-4.2l-1.56.22V15.61l.48.07v-7.53l4.3.69-.4-1.99h11.02v-.02s.19.02.19.02h8.35l-.16.8c.19,0,.4,0,.64,0h5.58c1.06,0,1.2-.02,1.47-.07l3.75-.63,6.12,8.8-1.51,3.25c-.1.24-.23.64-.68,1.92-.34.96-.76,2.04-1.22,3.14.49.86.87,1.71,1.24,2.69.71,1.99,1.07,4,1.07,5.89,0,4.54-2.28,8.16-6.11,9.7-.38.16-.78.29-1.2.41l.6,4.32h-18.15Z"/>
                <path d="M227.3,47.08v-.06s-14.79,0-14.79,0l.87-6.77c.08-.58.1-1.13.1-2.17v-4.2l-1.56.22V15.61l.48.07v-7.53l4.3.69-.4-1.99h11.02v-.02s.19.02.19.02h8.35l-.16.8c.19,0,.4,0,.64,0h5.58c1.06,0,1.2-.02,1.47-.07l3.75-.63,6.12,8.8-1.51,3.25c-.1.24-.23.64-.68,1.92-.34.96-.76,2.04-1.22,3.14.49.86.87,1.71,1.24,2.69.71,1.99,1.07,4,1.07,5.89,0,4.54-2.28,8.16-6.11,9.7-.38.16-.78.29-1.2.41l.6,4.32h-18.15Z"/>
              </g>
            </g>
            <g>
              <g>
                <path d="M105.05,47.2h-6.68l-1.3,2.09-.61-2.09h-2.48l.61-6.37-1.3-4.43c-.49-1.68-.84-2.63-1.43-3.91l-1.45-3.14,1.63-2.31-.04-4.83v-11.89l2.33.55-.39-4.02h11.93l1.04-2.49,4.84,2.49h4.88l1.07-2.6,4.7,2.6h2.82l-.24,1.43,7.41,4.1-1.18,1.77,3.7,2.48-2.94,3.44v2.46c.12.52.25,1.11.39,1.8l1.09,5.33.22.11-1.35,1.82.61.27-.62,4.49c-.36,2.56-.84,4.66-2.03,6.6-1.3,2.04-3,3.3-5.1,3.82-1.19.3-1.82.3-2.08.3h-.3s-.77-.08-.92-.09h-.37l-.58-.12c-1.14-.23-2.22-.67-3.28-1.36-.86.42-1.79.82-2.85,1.24l-5.37,2.12-.31-.7-1.8,1.89-2.27-2.86Z"/>
                <path d="M105.05,47.2h-6.68l-1.3,2.09-.61-2.09h-2.48l.61-6.37-1.3-4.43c-.49-1.68-.84-2.63-1.43-3.91l-1.45-3.14,1.63-2.31-.04-4.83v-11.89l2.33.55-.39-4.02h11.93l1.04-2.49,4.84,2.49h4.88l1.07-2.6,4.7,2.6h2.82l-.24,1.43,7.41,4.1-1.18,1.77,3.7,2.48-2.94,3.44v2.46c.12.52.25,1.11.39,1.8l1.09,5.33.22.11-1.35,1.82.61.27-.62,4.49c-.36,2.56-.84,4.66-2.03,6.6-1.3,2.04-3,3.3-5.1,3.82-1.19.3-1.82.3-2.08.3h-.3s-.77-.08-.92-.09h-.37l-.58-.12c-1.14-.23-2.22-.67-3.28-1.36-.86.42-1.79.82-2.85,1.24l-5.37,2.12-.31-.7-1.8,1.89-2.27-2.86Z"/>
              </g>
              <g>
                <path d="M140.84,45.9c-3.62.34-5.15.44-9.88.76-.5.03-.96.08-1.65.15l-5.77.6-.85-5.42h-.07s0-.47,0-.47l-1.81-11.53,1.81.17v-2.27l-.45.05v-12.43l-4.16-7.42,10.14-.09c5.46-.05,8.71-.35,10.34-.6l-.07-.3h1.42l4.36-1.74,1.11,1.74h12.48l-.94,5.28,5.61-.6-.66,7.29q-.1,1.09-.16,5.48c-.16,12.05-.87,15.43-2.22,17.75-2.64,4.64-7.41,4.64-10.56,4.64-.1,0-.22,0-.35,0l-3.39,4.71-4.29-5.72Z"/>
                <path d="M140.84,45.9c-3.62.34-5.15.44-9.88.76-.5.03-.96.08-1.65.15l-5.77.6-.85-5.42h-.07s0-.47,0-.47l-1.81-11.53,1.81.17v-2.27l-.45.05v-12.43l-4.16-7.42,10.14-.09c5.46-.05,8.71-.35,10.34-.6l-.07-.3h1.42l4.36-1.74,1.11,1.74h12.48l-.94,5.28,5.61-.6-.66,7.29q-.1,1.09-.16,5.48c-.16,12.05-.87,15.43-2.22,17.75-2.64,4.64-7.41,4.64-10.56,4.64-.1,0-.22,0-.35,0l-3.39,4.71-4.29-5.72Z"/>
              </g>
              <g>
                <path d="M182.06,46.74c-2.68-.99-4.43-1.8-6.24-2.98-1.32.85-2.64,1.51-4.28,2.17l.12,1.24h-3.45l-3.65,1.31-.64-1.31h-10.38l.74-6.66c.12-1.04.14-1.52.14-2.68l-1.38-7.93c-.29-1.69-.61-2.85-1.21-4.44l-1.34-3.58,2.68-2.73c1.1-1.12,1.96-2.62,2.7-4.72.58-1.58.72-2.28.75-2.55l.8-7.02,9.72,2.76,1.17.11c.43.04.72.07,2.31.07h10.59c1.52,0,1.83-.03,2.35-.07l7.33-.61-.88,7.3c-.05.43-.08.88-.08,2.17v7.74l2.19-.25v8.16l4.94,1.12-4.94,6.45v1.61l-1.14-.11c-.58.79-.92,1.38-1.46,2.48l-2.39,4.86-5.08-1.88Z"/>
                <path d="M182.06,46.74c-2.68-.99-4.43-1.8-6.24-2.98-1.32.85-2.64,1.51-4.28,2.17l.12,1.24h-3.45l-3.65,1.31-.64-1.31h-10.38l.74-6.66c.12-1.04.14-1.52.14-2.68l-1.38-7.93c-.29-1.69-.61-2.85-1.21-4.44l-1.34-3.58,2.68-2.73c1.1-1.12,1.96-2.62,2.7-4.72.58-1.58.72-2.28.75-2.55l.8-7.02,9.72,2.76,1.17.11c.43.04.72.07,2.31.07h10.59c1.52,0,1.83-.03,2.35-.07l7.33-.61-.88,7.3c-.05.43-.08.88-.08,2.17v7.74l2.19-.25v8.16l4.94,1.12-4.94,6.45v1.61l-1.14-.11c-.58.79-.92,1.38-1.46,2.48l-2.39,4.86-5.08-1.88Z"/>
              </g>
              <g>
                <path d="M184.95,43.26c-.58-1.2-1.04-1.93-1.84-2.9l-.19-.24-.51.07v-.7l-5.45-6.63,5.45-1.26v-4.9l-2.56-7.08,1.36-.3-1.96-1.4,11.34-12.03,4.12,3.11.61-2.87,14.6,1.19,1.7-2.24,12.75,11.4-3.54,3.9,3.51,2.45-2.81,4.48v4.05l4.73.96-4.73,6.9v.85l-.54-.07c-.77,1.14-1.18,1.88-1.77,3.17l-2.15,4.72s-5.08-1.48-5.13-1.49l.13.55h-19.51l.1-.74c-.14.05-5.43,1.77-5.43,1.77l-2.27-4.73Z"/>
                <path d="M184.95,43.26c-.58-1.2-1.04-1.93-1.84-2.9l-.19-.24-.51.07v-.7l-5.45-6.63,5.45-1.26v-4.9l-2.56-7.08,1.36-.3-1.96-1.4,11.34-12.03,4.12,3.11.61-2.87,14.6,1.19,1.7-2.24,12.75,11.4-3.54,3.9,3.51,2.45-2.81,4.48v4.05l4.73.96-4.73,6.9v.85l-.54-.07c-.77,1.14-1.18,1.88-1.77,3.17l-2.15,4.72s-5.08-1.48-5.13-1.49l.13.55h-19.51l.1-.74c-.14.05-5.43,1.77-5.43,1.77l-2.27-4.73Z"/>
              </g>
              <g>
                <path d="M227.3,47.08v-.06s-14.79,0-14.79,0l.87-6.77c.08-.58.1-1.13.1-2.17v-4.2l-1.56.22V15.61l.48.07v-7.53l4.3.69-.4-1.99h11.02v-.02s.19.02.19.02h8.35l-.16.8c.19,0,.4,0,.64,0h5.58c1.06,0,1.2-.02,1.47-.07l3.75-.63,6.12,8.8-1.51,3.25c-.1.24-.23.64-.68,1.92-.34.96-.76,2.04-1.22,3.14.49.86.87,1.71,1.24,2.69.71,1.99,1.07,4,1.07,5.89,0,4.54-2.28,8.16-6.11,9.7-.38.16-.78.29-1.2.41l.6,4.32h-18.15Z"/>
                <path d="M227.3,47.08v-.06s-14.79,0-14.79,0l.87-6.77c.08-.58.1-1.13.1-2.17v-4.2l-1.56.22V15.61l.48.07v-7.53l4.3.69-.4-1.99h11.02v-.02s.19.02.19.02h8.35l-.16.8c.19,0,.4,0,.64,0h5.58c1.06,0,1.2-.02,1.47-.07l3.75-.63,6.12,8.8-1.51,3.25c-.1.24-.23.64-.68,1.92-.34.96-.76,2.04-1.22,3.14.49.86.87,1.71,1.24,2.69.71,1.99,1.07,4,1.07,5.89,0,4.54-2.28,8.16-6.11,9.7-.38.16-.78.29-1.2.41l.6,4.32h-18.15Z"/>
              </g>
            </g>
            <g>
              <g>
                <path d="M105.05,47.2h-6.68l-1.3,2.09-.61-2.09h-2.48l.61-6.37-1.3-4.43c-.49-1.68-.84-2.63-1.43-3.91l-1.45-3.14,1.63-2.31-.04-4.83v-11.89l2.33.55-.39-4.02h11.93l1.04-2.49,4.84,2.49h4.88l1.07-2.6,4.7,2.6h2.82l-.24,1.43,7.41,4.1-1.18,1.77,3.7,2.48-2.94,3.44v2.46c.12.52.25,1.11.39,1.8l1.09,5.33.22.11-1.35,1.82.61.27-.62,4.49c-.36,2.56-.84,4.66-2.03,6.6-1.3,2.04-3,3.3-5.1,3.82-1.19.3-1.82.3-2.08.3h-.3s-.77-.08-.92-.09h-.37l-.58-.12c-1.14-.23-2.22-.67-3.28-1.36-.86.42-1.79.82-2.85,1.24l-5.37,2.12-.31-.7-1.8,1.89-2.27-2.86Z"/>
                <path d="M105.05,47.2h-6.68l-1.3,2.09-.61-2.09h-2.48l.61-6.37-1.3-4.43c-.49-1.68-.84-2.63-1.43-3.91l-1.45-3.14,1.63-2.31-.04-4.83v-11.89l2.33.55-.39-4.02h11.93l1.04-2.49,4.84,2.49h4.88l1.07-2.6,4.7,2.6h2.82l-.24,1.43,7.41,4.1-1.18,1.77,3.7,2.48-2.94,3.44v2.46c.12.52.25,1.11.39,1.8l1.09,5.33.22.11-1.35,1.82.61.27-.62,4.49c-.36,2.56-.84,4.66-2.03,6.6-1.3,2.04-3,3.3-5.1,3.82-1.19.3-1.82.3-2.08.3h-.3s-.77-.08-.92-.09h-.37l-.58-.12c-1.14-.23-2.22-.67-3.28-1.36-.86.42-1.79.82-2.85,1.24l-5.37,2.12-.31-.7-1.8,1.89-2.27-2.86Z"/>
              </g>
              <g>
                <path d="M140.84,45.9c-3.62.34-5.15.44-9.88.76-.5.03-.96.08-1.65.15l-5.77.6-.85-5.42h-.07s0-.47,0-.47l-1.81-11.53,1.81.17v-2.27l-.45.05v-12.43l-4.16-7.42,10.14-.09c5.46-.05,8.71-.35,10.34-.6l-.07-.3h1.42l4.36-1.74,1.11,1.74h12.48l-.94,5.28,5.61-.6-.66,7.29q-.1,1.09-.16,5.48c-.16,12.05-.87,15.43-2.22,17.75-2.64,4.64-7.41,4.64-10.56,4.64-.1,0-.22,0-.35,0l-3.39,4.71-4.29-5.72Z"/>
                <path d="M140.84,45.9c-3.62.34-5.15.44-9.88.76-.5.03-.96.08-1.65.15l-5.77.6-.85-5.42h-.07s0-.47,0-.47l-1.81-11.53,1.81.17v-2.27l-.45.05v-12.43l-4.16-7.42,10.14-.09c5.46-.05,8.71-.35,10.34-.6l-.07-.3h1.42l4.36-1.74,1.11,1.74h12.48l-.94,5.28,5.61-.6-.66,7.29q-.1,1.09-.16,5.48c-.16,12.05-.87,15.43-2.22,17.75-2.64,4.64-7.41,4.64-10.56,4.64-.1,0-.22,0-.35,0l-3.39,4.71-4.29-5.72Z"/>
              </g>
              <g>
                <path d="M182.06,46.74c-2.68-.99-4.43-1.8-6.24-2.98-1.32.85-2.64,1.51-4.28,2.17l.12,1.24h-3.45l-3.65,1.31-.64-1.31h-10.38l.74-6.66c.12-1.04.14-1.52.14-2.68l-1.38-7.93c-.29-1.69-.61-2.85-1.21-4.44l-1.34-3.58,2.68-2.73c1.1-1.12,1.96-2.62,2.7-4.72.58-1.58.72-2.28.75-2.55l.8-7.02,9.72,2.76,1.17.11c.43.04.72.07,2.31.07h10.59c1.52,0,1.83-.03,2.35-.07l7.33-.61-.88,7.3c-.05.43-.08.88-.08,2.17v7.74l2.19-.25v8.16l4.94,1.12-4.94,6.45v1.61l-1.14-.11c-.58.79-.92,1.38-1.46,2.48l-2.39,4.86-5.08-1.88Z"/>
                <path d="M182.06,46.74c-2.68-.99-4.43-1.8-6.24-2.98-1.32.85-2.64,1.51-4.28,2.17l.12,1.24h-3.45l-3.65,1.31-.64-1.31h-10.38l.74-6.66c.12-1.04.14-1.52.14-2.68l-1.38-7.93c-.29-1.69-.61-2.85-1.21-4.44l-1.34-3.58,2.68-2.73c1.1-1.12,1.96-2.62,2.7-4.72.58-1.58.72-2.28.75-2.55l.8-7.02,9.72,2.76,1.17.11c.43.04.72.07,2.31.07h10.59c1.52,0,1.83-.03,2.35-.07l7.33-.61-.88,7.3c-.05.43-.08.88-.08,2.17v7.74l2.19-.25v8.16l4.94,1.12-4.94,6.45v1.61l-1.14-.11c-.58.79-.92,1.38-1.46,2.48l-2.39,4.86-5.08-1.88Z"/>
              </g>
              <g>
                <path d="M184.95,43.26c-.58-1.2-1.04-1.93-1.84-2.9l-.19-.24-.51.07v-.7l-5.45-6.63,5.45-1.26v-4.9l-2.56-7.08,1.36-.3-1.96-1.4,11.34-12.03,4.12,3.11.61-2.87,14.6,1.19,1.7-2.24,12.75,11.4-3.54,3.9,3.51,2.45-2.81,4.48v4.05l4.73.96-4.73,6.9v.85l-.54-.07c-.77,1.14-1.18,1.88-1.77,3.17l-2.15,4.72s-5.08-1.48-5.13-1.49l.13.55h-19.51l.1-.74c-.14.05-5.43,1.77-5.43,1.77l-2.27-4.73Z"/>
                <path d="M184.95,43.26c-.58-1.2-1.04-1.93-1.84-2.9l-.19-.24-.51.07v-.7l-5.45-6.63,5.45-1.26v-4.9l-2.56-7.08,1.36-.3-1.96-1.4,11.34-12.03,4.12,3.11.61-2.87,14.6,1.19,1.7-2.24,12.75,11.4-3.54,3.9,3.51,2.45-2.81,4.48v4.05l4.73.96-4.73,6.9v.85l-.54-.07c-.77,1.14-1.18,1.88-1.77,3.17l-2.15,4.72s-5.08-1.48-5.13-1.49l.13.55h-19.51l.1-.74c-.14.05-5.43,1.77-5.43,1.77l-2.27-4.73Z"/>
              </g>
              <g>
                <path d="M227.3,47.08v-.06s-14.79,0-14.79,0l.87-6.77c.08-.58.1-1.13.1-2.17v-4.2l-1.56.22V15.61l.48.07v-7.53l4.3.69-.4-1.99h11.02v-.02s.19.02.19.02h8.35l-.16.8c.19,0,.4,0,.64,0h5.58c1.06,0,1.2-.02,1.47-.07l3.75-.63,6.12,8.8-1.51,3.25c-.1.24-.23.64-.68,1.92-.34.96-.76,2.04-1.22,3.14.49.86.87,1.71,1.24,2.69.71,1.99,1.07,4,1.07,5.89,0,4.54-2.28,8.16-6.11,9.7-.38.16-.78.29-1.2.41l.6,4.32h-18.15Z"/>
                <path d="M227.3,47.08v-.06s-14.79,0-14.79,0l.87-6.77c.08-.58.1-1.13.1-2.17v-4.2l-1.56.22V15.61l.48.07v-7.53l4.3.69-.4-1.99h11.02v-.02s.19.02.19.02h8.35l-.16.8c.19,0,.4,0,.64,0h5.58c1.06,0,1.2-.02,1.47-.07l3.75-.63,6.12,8.8-1.51,3.25c-.1.24-.23.64-.68,1.92-.34.96-.76,2.04-1.22,3.14.49.86.87,1.71,1.24,2.69.71,1.99,1.07,4,1.07,5.89,0,4.54-2.28,8.16-6.11,9.7-.38.16-.78.29-1.2.41l.6,4.32h-18.15Z"/>
              </g>
            </g>
          </g>
        </g>
      </g>
    </g>
    <g>
      <g>
        <g>
          <g>
            <g id="r" data-name="Gブレイバー">
              <g>
                <path d="M19.41,109.86L9.38,22.12l75.02,25.45v3.83l48.5,8.51-6.4-20.48,14.14,3.53-.74-4.18,21.52,5.38v13.68h22v21.76l6.96-5.39-2.78-11.29,62.16-17.11,2.25,17.17,3.12-8.26,15.34-6.76-.27-1.4,20.79-16.92,9.17,22.71,2.72-23,21.16-3.62.8-6.8,30.68-5.25-13.24,38.47-20.24,5.4-1.73,5.02-14.48,3.87,6.83,16.91v-1.41l38.35-12.78v43l-30.88-10.29,7.26,18-37.69,28.34-14.9-77.62-10.41,69.34-24.72-15.99.83,7.37-28.01-5.52-.93-42.7-11.33,1.45,4.98,11.21-33.08,24.95-14.74-12.02v-35.59l-5.31-2.12.53,4.21-3.22-1.29v30.1l-45.25,30.96-14.19-18.06,1.3,17.79-25.01,15.91.83-16.25-.63,1.33-28.48,17.99-18.59-43.82ZM89.4,108.89l30.02-18.4v-5.49l-32.13-4.94,2.11,28.84ZM51.37,105.99v-17.75l14.04-3.83-6.14-15.96-9.02-4.25-3.36,31.05,4.47,10.73ZM237.23,102.14l8.86-23.46-11.36,1.46,2.49,22.01Z" style="fill: #e23737;"/>
                <path d="M19.41,109.86L9.38,22.12l75.02,25.45v3.83l48.5,8.51-6.4-20.48,14.14,3.53-.74-4.18,21.52,5.38v13.68h22v21.76l6.96-5.39-2.78-11.29,62.16-17.11,2.25,17.17,3.12-8.26,15.34-6.76-.27-1.4,20.79-16.92,9.17,22.71,2.72-23,21.16-3.62.8-6.8,30.68-5.25-13.24,38.47-20.24,5.4-1.73,5.02-14.48,3.87,6.83,16.91v-1.41l38.35-12.78v43l-30.88-10.29,7.26,18-37.69,28.34-14.9-77.62-10.41,69.34-24.72-15.99.83,7.37-28.01-5.52-.93-42.7-11.33,1.45,4.98,11.21-33.08,24.95-14.74-12.02v-35.59l-5.31-2.12.53,4.21-3.22-1.29v30.1l-45.25,30.96-14.19-18.06,1.3,17.79-25.01,15.91.83-16.25-.63,1.33-28.48,17.99-18.59-43.82ZM89.4,108.89l30.02-18.4v-5.49l-32.13-4.94,2.11,28.84ZM51.37,105.99v-17.75l14.04-3.83-6.14-15.96-9.02-4.25-3.36,31.05,4.47,10.73ZM237.23,102.14l8.86-23.46-11.36,1.46,2.49,22.01Z" style="fill: #e23737;"/>
              </g>
            </g>
            <g id="s" data-name="バースト">
              <g>
                <path d="M195.3,174.71l-14.86,13.19-20.6-12.2,1.97-1.85h-12.7l3.59,8.09-29.09,4.59-5.5-24.71-4.48,25.57-27.31-5.77,18.17-54.99,14.52,3.76,9.17-3.65.54,1.21,22.04-6.3-.4.97,8.69-2.48-10.95,26.28-10.05,2.51,3.38,7.61v-5.7h23.26l.51-19.04,47.64-2.57,2.37,27.8-3.22,2.85,5.62,2.2-1.44-35.24h26.5l-.81,19.9,20.42,7.03-12.01,24.03-9.43-5.89-.65,15.93h-20.77l-1.44,5.23-22.67-18.37ZM171.42,164.78l11.72-11.06-11.72.43v10.62Z" style="fill: #e23737;"/>
                <path d="M195.3,174.71l-14.86,13.19-20.6-12.2,1.97-1.85h-12.7l3.59,8.09-29.09,4.59-5.5-24.71-4.48,25.57-27.31-5.77,18.17-54.99,14.52,3.76,9.17-3.65.54,1.21,22.04-6.3-.4.97,8.69-2.48-10.95,26.28-10.05,2.51,3.38,7.61v-5.7h23.26l.51-19.04,47.64-2.57,2.37,27.8-3.22,2.85,5.62,2.2-1.44-35.24h26.5l-.81,19.9,20.42,7.03-12.01,24.03-9.43-5.89-.65,15.93h-20.77l-1.44,5.23-22.67-18.37ZM171.42,164.78l11.72-11.06-11.72.43v10.62Z" style="fill: #e23737;"/>
              </g>
            </g>
          </g>
          <g>
            <g id="t" data-name="Gブレイバー">
              <g>
                <path d="M19.41,109.86L9.38,22.12l75.02,25.45v3.83l48.5,8.51-6.4-20.48,14.14,3.53-.74-4.18,21.52,5.38v13.68h22v21.76l6.96-5.39-2.78-11.29,62.16-17.11,2.25,17.17,3.12-8.26,15.34-6.76-.27-1.4,20.79-16.92,9.17,22.71,2.72-23,21.16-3.62.8-6.8,30.68-5.25-13.24,38.47-20.24,5.4-1.73,5.02-14.48,3.87,6.83,16.91v-1.41l38.35-12.78v43l-30.88-10.29,7.26,18-37.69,28.34-14.9-77.62-10.41,69.34-24.72-15.99.83,7.37-28.01-5.52-.93-42.7-11.33,1.45,4.98,11.21-33.08,24.95-14.74-12.02v-35.59l-5.31-2.12.53,4.21-3.22-1.29v30.1l-45.25,30.96-14.19-18.06,1.3,17.79-25.01,15.91.83-16.25-.63,1.33-28.48,17.99-18.59-43.82ZM89.4,108.89l30.02-18.4v-5.49l-32.13-4.94,2.11,28.84ZM51.37,105.99v-17.75l14.04-3.83-6.14-15.96-9.02-4.25-3.36,31.05,4.47,10.73ZM237.23,102.14l8.86-23.46-11.36,1.46,2.49,22.01Z" style="fill: #fff;"/>
                <path d="M19.41,109.86L9.38,22.12l75.02,25.45v3.83l48.5,8.51-6.4-20.48,14.14,3.53-.74-4.18,21.52,5.38v13.68h22v21.76l6.96-5.39-2.78-11.29,62.16-17.11,2.25,17.17,3.12-8.26,15.34-6.76-.27-1.4,20.79-16.92,9.17,22.71,2.72-23,21.16-3.62.8-6.8,30.68-5.25-13.24,38.47-20.24,5.4-1.73,5.02-14.48,3.87,6.83,16.91v-1.41l38.35-12.78v43l-30.88-10.29,7.26,18-37.69,28.34-14.9-77.62-10.41,69.34-24.72-15.99.83,7.37-28.01-5.52-.93-42.7-11.33,1.45,4.98,11.21-33.08,24.95-14.74-12.02v-35.59l-5.31-2.12.53,4.21-3.22-1.29v30.1l-45.25,30.96-14.19-18.06,1.3,17.79-25.01,15.91.83-16.25-.63,1.33-28.48,17.99-18.59-43.82ZM89.4,108.89l30.02-18.4v-5.49l-32.13-4.94,2.11,28.84ZM51.37,105.99v-17.75l14.04-3.83-6.14-15.96-9.02-4.25-3.36,31.05,4.47,10.73ZM237.23,102.14l8.86-23.46-11.36,1.46,2.49,22.01Z" style="fill: #fff;"/>
              </g>
              <g>
                <path d="M19.41,109.86L9.38,22.12l75.02,25.45v3.83l48.5,8.51-6.4-20.48,14.14,3.53-.74-4.18,21.52,5.38v13.68h22v21.76l6.96-5.39-2.78-11.29,62.16-17.11,2.25,17.17,3.12-8.26,15.34-6.76-.27-1.4,20.79-16.92,9.17,22.71,2.72-23,21.16-3.62.8-6.8,30.68-5.25-13.24,38.47-20.24,5.4-1.73,5.02-14.48,3.87,6.83,16.91v-1.41l38.35-12.78v43l-30.88-10.29,7.26,18-37.69,28.34-14.9-77.62-10.41,69.34-24.72-15.99.83,7.37-28.01-5.52-.93-42.7-11.33,1.45,4.98,11.21-33.08,24.95-14.74-12.02v-35.59l-5.31-2.12.53,4.21-3.22-1.29v30.1l-45.25,30.96-14.19-18.06,1.3,17.79-25.01,15.91.83-16.25-.63,1.33-28.48,17.99-18.59-43.82ZM89.4,108.89l30.02-18.4v-5.49l-32.13-4.94,2.11,28.84ZM51.37,105.99v-17.75l14.04-3.83-6.14-15.96-9.02-4.25-3.36,31.05,4.47,10.73ZM237.23,102.14l8.86-23.46-11.36,1.46,2.49,22.01Z" style="fill: #fff;"/>
                <path d="M19.41,109.86L9.38,22.12l75.02,25.45v3.83l48.5,8.51-6.4-20.48,14.14,3.53-.74-4.18,21.52,5.38v13.68h22v21.76l6.96-5.39-2.78-11.29,62.16-17.11,2.25,17.17,3.12-8.26,15.34-6.76-.27-1.4,20.79-16.92,9.17,22.71,2.72-23,21.16-3.62.8-6.8,30.68-5.25-13.24,38.47-20.24,5.4-1.73,5.02-14.48,3.87,6.83,16.91v-1.41l38.35-12.78v43l-30.88-10.29,7.26,18-37.69,28.34-14.9-77.62-10.41,69.34-24.72-15.99.83,7.37-28.01-5.52-.93-42.7-11.33,1.45,4.98,11.21-33.08,24.95-14.74-12.02v-35.59l-5.31-2.12.53,4.21-3.22-1.29v30.1l-45.25,30.96-14.19-18.06,1.3,17.79-25.01,15.91.83-16.25-.63,1.33-28.48,17.99-18.59-43.82ZM89.4,108.89l30.02-18.4v-5.49l-32.13-4.94,2.11,28.84ZM51.37,105.99v-17.75l14.04-3.83-6.14-15.96-9.02-4.25-3.36,31.05,4.47,10.73ZM237.23,102.14l8.86-23.46-11.36,1.46,2.49,22.01Z" style="fill: #fff;"/>
              </g>
              <g>
                <path d="M19.41,109.86L9.38,22.12l75.02,25.45v3.83l48.5,8.51-6.4-20.48,14.14,3.53-.74-4.18,21.52,5.38v13.68h22v21.76l6.96-5.39-2.78-11.29,62.16-17.11,2.25,17.17,3.12-8.26,15.34-6.76-.27-1.4,20.79-16.92,9.17,22.71,2.72-23,21.16-3.62.8-6.8,30.68-5.25-13.24,38.47-20.24,5.4-1.73,5.02-14.48,3.87,6.83,16.91v-1.41l38.35-12.78v43l-30.88-10.29,7.26,18-37.69,28.34-14.9-77.62-10.41,69.34-24.72-15.99.83,7.37-28.01-5.52-.93-42.7-11.33,1.45,4.98,11.21-33.08,24.95-14.74-12.02v-35.59l-5.31-2.12.53,4.21-3.22-1.29v30.1l-45.25,30.96-14.19-18.06,1.3,17.79-25.01,15.91.83-16.25-.63,1.33-28.48,17.99-18.59-43.82ZM89.4,108.89l30.02-18.4v-5.49l-32.13-4.94,2.11,28.84ZM51.37,105.99v-17.75l14.04-3.83-6.14-15.96-9.02-4.25-3.36,31.05,4.47,10.73ZM237.23,102.14l8.86-23.46-11.36,1.46,2.49,22.01Z" style="fill: #fff;"/>
                <path d="M19.41,109.86L9.38,22.12l75.02,25.45v3.83l48.5,8.51-6.4-20.48,14.14,3.53-.74-4.18,21.52,5.38v13.68h22v21.76l6.96-5.39-2.78-11.29,62.16-17.11,2.25,17.17,3.12-8.26,15.34-6.76-.27-1.4,20.79-16.92,9.17,22.71,2.72-23,21.16-3.62.8-6.8,30.68-5.25-13.24,38.47-20.24,5.4-1.73,5.02-14.48,3.87,6.83,16.91v-1.41l38.35-12.78v43l-30.88-10.29,7.26,18-37.69,28.34-14.9-77.62-10.41,69.34-24.72-15.99.83,7.37-28.01-5.52-.93-42.7-11.33,1.45,4.98,11.21-33.08,24.95-14.74-12.02v-35.59l-5.31-2.12.53,4.21-3.22-1.29v30.1l-45.25,30.96-14.19-18.06,1.3,17.79-25.01,15.91.83-16.25-.63,1.33-28.48,17.99-18.59-43.82ZM89.4,108.89l30.02-18.4v-5.49l-32.13-4.94,2.11,28.84ZM51.37,105.99v-17.75l14.04-3.83-6.14-15.96-9.02-4.25-3.36,31.05,4.47,10.73ZM237.23,102.14l8.86-23.46-11.36,1.46,2.49,22.01Z" style="fill: #fff;"/>
              </g>
            </g>
            <g id="u" data-name="バースト">
              <g>
                <path d="M195.3,174.71l-14.86,13.19-20.6-12.2,1.97-1.85h-12.7l3.59,8.09-29.09,4.59-5.5-24.71-4.48,25.57-27.31-5.77,18.17-54.99,14.52,3.76,9.17-3.65.54,1.21,22.04-6.3-.4.97,8.69-2.48-10.95,26.28-10.05,2.51,3.38,7.61v-5.7h23.26l.51-19.04,47.64-2.57,2.37,27.8-3.22,2.85,5.62,2.2-1.44-35.24h26.5l-.81,19.9,20.42,7.03-12.01,24.03-9.43-5.89-.65,15.93h-20.77l-1.44,5.23-22.67-18.37ZM171.42,164.78l11.72-11.06-11.72.43v10.62Z" style="fill: #fff;"/>
                <path d="M195.3,174.71l-14.86,13.19-20.6-12.2,1.97-1.85h-12.7l3.59,8.09-29.09,4.59-5.5-24.71-4.48,25.57-27.31-5.77,18.17-54.99,14.52,3.76,9.17-3.65.54,1.21,22.04-6.3-.4.97,8.69-2.48-10.95,26.28-10.05,2.51,3.38,7.61v-5.7h23.26l.51-19.04,47.64-2.57,2.37,27.8-3.22,2.85,5.62,2.2-1.44-35.24h26.5l-.81,19.9,20.42,7.03-12.01,24.03-9.43-5.89-.65,15.93h-20.77l-1.44,5.23-22.67-18.37ZM171.42,164.78l11.72-11.06-11.72.43v10.62Z" style="fill: #fff;"/>
              </g>
              <g>
                <path d="M195.3,174.71l-14.86,13.19-20.6-12.2,1.97-1.85h-12.7l3.59,8.09-29.09,4.59-5.5-24.71-4.48,25.57-27.31-5.77,18.17-54.99,14.52,3.76,9.17-3.65.54,1.21,22.04-6.3-.4.97,8.69-2.48-10.95,26.28-10.05,2.51,3.38,7.61v-5.7h23.26l.51-19.04,47.64-2.57,2.37,27.8-3.22,2.85,5.62,2.2-1.44-35.24h26.5l-.81,19.9,20.42,7.03-12.01,24.03-9.43-5.89-.65,15.93h-20.77l-1.44,5.23-22.67-18.37ZM171.42,164.78l11.72-11.06-11.72.43v10.62Z" style="fill: #fff;"/>
                <path d="M195.3,174.71l-14.86,13.19-20.6-12.2,1.97-1.85h-12.7l3.59,8.09-29.09,4.59-5.5-24.71-4.48,25.57-27.31-5.77,18.17-54.99,14.52,3.76,9.17-3.65.54,1.21,22.04-6.3-.4.97,8.69-2.48-10.95,26.28-10.05,2.51,3.38,7.61v-5.7h23.26l.51-19.04,47.64-2.57,2.37,27.8-3.22,2.85,5.62,2.2-1.44-35.24h26.5l-.81,19.9,20.42,7.03-12.01,24.03-9.43-5.89-.65,15.93h-20.77l-1.44,5.23-22.67-18.37ZM171.42,164.78l11.72-11.06-11.72.43v10.62Z" style="fill: #fff;"/>
              </g>
              <g>
                <path d="M195.3,174.71l-14.86,13.19-20.6-12.2,1.97-1.85h-12.7l3.59,8.09-29.09,4.59-5.5-24.71-4.48,25.57-27.31-5.77,18.17-54.99,14.52,3.76,9.17-3.65.54,1.21,22.04-6.3-.4.97,8.69-2.48-10.95,26.28-10.05,2.51,3.38,7.61v-5.7h23.26l.51-19.04,47.64-2.57,2.37,27.8-3.22,2.85,5.62,2.2-1.44-35.24h26.5l-.81,19.9,20.42,7.03-12.01,24.03-9.43-5.89-.65,15.93h-20.77l-1.44,5.23-22.67-18.37ZM171.42,164.78l11.72-11.06-11.72.43v10.62Z" style="fill: #fff;"/>
                <path d="M195.3,174.71l-14.86,13.19-20.6-12.2,1.97-1.85h-12.7l3.59,8.09-29.09,4.59-5.5-24.71-4.48,25.57-27.31-5.77,18.17-54.99,14.52,3.76,9.17-3.65.54,1.21,22.04-6.3-.4.97,8.69-2.48-10.95,26.28-10.05,2.51,3.38,7.61v-5.7h23.26l.51-19.04,47.64-2.57,2.37,27.8-3.22,2.85,5.62,2.2-1.44-35.24h26.5l-.81,19.9,20.42,7.03-12.01,24.03-9.43-5.89-.65,15.93h-20.77l-1.44,5.23-22.67-18.37ZM171.42,164.78l11.72-11.06-11.72.43v10.62Z" style="fill: #fff;"/>
              </g>
            </g>
          </g>
        </g>
        <g>
          <g id="v" data-name="Gブレイバー">
            <path d="M86.42,73.84l39,6v14l-31,19,11,14,38-26v-33l-57-10v16ZM135.42,47.84l5,16,5,2-2-16-8-2ZM177.42,91.84v-28h-14v42l8.89,7.24,25.52-19.25-5.89-13.24-14.52,11.25ZM247.21,72.48l-2.5-19.05-49.89,13.73,2.87,11.67,19.75-2.54.97,44.54,15.23,3-5.54-48.91,19.1-2.45ZM238.42,115.97l21.45,13.88,11.35-75.64-11.35,5-21.45,56.77ZM276.78,48.97l17.03,88.67,26.32-19.79-31.64-78.4-11.71,9.52ZM324.61,31.73l-16.28,2.79-3.06,25.87,10.44-2.79,8.91-25.87ZM318.68,95.06l26.35,8.78v-26.35l-26.35,8.78v8.78ZM57.37,92.83v9.96l10.33-3.87-15.86,23.8-11.07-26.56,4.43-40.95,18.82,8.85,5.53,14.39h8.85v-26.56L16.42,30.84l8.85,77.48,15.5,36.52,21.03-13.28,12.87-27.46-1.81,35.21,12.17-7.75-3.32-45.38-24.35,6.64ZM150.42,63.84l5,2v-17l-8-2,3,17ZM346.57,21.31l-16.28,2.79-3.06,25.87,10.44-2.79,8.91-25.87Z" style="fill: #e23737;"/>
          </g>
          <g id="w" data-name="バースト">
            <path d="M94.11,177.13l14.68,3.1,7.75-44.29-8.13-2.1-14.31,43.29ZM118.72,136.96l9.52,42.76,15.8-2.49-19.01-42.78-6.31,2.51ZM147.42,167.84h18v-11h-18v11ZM235.68,150.97l.74-18.12h-14l2,49h10l.84-20.48,12.59,7.86,6-12-18.16-6.25ZM140.42,130.84l-7,2-2,11,4-1,5-12ZM143.7,141.33l5-12-7,2-2,11,4-1ZM208.97,154.54l-1.62-19.01-36.31,1.96-.29,10.68,28.11-1.04-29.12,27.46,9.98,5.91,15.39-13.66,19.5,15.8,3.8-13.8-17.74-6.94,8.29-7.36Z" style="fill: #e23737;"/>
          </g>
        </g>
      </g>
      <g>
        <g>
          <g>
            <path d="M106.5,44.2h-9.21s.34-3.52.35-3.66l-1.46-4.97c-.53-1.82-.93-2.91-1.58-4.33l-.72-1.57.99-1.41c.58-.82,1.07-1.73,1.49-2.71l-1.35.24v-11.68l2.68.63c-.02-.52-.06-1.03-.11-1.59l-.32-3.29h10.62l.56-1.34,2.6,1.34h7.62l.55-1.34,2.43,1.34h.05v.03s6.4,3.55,6.4,3.55l-1.03,1.55,3.39,2.27s-2.28,2.67-2.33,2.73c.52,1.49.8,2.48,1.31,4.96l.56,2.72-1.01.29v2.82l.17.09-.17.24v2.31l.67.3-.31,2.24c-.3,2.18-.69,3.95-1.61,5.44-.86,1.35-1.92,2.14-3.27,2.48-.83.21-1.21.21-1.36.21h-.15s-.8-.08-.93-.09h-.2l-.29-.06c-1.2-.24-2.37-.88-3.57-1.98-1.26.73-2.58,1.35-4.25,2.01l-2.69,1.06-.96-2.18c-.05.05-2.52,2.65-2.52,2.65l-1.03-1.3Z" style="fill: #fff;"/>
            <path d="M106.5,44.2h-9.21s.34-3.52.35-3.66l-1.46-4.97c-.53-1.82-.93-2.91-1.58-4.33l-.72-1.57.99-1.41c.58-.82,1.07-1.73,1.49-2.71l-1.35.24v-11.68l2.68.63c-.02-.52-.06-1.03-.11-1.59l-.32-3.29h10.62l.56-1.34,2.6,1.34h7.62l.55-1.34,2.43,1.34h.05v.03s6.4,3.55,6.4,3.55l-1.03,1.55,3.39,2.27s-2.28,2.67-2.33,2.73c.52,1.49.8,2.48,1.31,4.96l.56,2.72-1.01.29v2.82l.17.09-.17.24v2.31l.67.3-.31,2.24c-.3,2.18-.69,3.95-1.61,5.44-.86,1.35-1.92,2.14-3.27,2.48-.83.21-1.21.21-1.36.21h-.15s-.8-.08-.93-.09h-.2l-.29-.06c-1.2-.24-2.37-.88-3.57-1.98-1.26.73-2.58,1.35-4.25,2.01l-2.69,1.06-.96-2.18c-.05.05-2.52,2.65-2.52,2.65l-1.03-1.3Z" style="fill: #fff;"/>
          </g>
          <g>
            <path d="M142.63,43.27c-.16-.21-.29-.38-.4-.53-4.88.48-6.1.56-11.46.91-.51.03-1.01.08-1.76.16l-2.94.3-1.7-10.81,1.25.11v-4.51l.45.05c0-.09,0-4.4,0-4.47l-.9.09v-9.89l-2.06-3.68,5.07-.05c8.09-.07,11.73-.7,12.53-1.02l2.27-.91.68,1.02h10.57l-.63,3.53c-.07.4-.1.53-.12,2.02.89,0,1.43-.04,2.04-.1l3.64-.39-.33,3.65q-.11,1.2-.17,5.71c-.15,11.27-.78,14.5-1.81,16.28-1.65,2.91-4.47,3.15-7.97,3.15-.26,0-.67,0-1.16-.04l-.67-.05-1.96,2.73-2.45-3.27Z" style="fill: #fff;"/>
            <path d="M142.63,43.27c-.16-.21-.29-.38-.4-.53-4.88.48-6.1.56-11.46.91-.51.03-1.01.08-1.76.16l-2.94.3-1.7-10.81,1.25.11v-4.51l.45.05c0-.09,0-4.4,0-4.47l-.9.09v-9.89l-2.06-3.68,5.07-.05c8.09-.07,11.73-.7,12.53-1.02l2.27-.91.68,1.02h10.57l-.63,3.53c-.07.4-.1.53-.12,2.02.89,0,1.43-.04,2.04-.1l3.64-.39-.33,3.65q-.11,1.2-.17,5.71c-.15,11.27-.78,14.5-1.81,16.28-1.65,2.91-4.47,3.15-7.97,3.15-.26,0-.67,0-1.16-.04l-.67-.05-1.96,2.73-2.45-3.27Z" style="fill: #fff;"/>
          </g>
          <g>
            <path d="M183.11,43.93c-3.25-1.2-4.94-2.07-7.27-3.83-2.28,1.72-4.03,2.6-7.23,3.75l-.27.1.02.23h-.66l-1.62.58-.28-.58h-8.9l.37-3.33c.13-1.19.16-1.77.16-3.12v-2.86l-.4.42-1.03-5.9c-.32-1.87-.69-3.22-1.35-4.98l-.67-1.79,1.34-1.36c1.42-1.44,2.5-3.29,3.39-5.83.52-1.43.81-2.47.9-3.21l.4-3.51,6.59,1.87,1.45.13c.55.05.94.08,2.58.08h10.59c1.57,0,1.97-.03,2.6-.08l3.67-.31-.44,3.65c-.07.55-.1,1.09-.1,2.52v11.11l2.19-.25v7.19l2.71.61-2.85,3.72c-.95,1.24-1.42,1.99-2.15,3.49l-1.19,2.43-2.54-.94Z" style="fill: #fff;"/>
            <path d="M183.11,43.93c-3.25-1.2-4.94-2.07-7.27-3.83-2.28,1.72-4.03,2.6-7.23,3.75l-.27.1.02.23h-.66l-1.62.58-.28-.58h-8.9l.37-3.33c.13-1.19.16-1.77.16-3.12v-2.86l-.4.42-1.03-5.9c-.32-1.87-.69-3.22-1.35-4.98l-.67-1.79,1.34-1.36c1.42-1.44,2.5-3.29,3.39-5.83.52-1.43.81-2.47.9-3.21l.4-3.51,6.59,1.87,1.45.13c.55.05.94.08,2.58.08h10.59c1.57,0,1.97-.03,2.6-.08l3.67-.31-.44,3.65c-.07.55-.1,1.09-.1,2.52v11.11l2.19-.25v7.19l2.71.61-2.85,3.72c-.95,1.24-1.42,1.99-2.15,3.49l-1.19,2.43-2.54-.94Z" style="fill: #fff;"/>
          </g>
          <g>
            <path d="M187.65,41.96c-.68-1.41-1.28-2.36-2.22-3.5l-3.08-3.74,3.06-.7v-7.81l-1.58-4.37,3.33-.74c.34-.08.7-.17,1.06-.3-.5-.44-1.03-.86-1.64-1.3l-2.8-2,7.14-7.58,2.15,1.62c.27.2.52.4.76.58l2.36.27c.33.04.52.06.83.06.04-.16.08-.33.12-.53l.55-2.58,11.82.97-1,2.01,1.52-.17s2.01-2.65,2.01-2.65l8.07,7.21-2.04,2.24c-.66.72-1.26,1.36-1.86,1.96.58.36,1.15.73,1.72,1.12l2.34,1.63-1.75,2.79v7.36l2.7.55-2.56,3.73c-.97,1.41-1.48,2.31-2.17,3.84l-1.08,2.36-2.49-.73c-2.18-.64-3.67-1.21-5.27-2.07l.6,2.46h-12.26l.33-2.45c-1.5.8-2.87,1.3-5.03,2l-2.49.81-1.14-2.36Z" style="fill: #fff;"/>
            <path d="M187.65,41.96c-.68-1.41-1.28-2.36-2.22-3.5l-3.08-3.74,3.06-.7v-7.81l-1.58-4.37,3.33-.74c.34-.08.7-.17,1.06-.3-.5-.44-1.03-.86-1.64-1.3l-2.8-2,7.14-7.58,2.15,1.62c.27.2.52.4.76.58l2.36.27c.33.04.52.06.83.06.04-.16.08-.33.12-.53l.55-2.58,11.82.97-1,2.01,1.52-.17s2.01-2.65,2.01-2.65l8.07,7.21-2.04,2.24c-.66.72-1.26,1.36-1.86,1.96.58.36,1.15.73,1.72,1.12l2.34,1.63-1.75,2.79v7.36l2.7.55-2.56,3.73c-.97,1.41-1.48,2.31-2.17,3.84l-1.08,2.36-2.49-.73c-2.18-.64-3.67-1.21-5.27-2.07l.6,2.46h-12.26l.33-2.45c-1.5.8-2.87,1.3-5.03,2l-2.49.81-1.14-2.36Z" style="fill: #fff;"/>
          </g>
          <g>
            <path d="M230.55,44.08v-.09s-3.65,0-3.65,0v.03h-10.97l.44-3.38c.09-.73.13-1.37.13-2.56,0,0,0-7.53,0-7.65l-1.56.22v-11.54l.48.07v-7.5l3.47.56c.41.07.76.1,1.58.11l-.5-2.49h12.24l-.1.49,2.06.21c.76.08,1.29.1,2.18.1h5.58c1.2,0,1.49-.03,1.97-.11l1.87-.31,4.05,5.83-.73,1.56q-.15.32-.85,2.31c-.47,1.31-1.1,2.87-1.76,4.39.82,1.22,1.31,2.2,1.8,3.49.58,1.63.88,3.28.88,4.83,0,3.29-1.6,5.88-4.27,6.93-.87.37-2,.59-3.39.66.01.15.03.29.05.42l.47,3.41h-11.46Z" style="fill: #fff;"/>
            <path d="M230.55,44.08v-.09s-3.65,0-3.65,0v.03h-10.97l.44-3.38c.09-.73.13-1.37.13-2.56,0,0,0-7.53,0-7.65l-1.56.22v-11.54l.48.07v-7.5l3.47.56c.41.07.76.1,1.58.11l-.5-2.49h12.24l-.1.49,2.06.21c.76.08,1.29.1,2.18.1h5.58c1.2,0,1.49-.03,1.97-.11l1.87-.31,4.05,5.83-.73,1.56q-.15.32-.85,2.31c-.47,1.31-1.1,2.87-1.76,4.39.82,1.22,1.31,2.2,1.8,3.49.58,1.63.88,3.28.88,4.83,0,3.29-1.6,5.88-4.27,6.93-.87.37-2,.59-3.39.66.01.15.03.29.05.42l.47,3.41h-11.46Z" style="fill: #fff;"/>
          </g>
        </g>
        <g>
          <path d="M112,30.88c.84.96,1.56,1.5,3.03,2.22-.78,1.17-1.05,1.71-1.8,3.45-.72-.39-1.38-.96-1.98-1.65-.75,2.43-1.74,4.17-3.51,6.03-.93-1.17-1.44-1.68-2.94-2.82q.03,2.25.12,3.09h-4.32c.09-.93.15-2.22.15-3.87v-3.48c0-.54.03-1.92.12-3.51-.54,1.92-1.11,3.27-1.8,4.38-.57-1.95-1.02-3.18-1.74-4.74,1.56-2.22,2.64-4.92,3.15-7.92h-.51c-.66,0-1.44.06-1.95.15v-4.32c.51.12.9.15,1.95.15h.75v-2.07c0-1.26-.06-2.19-.15-3.12h4.35c-.12.69-.15,1.47-.15,3.12v2.07h.39c.27,0,.45,0,.87-.03-.21-.21-.3-.27-.54-.51l2.34-2.4.51.51c.75-1.05,1.17-1.86,1.62-2.94l3.09,1.59q-1.2,2.04-2.49,3.75c.09.09.27.3.51.63.84-1.11.99-1.35,1.59-2.4l1.38.87q-.15-3.45-.27-4.26h4.38c-.09.54-.12,1.14-.12,1.77v1.17l.51-.63.48.45c.66-.81,1.26-1.83,1.68-2.85l3.09,1.71c-.9,1.35-1.44,2.07-2.55,3.39.24.27.42.48.54.63.69-.87.96-1.26,1.65-2.34l2.55,1.71c-2.28,2.67-2.88,3.3-4.53,4.8.93-.03,1.35-.03,1.95-.06-.15-.51-.21-.66-.42-1.23l2.25-.57c.51,1.44.75,2.25,1.26,4.74l-2.4.69c-.09-.54-.12-.69-.18-1.08-.63.06-.66.06-1.11.12.36.6.48.87.72,1.44,1.35,0,1.77-.03,2.46-.15v4.17c-.84-.09-2.19-.15-3.12-.15h-.9l2.67,1.35c-.51.69-.66.93-1.08,1.41.9,1.05,1.8,1.74,2.82,2.19-.3,2.16-.63,3.36-1.2,4.29-.42.66-.84.99-1.44,1.14-.24.06-.54.12-.63.12-.6-.06-.93-.09-.99-.09-1.05-.21-2.28-1.2-3.66-2.94-1.89,1.35-3.42,2.16-5.85,3.12-.66-1.5-1.11-2.28-2.28-3.69,2.46-.54,3.99-1.14,6.24-2.55-.57-1.29-.99-2.58-1.38-4.35h-3.18v.3ZM104.8,37.93c2.19-2.01,3.12-4.02,3.39-7.35q-1.11.06-1.5.09v-3.51c-.27.66-.39.99-.81,2.07-.51-.72-.69-1.08-1.2-2.22.03.21.06,1.17.09,2.88l.03,7.44v.6ZM106.54,22.96c.27.03.42.03.6.03h.27q.99-1.05,1.5-1.62c-1.2-1.5-1.5-1.86-2.19-2.61v3.42c-.12-.03-.24-.03-.3-.03-.33-.06-.84-.09-1.17-.09h-.33c.42,1.08.9,1.83,1.86,2.91l-.24-2.01ZM113.35,26.14c-.03-.24-.06-.48-.09-.78-1.02.18-1.71.27-2.43.33-1.11.12-2.34.27-3.66.42-.09.18-.15.27-.24.51.51.09.81.09,1.95.09h5.73c-.03-.45-.03-.48-.09-.93l-1.17.36ZM114.22,21.19c0-.54-.03-.96-.06-1.83-.12.15-.18.24-.24.3-.6.81-1.83,2.16-2.91,3.24.69-.03.84-.06,1.86-.18-.09-.42-.12-.57-.24-1.11l1.59-.42ZM119.68,20.92c-.69-.84-.84-1.02-1.59-1.83.03,1.35.03,1.92.12,3.3.9-.87,1.08-1.02,1.47-1.47ZM120.49,26.71c-.27-.63-.36-.81-.57-1.2-.48.03-.57.06-1.47.09.06.6.09.96.12,1.11h1.92ZM119.23,30.58c.21.84.3,1.17.57,1.89.69-.75,1.08-1.26,1.44-1.89h-2.01ZM121.51,35.56c.6.72.9.99,1.11.99.45,0,.63-.69.87-3.12-.69.84-1.2,1.38-1.98,2.13Z" style="fill: #33f;"/>
          <path d="M152.89,18.61c1.38,0,2.1-.03,2.94-.12q-.12,1.32-.18,5.94c-.12,8.88-.54,13.32-1.41,14.82-.75,1.32-1.86,1.65-5.37,1.65-.21,0-.54,0-.93-.03-.06-1.41-.21-2.19-.51-3.33-.72,1.5-1.17,2.22-2.4,3.93-.63-.84-.87-1.11-1.59-1.86-6.06.6-6.93.66-12.87,1.05-.54.03-1.11.09-1.98.18l-.66-4.2c.66.06,1.05.06,2.49.06,1.23,0,2.07,0,3.99-.06v-1.14h-2.88c-1.05,0-1.95.03-2.91.09v-3.36c.87.09,1.5.12,2.94.12h2.85v-.9h-2.4c-1.47,0-2.13,0-3.06.06.09-.78.12-1.47.12-2.85v-3.96c0-1.35-.03-1.95-.12-2.79.9.06,1.68.09,3.06.09h2.4v-.87h-3.33c-1.29,0-2.04.03-2.91.12v-3.54c.9.09,1.56.12,2.91.12h3.33v-.87c-2.25.09-3.87.12-4.83.15-.39-1.2-.69-1.92-1.38-3.15,6.63-.06,11.82-.51,13.62-1.23l2.25,3.39c-.15.03-.21.03-.42.06l-.45.03q-.36.03-.93.12c-.99.12-1.35.15-3.96.39v1.11h2.88c1.5,0,2.13-.03,2.88-.12v.81c.45.06.81.09,1.59.09h.39v-2.82c0-1.38-.03-2.04-.18-2.73h4.77q-.15.84-.21,5.55h2.46ZM132.82,24.55v1.02h1.59v-1.02h-1.59ZM132.82,27.85v1.08h1.59v-1.08h-1.59ZM143.56,35.14c1.47-2.76,2.1-6.03,2.4-12.27-.84,0-1.2.03-1.89.09v-1.74c-.45-.09-.69-.09-1.89-.09h-3.87v.87h2.94c1.41,0,1.77,0,2.4-.06-.09.66-.09,1.11-.09,2.61v4.32c0,1.11.03,1.89.06,2.61-.75-.03-1.08-.03-2.61-.03h-2.7v.9h2.34c1.53,0,2.1-.03,2.91-.09v2.88ZM138.31,25.57h1.59v-1.02h-1.59v1.02ZM138.31,28.93h1.59v-1.08h-1.59v1.08ZM138.31,36.52q2.16-.09,4.56-.27c.18-.3.24-.36.42-.66-.39-.06-.78-.09-1.44-.09h-3.54v1.02ZM150.31,22.87c-.24,6.06-.96,10.08-2.43,13.62.57.09,1.05.12,1.32.12,1.23,0,1.47-.36,1.77-2.64.3-2.19.42-4.11.63-11.1h-1.29Z" style="fill: #33f;"/>
          <path d="M164.86,37.72c0,1.26.06,2.25.18,3.45h-4.8c.15-1.35.18-2.04.18-3.45v-8.79q0-.36.03-1.02c0-.33,0-.51.03-.96-.18.24-.33.45-.42.57-.54.72-.6.81-1.11,1.35-.36-2.07-.78-3.6-1.5-5.52,1.71-1.74,3.03-3.96,4.08-6.93.57-1.56.93-2.82,1.05-3.87l4.65,1.32q-.12.36-.36,1.2c-.6,1.95-1.2,3.45-2.01,5.16v17.49ZM168.76,34.66c-1.71,0-2.16.03-2.97.09v-3.96c.75.06,1.05.09,2.04.12v-14.37c0-1.74,0-2.04-.06-2.85.66.06,1.14.09,2.85.09h10.59c1.65,0,2.13-.03,2.85-.09-.09.75-.12,1.44-.12,2.88v14.34c.99-.03,1.41-.03,2.19-.12v3.99c-.93-.09-1.35-.12-2.91-.12h-2.79c1.95,1.26,3.39,1.83,6.18,2.46-1.08,1.41-1.65,2.34-2.46,3.99-3.57-1.32-4.92-2.1-7.71-4.35l2.04-2.1h-5.52l2.31,2.07c-2.7,2.19-4.17,3.03-7.68,4.29-.69-1.41-1.26-2.25-2.58-3.78,2.97-.78,4.23-1.32,6.03-2.58h-2.28ZM172.24,18.46h7.29v-.99h-7.29v.99ZM172.24,22.57h7.29v-1.02h-7.29v1.02ZM172.24,26.71h7.29v-1.05h-7.29v1.05ZM179.53,29.89h-7.29v1.02h7.29v-1.02Z" style="fill: #33f;"/>
          <path d="M208.12,25c0,1.53.03,2.07.09,2.7-.69-.06-1.41-.09-2.34-.09h-1.65v1.44h7.53c1.77,0,3.03-.06,3.78-.18v4.41c-.96-.12-2.25-.18-3.84-.18h-4.2c2.46,1.56,5.01,2.55,8.7,3.3-1.05,1.53-1.65,2.58-2.43,4.29-2.37-.69-3.72-1.26-5.43-2.25-1.83-1.05-2.94-1.92-4.26-3.33,0,.21.03.24.03.42,0,.21.03.9.03,1.05v1.35c0,1.47.03,1.92.3,3.03h-5.01c.15-1.11.21-1.8.21-3.03v-1.32c0-.48.03-.99.09-1.47-1.32,1.47-2.55,2.46-4.47,3.54-1.35.75-2.49,1.2-4.89,1.98-.78-1.62-1.5-2.76-2.61-4.11,3.78-.87,6.51-1.95,8.55-3.45h-4.08c-1.47,0-2.97.06-3.81.18v-4.41c.87.12,2.25.18,3.81.18h7.38v-1.44h-1.38c-.96,0-1.71.03-2.37.09.06-.63.09-1.62.09-2.67v-7.08c0-1.23,0-1.56-.09-2.58.78.09,1.02.09,2.43.09h.9c.45-1.11.63-1.65.9-2.91l4.77.39q-.33.66-.78,1.74c-.12.27-.18.42-.33.78h2.04c1.41,0,1.62,0,2.43-.09-.09.84-.09.96-.09,2.58v.39c1.86-1.47,2.94-2.58,4.35-4.44l3.39,3.03c-1.8,1.98-3.12,3.21-4.83,4.62,2.01.93,3.6,1.83,5.19,2.94l-2.37,3.78c-2.07-1.56-3.66-2.58-5.73-3.66v.39ZM195.91,24.76c-1.8,1.2-2.94,1.83-5.28,2.88-.51.21-.93.42-1.29.6l-1.53-4.23c2.01-.45,4.11-1.41,6.99-3.12l1.11,3.87ZM191.26,13.93c2.07,1.56,2.97,2.37,4.68,4.17l-2.91,3.45c-1.59-1.95-2.82-3.15-4.71-4.5l2.94-3.12ZM200.08,19.99h3.87v-1.23h-3.87v1.23ZM200.08,24.34h3.87v-1.26h-3.87v1.26ZM210.22,21.16l-2.1-2.31v5.34l2.1-3.03Z" style="fill: #33f;"/>
          <path d="M230.47,15.34c1.29,0,1.92-.03,2.64-.12v4.41c-.42-.06-.69-.09-1.38-.12-.24,1.2-.51,2.19-.87,3.24,1.26,0,1.8-.03,2.4-.12v4.53c-.66-.09-1.35-.12-2.16-.12h-10.02c-1.56,0-2.31.03-3.15.15v-4.59c.78.12,1.29.15,2.91.15-.18-.93-.54-2.43-.81-3.24-.69.03-1.11.06-1.62.12v-4.44c.75.12,1.35.15,2.88.15h2.49v-.54c0-.75-.03-1.35-.15-1.95h4.92c-.12.6-.15,1.17-.15,1.89v.6h2.07ZM223.9,41.02h-4.56c.12-.93.15-1.74.15-2.94v-7.29c0-1.02-.03-1.8-.12-2.4.72.06,1.38.09,2.46.09h8.37c1.32,0,1.71-.03,2.16-.09-.06.45-.09.9-.09,1.92v8.55c0,.93.03,1.44.12,2.13h-4.56v-1.56h-3.93v1.59ZM223.9,35.35h3.93v-2.79h-3.93v2.79ZM226.57,22.75c.3-.9.48-1.77.72-3.24h-2.76c.36,1.14.57,2.04.75,3.24h1.29ZM246.37,16.36q-.21.45-.96,2.58c-.57,1.59-1.44,3.72-2.37,5.73,1.35,1.8,1.89,2.76,2.43,4.2.45,1.26.69,2.58.69,3.78,0,2.07-.84,3.54-2.37,4.14-.78.33-1.89.48-3.27.48-.15,0-.51,0-.99-.03-.09-2.25-.27-3.09-1.02-4.53.69.06.96.09,1.26.09,1.29,0,1.74-.3,1.74-1.14,0-1.02-.27-2.16-.75-3.3-.51-1.17-.99-1.95-2.16-3.39,1.17-2.4,1.89-4.53,2.43-7.05h-2.64v19.5c0,1.74.06,2.79.18,3.66h-4.77c.09-1.14.15-2.34.15-3.51V15.82c0-.93-.03-1.5-.09-2.28.87.09,1.5.12,2.49.12h5.58c1.26,0,1.74-.03,2.46-.15l1.98,2.85Z" style="fill: #33f;"/>
        </g>
      </g>
    </g>
  </g>
</svg>