<?xml version="1.0" encoding="UTF-8"?><svg id="a" xmlns="http://www.w3.org/2000/svg" viewBox="0 0 342.13 181.01"><g><g><path d="M101.58,24.04c.84,.96,1.56,1.5,3.03,2.22-.78,1.17-1.05,1.71-1.8,3.45-.72-.39-1.38-.96-1.98-1.65-.75,2.43-1.74,4.17-3.51,6.03-.93-1.17-1.44-1.68-2.94-2.82q.03,2.25,.12,3.09h-4.32c.09-.93,.15-2.22,.15-3.87v-3.48c0-.54,.03-1.92,.12-3.51-.54,1.92-1.11,3.27-1.8,4.38-.57-1.95-1.02-3.18-1.74-4.74,1.56-2.22,2.64-4.92,3.15-7.92h-.51c-.66,0-1.44,.06-1.95,.15v-4.32c.51,.12,.9,.15,1.95,.15h.75v-2.07c0-1.26-.06-2.19-.15-3.12h4.35c-.12,.69-.15,1.47-.15,3.12v2.07h.39c.27,0,.45,0,.87-.03-.21-.21-.3-.27-.54-.51l2.34-2.4,.51,.51c.75-1.05,1.17-1.86,1.62-2.94l3.09,1.59q-1.2,2.04-2.49,3.75c.09,.09,.27,.3,.51,.63,.84-1.11,.99-1.35,1.59-2.4l1.38,.87q-.15-3.45-.27-4.26h4.38c-.09,.54-.12,1.14-.12,1.77v1.17l.51-.63,.48,.45c.66-.81,1.26-1.83,1.68-2.85l3.09,1.71c-.9,1.35-1.44,2.07-2.55,3.39,.24,.27,.42,.48,.54,.63,.69-.87,.96-1.26,1.65-2.34l2.55,1.71c-2.28,2.67-2.88,3.3-4.53,4.8,.93-.03,1.35-.03,1.95-.06-.15-.51-.21-.66-.42-1.23l2.25-.57c.51,1.44,.75,2.25,1.26,4.74l-2.4,.69c-.09-.54-.12-.69-.18-1.08-.63,.06-.66,.06-1.11,.12,.36,.6,.48,.87,.72,1.44,1.35,0,1.77-.03,2.46-.15v4.17c-.84-.09-2.19-.15-3.12-.15h-.9l2.67,1.35c-.51,.69-.66,.93-1.08,1.41,.9,1.05,1.8,1.74,2.82,2.19-.3,2.16-.63,3.36-1.2,4.29-.42,.66-.84,.99-1.44,1.14-.24,.06-.54,.12-.63,.12-.6-.06-.93-.09-.99-.09-1.05-.21-2.28-1.2-3.66-2.94-1.89,1.35-3.42,2.16-5.85,3.12-.66-1.5-1.11-2.28-2.28-3.69,2.46-.54,3.99-1.14,6.24-2.55-.57-1.29-.99-2.58-1.38-4.35h-3.18v.3Zm-7.2,7.05c2.19-2.01,3.12-4.02,3.39-7.35q-1.11,.06-1.5,.09v-3.51c-.27,.66-.39,.99-.81,2.07-.51-.72-.69-1.08-1.2-2.22,.03,.21,.06,1.17,.09,2.88l.03,7.44v.6Zm1.74-14.97c.27,.03,.42,.03,.6,.03h.27q.99-1.05,1.5-1.62c-1.2-1.5-1.5-1.86-2.19-2.61v3.42c-.12-.03-.24-.03-.3-.03-.33-.06-.84-.09-1.17-.09h-.33c.42,1.08,.9,1.83,1.86,2.91l-.24-2.01Zm6.81,3.18c-.03-.24-.06-.48-.09-.78-1.02,.18-1.71,.27-2.43,.33-1.11,.12-2.34,.27-3.66,.42-.09,.18-.15,.27-.24,.51,.51,.09,.81,.09,1.95,.09h5.73c-.03-.45-.03-.48-.09-.93l-1.17,.36Zm.87-4.95c0-.54-.03-.96-.06-1.83-.12,.15-.18,.24-.24,.3-.6,.81-1.83,2.16-2.91,3.24,.69-.03,.84-.06,1.86-.18-.09-.42-.12-.57-.24-1.11l1.59-.42Zm5.46-.27c-.69-.84-.84-1.02-1.59-1.83,.03,1.35,.03,1.92,.12,3.3,.9-.87,1.08-1.02,1.47-1.47Zm.81,5.79c-.27-.63-.36-.81-.57-1.2-.48,.03-.57,.06-1.47,.09,.06,.6,.09,.96,.12,1.11h1.92Zm-1.26,3.87c.21,.84,.3,1.17,.57,1.89,.69-.75,1.08-1.26,1.44-1.89h-2.01Zm2.28,4.98c.6,.72,.9,.99,1.11,.99,.45,0,.63-.69,.87-3.12-.69,.84-1.2,1.38-1.98,2.13Z" style="fill:none; stroke:#fff; stroke-width:6px;"/><path d="M142.47,11.77c1.38,0,2.1-.03,2.94-.12q-.12,1.32-.18,5.94c-.12,8.88-.54,13.32-1.41,14.82-.75,1.32-1.86,1.65-5.37,1.65-.21,0-.54,0-.93-.03-.06-1.41-.21-2.19-.51-3.33-.72,1.5-1.17,2.22-2.4,3.93-.63-.84-.87-1.11-1.59-1.86-6.06,.6-6.93,.66-12.87,1.05-.54,.03-1.11,.09-1.98,.18l-.66-4.2c.66,.06,1.05,.06,2.49,.06,1.23,0,2.07,0,3.99-.06v-1.14h-2.88c-1.05,0-1.95,.03-2.91,.09v-3.36c.87,.09,1.5,.12,2.94,.12h2.85v-.9h-2.4c-1.47,0-2.13,0-3.06,.06,.09-.78,.12-1.47,.12-2.85v-3.96c0-1.35-.03-1.95-.12-2.79,.9,.06,1.68,.09,3.06,.09h2.4v-.87h-3.33c-1.29,0-2.04,.03-2.91,.12v-3.54c.9,.09,1.56,.12,2.91,.12h3.33v-.87c-2.25,.09-3.87,.12-4.83,.15-.39-1.2-.69-1.92-1.38-3.15,6.63-.06,11.82-.51,13.62-1.23l2.25,3.39c-.15,.03-.21,.03-.42,.06l-.45,.03q-.36,.03-.93,.12c-.99,.12-1.35,.15-3.96,.39v1.11h2.88c1.5,0,2.13-.03,2.88-.12v.81c.45,.06,.81,.09,1.59,.09h.39v-2.82c0-1.38-.03-2.04-.18-2.73h4.77q-.15,.84-.21,5.55h2.46Zm-20.07,5.94v1.02h1.59v-1.02h-1.59Zm0,3.3v1.08h1.59v-1.08h-1.59Zm10.74,7.29c1.47-2.76,2.1-6.03,2.4-12.27-.84,0-1.2,.03-1.89,.09v-1.74c-.45-.09-.69-.09-1.89-.09h-3.87v.87h2.94c1.41,0,1.77,0,2.4-.06-.09,.66-.09,1.11-.09,2.61v4.32c0,1.11,.03,1.89,.06,2.61-.75-.03-1.08-.03-2.61-.03h-2.7v.9h2.34c1.53,0,2.1-.03,2.91-.09v2.88Zm-5.25-9.57h1.59v-1.02h-1.59v1.02Zm0,3.36h1.59v-1.08h-1.59v1.08Zm0,7.59q2.16-.09,4.56-.27c.18-.3,.24-.36,.42-.66-.39-.06-.78-.09-1.44-.09h-3.54v1.02Zm12-13.65c-.24,6.06-.96,10.08-2.43,13.62,.57,.09,1.05,.12,1.32,.12,1.23,0,1.47-.36,1.77-2.64,.3-2.19,.42-4.11,.63-11.1h-1.29Z" style="fill:none; stroke:#fff; stroke-width:6px;"/><path d="M154.44,30.88c0,1.26,.06,2.25,.18,3.45h-4.8c.15-1.35,.18-2.04,.18-3.45v-8.79q0-.36,.03-1.02c0-.33,0-.51,.03-.96-.18,.24-.33,.45-.42,.57-.54,.72-.6,.81-1.11,1.35-.36-2.07-.78-3.6-1.5-5.52,1.71-1.74,3.03-3.96,4.08-6.93,.57-1.56,.93-2.82,1.05-3.87l4.65,1.32q-.12,.36-.36,1.2c-.6,1.95-1.2,3.45-2.01,5.16V30.88Zm3.9-3.06c-1.71,0-2.16,.03-2.97,.09v-3.96c.75,.06,1.05,.09,2.04,.12V9.7c0-1.74,0-2.04-.06-2.85,.66,.06,1.14,.09,2.85,.09h10.59c1.65,0,2.13-.03,2.85-.09-.09,.75-.12,1.44-.12,2.88v14.34c.99-.03,1.41-.03,2.19-.12v3.99c-.93-.09-1.35-.12-2.91-.12h-2.79c1.95,1.26,3.39,1.83,6.18,2.46-1.08,1.41-1.65,2.34-2.46,3.99-3.57-1.32-4.92-2.1-7.71-4.35l2.04-2.1h-5.52l2.31,2.07c-2.7,2.19-4.17,3.03-7.68,4.29-.69-1.41-1.26-2.25-2.58-3.78,2.97-.78,4.23-1.32,6.03-2.58h-2.28Zm3.48-16.2h7.29v-.99h-7.29v.99Zm0,4.11h7.29v-1.02h-7.29v1.02Zm0,4.14h7.29v-1.05h-7.29v1.05Zm7.29,3.18h-7.29v1.02h7.29v-1.02Z" style="fill:none; stroke:#fff; stroke-width:6px;"/><path d="M197.7,18.16c0,1.53,.03,2.07,.09,2.7-.69-.06-1.41-.09-2.34-.09h-1.65v1.44h7.53c1.77,0,3.03-.06,3.78-.18v4.41c-.96-.12-2.25-.18-3.84-.18h-4.2c2.46,1.56,5.01,2.55,8.7,3.3-1.05,1.53-1.65,2.58-2.43,4.29-2.37-.69-3.72-1.26-5.43-2.25-1.83-1.05-2.94-1.92-4.26-3.33,0,.21,.03,.24,.03,.42,0,.21,.03,.9,.03,1.05v1.35c0,1.47,.03,1.92,.3,3.03h-5.01c.15-1.11,.21-1.8,.21-3.03v-1.32c0-.48,.03-.99,.09-1.47-1.32,1.47-2.55,2.46-4.47,3.54-1.35,.75-2.49,1.2-4.89,1.98-.78-1.62-1.5-2.76-2.61-4.11,3.78-.87,6.51-1.95,8.55-3.45h-4.08c-1.47,0-2.97,.06-3.81,.18v-4.41c.87,.12,2.25,.18,3.81,.18h7.38v-1.44h-1.38c-.96,0-1.71,.03-2.37,.09,.06-.63,.09-1.62,.09-2.67v-7.08c0-1.23,0-1.56-.09-2.58,.78,.09,1.02,.09,2.43,.09h.9c.45-1.11,.63-1.65,.9-2.91l4.77,.39q-.33,.66-.78,1.74c-.12,.27-.18,.42-.33,.78h2.04c1.41,0,1.62,0,2.43-.09-.09,.84-.09,.96-.09,2.58v.39c1.86-1.47,2.94-2.58,4.35-4.44l3.39,3.03c-1.8,1.98-3.12,3.21-4.83,4.62,2.01,.93,3.6,1.83,5.19,2.94l-2.37,3.78c-2.07-1.56-3.66-2.58-5.73-3.66v.39Zm-12.21-.24c-1.8,1.2-2.94,1.83-5.28,2.88-.51,.21-.93,.42-1.29,.6l-1.53-4.23c2.01-.45,4.11-1.41,6.99-3.12l1.11,3.87Zm-4.65-10.83c2.07,1.56,2.97,2.37,4.68,4.17l-2.91,3.45c-1.59-1.95-2.82-3.15-4.71-4.5l2.94-3.12Zm8.82,6.06h3.87v-1.23h-3.87v1.23Zm0,4.35h3.87v-1.26h-3.87v1.26Zm10.14-3.18l-2.1-2.31v5.34l2.1-3.03Z" style="fill:none; stroke:#fff; stroke-width:6px;"/><path d="M220.05,8.5c1.29,0,1.92-.03,2.64-.12v4.41c-.42-.06-.69-.09-1.38-.12-.24,1.2-.51,2.19-.87,3.24,1.26,0,1.8-.03,2.4-.12v4.53c-.66-.09-1.35-.12-2.16-.12h-10.02c-1.56,0-2.31,.03-3.15,.15v-4.59c.78,.12,1.29,.15,2.91,.15-.18-.93-.54-2.43-.81-3.24-.69,.03-1.11,.06-1.62,.12v-4.44c.75,.12,1.35,.15,2.88,.15h2.49v-.54c0-.75-.03-1.35-.15-1.95h4.92c-.12,.6-.15,1.17-.15,1.89v.6h2.07Zm-6.57,25.68h-4.56c.12-.93,.15-1.74,.15-2.94v-7.29c0-1.02-.03-1.8-.12-2.4,.72,.06,1.38,.09,2.46,.09h8.37c1.32,0,1.71-.03,2.16-.09-.06,.45-.09,.9-.09,1.92v8.55c0,.93,.03,1.44,.12,2.13h-4.56v-1.56h-3.93v1.59Zm0-5.67h3.93v-2.79h-3.93v2.79Zm2.67-12.6c.3-.9,.48-1.77,.72-3.24h-2.76c.36,1.14,.57,2.04,.75,3.24h1.29Zm19.8-6.39q-.21,.45-.96,2.58c-.57,1.59-1.44,3.72-2.37,5.73,1.35,1.8,1.89,2.76,2.43,4.2,.45,1.26,.69,2.58,.69,3.78,0,2.07-.84,3.54-2.37,4.14-.78,.33-1.89,.48-3.27,.48-.15,0-.51,0-.99-.03-.09-2.25-.27-3.09-1.02-4.53,.69,.06,.96,.09,1.26,.09,1.29,0,1.74-.3,1.74-1.14,0-1.02-.27-2.16-.75-3.3-.51-1.17-.99-1.95-2.16-3.39,1.17-2.4,1.89-4.53,2.43-7.05h-2.64V30.58c0,1.74,.06,2.79,.18,3.66h-4.77c.09-1.14,.15-2.34,.15-3.51V8.98c0-.93-.03-1.5-.09-2.28,.87,.09,1.5,.12,2.49,.12h5.58c1.26,0,1.74-.03,2.46-.15l1.98,2.85Z" style="fill:none; stroke:#fff; stroke-width:6px;"/></g><g><path d="M101.58,24.04c.84,.96,1.56,1.5,3.03,2.22-.78,1.17-1.05,1.71-1.8,3.45-.72-.39-1.38-.96-1.98-1.65-.75,2.43-1.74,4.17-3.51,6.03-.93-1.17-1.44-1.68-2.94-2.82q.03,2.25,.12,3.09h-4.32c.09-.93,.15-2.22,.15-3.87v-3.48c0-.54,.03-1.92,.12-3.51-.54,1.92-1.11,3.27-1.8,4.38-.57-1.95-1.02-3.18-1.74-4.74,1.56-2.22,2.64-4.92,3.15-7.92h-.51c-.66,0-1.44,.06-1.95,.15v-4.32c.51,.12,.9,.15,1.95,.15h.75v-2.07c0-1.26-.06-2.19-.15-3.12h4.35c-.12,.69-.15,1.47-.15,3.12v2.07h.39c.27,0,.45,0,.87-.03-.21-.21-.3-.27-.54-.51l2.34-2.4,.51,.51c.75-1.05,1.17-1.86,1.62-2.94l3.09,1.59q-1.2,2.04-2.49,3.75c.09,.09,.27,.3,.51,.63,.84-1.11,.99-1.35,1.59-2.4l1.38,.87q-.15-3.45-.27-4.26h4.38c-.09,.54-.12,1.14-.12,1.77v1.17l.51-.63,.48,.45c.66-.81,1.26-1.83,1.68-2.85l3.09,1.71c-.9,1.35-1.44,2.07-2.55,3.39,.24,.27,.42,.48,.54,.63,.69-.87,.96-1.26,1.65-2.34l2.55,1.71c-2.28,2.67-2.88,3.3-4.53,4.8,.93-.03,1.35-.03,1.95-.06-.15-.51-.21-.66-.42-1.23l2.25-.57c.51,1.44,.75,2.25,1.26,4.74l-2.4,.69c-.09-.54-.12-.69-.18-1.08-.63,.06-.66,.06-1.11,.12,.36,.6,.48,.87,.72,1.44,1.35,0,1.77-.03,2.46-.15v4.17c-.84-.09-2.19-.15-3.12-.15h-.9l2.67,1.35c-.51,.69-.66,.93-1.08,1.41,.9,1.05,1.8,1.74,2.82,2.19-.3,2.16-.63,3.36-1.2,4.29-.42,.66-.84,.99-1.44,1.14-.24,.06-.54,.12-.63,.12-.6-.06-.93-.09-.99-.09-1.05-.21-2.28-1.2-3.66-2.94-1.89,1.35-3.42,2.16-5.85,3.12-.66-1.5-1.11-2.28-2.28-3.69,2.46-.54,3.99-1.14,6.24-2.55-.57-1.29-.99-2.58-1.38-4.35h-3.18v.3Zm-7.2,7.05c2.19-2.01,3.12-4.02,3.39-7.35q-1.11,.06-1.5,.09v-3.51c-.27,.66-.39,.99-.81,2.07-.51-.72-.69-1.08-1.2-2.22,.03,.21,.06,1.17,.09,2.88l.03,7.44v.6Zm1.74-14.97c.27,.03,.42,.03,.6,.03h.27q.99-1.05,1.5-1.62c-1.2-1.5-1.5-1.86-2.19-2.61v3.42c-.12-.03-.24-.03-.3-.03-.33-.06-.84-.09-1.17-.09h-.33c.42,1.08,.9,1.83,1.86,2.91l-.24-2.01Zm6.81,3.18c-.03-.24-.06-.48-.09-.78-1.02,.18-1.71,.27-2.43,.33-1.11,.12-2.34,.27-3.66,.42-.09,.18-.15,.27-.24,.51,.51,.09,.81,.09,1.95,.09h5.73c-.03-.45-.03-.48-.09-.93l-1.17,.36Zm.87-4.95c0-.54-.03-.96-.06-1.83-.12,.15-.18,.24-.24,.3-.6,.81-1.83,2.16-2.91,3.24,.69-.03,.84-.06,1.86-.18-.09-.42-.12-.57-.24-1.11l1.59-.42Zm5.46-.27c-.69-.84-.84-1.02-1.59-1.83,.03,1.35,.03,1.92,.12,3.3,.9-.87,1.08-1.02,1.47-1.47Zm.81,5.79c-.27-.63-.36-.81-.57-1.2-.48,.03-.57,.06-1.47,.09,.06,.6,.09,.96,.12,1.11h1.92Zm-1.26,3.87c.21,.84,.3,1.17,.57,1.89,.69-.75,1.08-1.26,1.44-1.89h-2.01Zm2.28,4.98c.6,.72,.9,.99,1.11,.99,.45,0,.63-.69,.87-3.12-.69,.84-1.2,1.38-1.98,2.13Z" style="fill:#33f;"/><path d="M142.47,11.77c1.38,0,2.1-.03,2.94-.12q-.12,1.32-.18,5.94c-.12,8.88-.54,13.32-1.41,14.82-.75,1.32-1.86,1.65-5.37,1.65-.21,0-.54,0-.93-.03-.06-1.41-.21-2.19-.51-3.33-.72,1.5-1.17,2.22-2.4,3.93-.63-.84-.87-1.11-1.59-1.86-6.06,.6-6.93,.66-12.87,1.05-.54,.03-1.11,.09-1.98,.18l-.66-4.2c.66,.06,1.05,.06,2.49,.06,1.23,0,2.07,0,3.99-.06v-1.14h-2.88c-1.05,0-1.95,.03-2.91,.09v-3.36c.87,.09,1.5,.12,2.94,.12h2.85v-.9h-2.4c-1.47,0-2.13,0-3.06,.06,.09-.78,.12-1.47,.12-2.85v-3.96c0-1.35-.03-1.95-.12-2.79,.9,.06,1.68,.09,3.06,.09h2.4v-.87h-3.33c-1.29,0-2.04,.03-2.91,.12v-3.54c.9,.09,1.56,.12,2.91,.12h3.33v-.87c-2.25,.09-3.87,.12-4.83,.15-.39-1.2-.69-1.92-1.38-3.15,6.63-.06,11.82-.51,13.62-1.23l2.25,3.39c-.15,.03-.21,.03-.42,.06l-.45,.03q-.36,.03-.93,.12c-.99,.12-1.35,.15-3.96,.39v1.11h2.88c1.5,0,2.13-.03,2.88-.12v.81c.45,.06,.81,.09,1.59,.09h.39v-2.82c0-1.38-.03-2.04-.18-2.73h4.77q-.15,.84-.21,5.55h2.46Zm-20.07,5.94v1.02h1.59v-1.02h-1.59Zm0,3.3v1.08h1.59v-1.08h-1.59Zm10.74,7.29c1.47-2.76,2.1-6.03,2.4-12.27-.84,0-1.2,.03-1.89,.09v-1.74c-.45-.09-.69-.09-1.89-.09h-3.87v.87h2.94c1.41,0,1.77,0,2.4-.06-.09,.66-.09,1.11-.09,2.61v4.32c0,1.11,.03,1.89,.06,2.61-.75-.03-1.08-.03-2.61-.03h-2.7v.9h2.34c1.53,0,2.1-.03,2.91-.09v2.88Zm-5.25-9.57h1.59v-1.02h-1.59v1.02Zm0,3.36h1.59v-1.08h-1.59v1.08Zm0,7.59q2.16-.09,4.56-.27c.18-.3,.24-.36,.42-.66-.39-.06-.78-.09-1.44-.09h-3.54v1.02Zm12-13.65c-.24,6.06-.96,10.08-2.43,13.62,.57,.09,1.05,.12,1.32,.12,1.23,0,1.47-.36,1.77-2.64,.3-2.19,.42-4.11,.63-11.1h-1.29Z" style="fill:#33f;"/><path d="M154.44,30.88c0,1.26,.06,2.25,.18,3.45h-4.8c.15-1.35,.18-2.04,.18-3.45v-8.79q0-.36,.03-1.02c0-.33,0-.51,.03-.96-.18,.24-.33,.45-.42,.57-.54,.72-.6,.81-1.11,1.35-.36-2.07-.78-3.6-1.5-5.52,1.71-1.74,3.03-3.96,4.08-6.93,.57-1.56,.93-2.82,1.05-3.87l4.65,1.32q-.12,.36-.36,1.2c-.6,1.95-1.2,3.45-2.01,5.16V30.88Zm3.9-3.06c-1.71,0-2.16,.03-2.97,.09v-3.96c.75,.06,1.05,.09,2.04,.12V9.7c0-1.74,0-2.04-.06-2.85,.66,.06,1.14,.09,2.85,.09h10.59c1.65,0,2.13-.03,2.85-.09-.09,.75-.12,1.44-.12,2.88v14.34c.99-.03,1.41-.03,2.19-.12v3.99c-.93-.09-1.35-.12-2.91-.12h-2.79c1.95,1.26,3.39,1.83,6.18,2.46-1.08,1.41-1.65,2.34-2.46,3.99-3.57-1.32-4.92-2.1-7.71-4.35l2.04-2.1h-5.52l2.31,2.07c-2.7,2.19-4.17,3.03-7.68,4.29-.69-1.41-1.26-2.25-2.58-3.78,2.97-.78,4.23-1.32,6.03-2.58h-2.28Zm3.48-16.2h7.29v-.99h-7.29v.99Zm0,4.11h7.29v-1.02h-7.29v1.02Zm0,4.14h7.29v-1.05h-7.29v1.05Zm7.29,3.18h-7.29v1.02h7.29v-1.02Z" style="fill:#33f;"/><path d="M197.7,18.16c0,1.53,.03,2.07,.09,2.7-.69-.06-1.41-.09-2.34-.09h-1.65v1.44h7.53c1.77,0,3.03-.06,3.78-.18v4.41c-.96-.12-2.25-.18-3.84-.18h-4.2c2.46,1.56,5.01,2.55,8.7,3.3-1.05,1.53-1.65,2.58-2.43,4.29-2.37-.69-3.72-1.26-5.43-2.25-1.83-1.05-2.94-1.92-4.26-3.33,0,.21,.03,.24,.03,.42,0,.21,.03,.9,.03,1.05v1.35c0,1.47,.03,1.92,.3,3.03h-5.01c.15-1.11,.21-1.8,.21-3.03v-1.32c0-.48,.03-.99,.09-1.47-1.32,1.47-2.55,2.46-4.47,3.54-1.35,.75-2.49,1.2-4.89,1.98-.78-1.62-1.5-2.76-2.61-4.11,3.78-.87,6.51-1.95,8.55-3.45h-4.08c-1.47,0-2.97,.06-3.81,.18v-4.41c.87,.12,2.25,.18,3.81,.18h7.38v-1.44h-1.38c-.96,0-1.71,.03-2.37,.09,.06-.63,.09-1.62,.09-2.67v-7.08c0-1.23,0-1.56-.09-2.58,.78,.09,1.02,.09,2.43,.09h.9c.45-1.11,.63-1.65,.9-2.91l4.77,.39q-.33,.66-.78,1.74c-.12,.27-.18,.42-.33,.78h2.04c1.41,0,1.62,0,2.43-.09-.09,.84-.09,.96-.09,2.58v.39c1.86-1.47,2.94-2.58,4.35-4.44l3.39,3.03c-1.8,1.98-3.12,3.21-4.83,4.62,2.01,.93,3.6,1.83,5.19,2.94l-2.37,3.78c-2.07-1.56-3.66-2.58-5.73-3.66v.39Zm-12.21-.24c-1.8,1.2-2.94,1.83-5.28,2.88-.51,.21-.93,.42-1.29,.6l-1.53-4.23c2.01-.45,4.11-1.41,6.99-3.12l1.11,3.87Zm-4.65-10.83c2.07,1.56,2.97,2.37,4.68,4.17l-2.91,3.45c-1.59-1.95-2.82-3.15-4.71-4.5l2.94-3.12Zm8.82,6.06h3.87v-1.23h-3.87v1.23Zm0,4.35h3.87v-1.26h-3.87v1.26Zm10.14-3.18l-2.1-2.31v5.34l2.1-3.03Z" style="fill:#33f;"/><path d="M220.05,8.5c1.29,0,1.92-.03,2.64-.12v4.41c-.42-.06-.69-.09-1.38-.12-.24,1.2-.51,2.19-.87,3.24,1.26,0,1.8-.03,2.4-.12v4.53c-.66-.09-1.35-.12-2.16-.12h-10.02c-1.56,0-2.31,.03-3.15,.15v-4.59c.78,.12,1.29,.15,2.91,.15-.18-.93-.54-2.43-.81-3.24-.69,.03-1.11,.06-1.62,.12v-4.44c.75,.12,1.35,.15,2.88,.15h2.49v-.54c0-.75-.03-1.35-.15-1.95h4.92c-.12,.6-.15,1.17-.15,1.89v.6h2.07Zm-6.57,25.68h-4.56c.12-.93,.15-1.74,.15-2.94v-7.29c0-1.02-.03-1.8-.12-2.4,.72,.06,1.38,.09,2.46,.09h8.37c1.32,0,1.71-.03,2.16-.09-.06,.45-.09,.9-.09,1.92v8.55c0,.93,.03,1.44,.12,2.13h-4.56v-1.56h-3.93v1.59Zm0-5.67h3.93v-2.79h-3.93v2.79Zm2.67-12.6c.3-.9,.48-1.77,.72-3.24h-2.76c.36,1.14,.57,2.04,.75,3.24h1.29Zm19.8-6.39q-.21,.45-.96,2.58c-.57,1.59-1.44,3.72-2.37,5.73,1.35,1.8,1.89,2.76,2.43,4.2,.45,1.26,.69,2.58,.69,3.78,0,2.07-.84,3.54-2.37,4.14-.78,.33-1.89,.48-3.27,.48-.15,0-.51,0-.99-.03-.09-2.25-.27-3.09-1.02-4.53,.69,.06,.96,.09,1.26,.09,1.29,0,1.74-.3,1.74-1.14,0-1.02-.27-2.16-.75-3.3-.51-1.17-.99-1.95-2.16-3.39,1.17-2.4,1.89-4.53,2.43-7.05h-2.64V30.58c0,1.74,.06,2.79,.18,3.66h-4.77c.09-1.14,.15-2.34,.15-3.51V8.98c0-.93-.03-1.5-.09-2.28,.87,.09,1.5,.12,2.49,.12h5.58c1.26,0,1.74-.03,2.46-.15l1.98,2.85Z" style="fill:#33f;"/></g></g><g id="b"><g><path d="M11.92,102.25L2.48,19.64l68.5,23.24v31.71h-13.92l-5.84-15.19-13.92-6.55-3.89,36,8.62,20.68,7.6-11.39-5.68,2.13v-16.58l30.08-8.2,3.72,50.8-18.59,11.83,1.32-25.73-6.75,14.4-24.76,15.63L11.92,102.25Zm252.12-56.3l-12.32,82.1-26.14-16.91,1.09,9.6-21.62-4.26-.95-43.62-18.64,2.39,5.65,12.71-29.3,22.1-11.81-9.63V54h20v24.88l12.71-9.84,1.69,3.81-3.6-14.65,56.03-15.42,3.34,25.45-19.16,2.46,4.22,37.29,21.86-57.85,16.38-7.21-.38-1.98,16.25-13.22,12.03,29.8,3.83-32.41,21.16-3.62,.8-6.8,23.48-4.02-11.07,32.17-16.25,4.34,1.9-16.02-7.61,22.1-16.21,4.33,21.97,54.43-32.01,24.07-17.31-90.13ZM79.56,105.2l32.44-19.88v-9.75l-39-6v-22.15l53.82,9.44-6.27-20.08,13.44,3.36-.74-4.18,14.76,3.69v23.77l-9.92-3.97,.53,4.21-2.61-1.04v32.95l-41.62,28.48-14.82-18.86Zm225.71-14.83v-13.11l32.35-10.78v34.68l-32.35-10.78Z" style="fill:#fff;"/><path d="M11.92,102.25L2.48,19.64l68.5,23.24v31.71h-13.92l-5.84-15.19-13.92-6.55-3.89,36,8.62,20.68,7.6-11.39-5.68,2.13v-16.58l30.08-8.2,3.72,50.8-18.59,11.83,1.32-25.73-6.75,14.4-24.76,15.63L11.92,102.25Zm252.12-56.3l-12.32,82.1-26.14-16.91,1.09,9.6-21.62-4.26-.95-43.62-18.64,2.39,5.65,12.71-29.3,22.1-11.81-9.63V54h20v24.88l12.71-9.84,1.69,3.81-3.6-14.65,56.03-15.42,3.34,25.45-19.16,2.46,4.22,37.29,21.86-57.85,16.38-7.21-.38-1.98,16.25-13.22,12.03,29.8,3.83-32.41,21.16-3.62,.8-6.8,23.48-4.02-11.07,32.17-16.25,4.34,1.9-16.02-7.61,22.1-16.21,4.33,21.97,54.43-32.01,24.07-17.31-90.13ZM79.56,105.2l32.44-19.88v-9.75l-39-6v-22.15l53.82,9.44-6.27-20.08,13.44,3.36-.74-4.18,14.76,3.69v23.77l-9.92-3.97,.53,4.21-2.61-1.04v32.95l-41.62,28.48-14.82-18.86Zm225.71-14.83v-13.11l32.35-10.78v34.68l-32.35-10.78Z" style="fill:#fff;"/></g></g><g id="c"><path d="M76,67l39,6v14l-31,19,11,14,38-26V61l-57-10v16Zm49-26l5,16,5,2-2-16-8-2Zm42,44v-28h-14v42l8.89,7.24,25.52-19.25-5.89-13.24-14.52,11.25Zm69.8-19.36l-2.5-19.05-49.89,13.73,2.87,11.67,19.75-2.54,.97,44.54,15.23,3-5.54-48.91,19.1-2.45Zm-8.8,43.49l21.45,13.88,11.35-75.64-11.35,5-21.45,56.77Zm38.36-67l17.03,88.67,26.32-19.79-31.64-78.4-11.71,9.52Zm47.83-17.23l-16.28,2.79-3.06,25.87,10.44-2.79,8.91-25.87Zm-5.92,63.33l26.35,8.78v-26.35l-26.35,8.78v8.78Zm-261.31-2.24v9.96l10.33-3.87-15.86,23.8-11.07-26.56,4.43-40.95,18.82,8.85,5.53,14.39h8.85v-26.56L6,24,14.85,101.48l15.5,36.52,21.03-13.28,12.87-27.46-1.81,35.21,12.17-7.75-3.32-45.38-24.35,6.64Zm93.05-28.98l5,2v-17l-8-2,3,17ZM336.16,14.47l-16.28,2.79-3.06,25.87,10.44-2.79,8.91-25.87Z" style="fill:#e23737;"/></g><g id="d"><g><path d="M184.79,163.93l-15.12,13.43-15.29-9.05,26.21-24.72-23.33,.86,.45-16.64,41.97-2.26,2,23.4-5.75,5.11,14.45,5.66-1.5-36.71h20.25l-.78,19.01,19.29,6.64-9.01,18.01-11.01-6.87-.74,18.21h-15.76l-.57-13.96-4.68,16.97-21.08-17.08Zm-104.99,8.6l16.24-49.14,12.75,3.3,7.4-2.94,2.96,6.67,1.23-6.79,14.78-4.22-.41,.97,8.69-2.48-7.98,19.14-9.97,2.49,.11-.59-2.41,.6,10.8,24.3v-16.84h24v17h-23.93l3.88,8.74-22.45,3.54-8.17-36.69-6.55,37.38-21-4.44Z" style="fill:#fff;"/><path d="M184.79,163.93l-15.12,13.43-15.29-9.05,26.21-24.72-23.33,.86,.45-16.64,41.97-2.26,2,23.4-5.75,5.11,14.45,5.66-1.5-36.71h20.25l-.78,19.01,19.29,6.64-9.01,18.01-11.01-6.87-.74,18.21h-15.76l-.57-13.96-4.68,16.97-21.08-17.08Zm-104.99,8.6l16.24-49.14,12.75,3.3,7.4-2.94,2.96,6.67,1.23-6.79,14.78-4.22-.41,.97,8.69-2.48-7.98,19.14-9.97,2.49,.11-.59-2.41,.6,10.8,24.3v-16.84h24v17h-23.93l3.88,8.74-22.45,3.54-8.17-36.69-6.55,37.38-21-4.44Z" style="fill:#fff;"/></g></g><g id="e"><path d="M83.69,170.29l14.68,3.1,7.75-44.29-8.13-2.1-14.31,43.29Zm24.61-40.18l9.52,42.76,15.8-2.49-19.01-42.78-6.31,2.51Zm28.7,30.89h18v-11h-18v11Zm88.26-16.88l.74-18.12h-14l2,49h10l.84-20.48,12.59,7.86,6-12-18.16-6.25Zm-95.26-20.12l-7,2-2,11,4-1,5-12Zm3.29,10.49l5-12-7,2-2,11,4-1Zm65.27,13.21l-1.62-19.01-36.31,1.96-.29,10.68,28.11-1.04-29.12,27.46,9.98,5.91,15.39-13.66,19.5,15.8,3.8-13.8-17.74-6.94,8.29-7.36Z" style="fill:#e23737;"/></g></svg>