<svg xmlns="http://www.w3.org/2000/svg" viewBox="0 0 332.82 173.11"><defs><style>.cls-1{fill:none;stroke:#fff;stroke-width:2px;}.cls-2{fill:#33f;}.cls-3{fill:#fff;}.cls-4{fill:#e23737;}</style></defs><g id="レイヤー_2" data-name="レイヤー 2"><g id="メインタイトル"><path class="cls-1" d="M96.75,19.93a8.37,8.37,0,0,0,3,2.22A17.29,17.29,0,0,0,98,25.6,7.26,7.26,0,0,1,96,24a14.11,14.11,0,0,1-3.51,6,13.3,13.3,0,0,0-2.94-2.82,24.59,24.59,0,0,0,.12,3.09H85.35c.09-.93.15-2.22.15-3.87V22.9c0-.54,0-1.92.12-3.51a16.62,16.62,0,0,1-1.8,4.38A30.86,30.86,0,0,0,82.08,19a19.38,19.38,0,0,0,3.15-7.92h-.51a12.58,12.58,0,0,0-2,.15V6.94a7.62,7.62,0,0,0,2,.15h.75V5a30.59,30.59,0,0,0-.15-3.12h4.35A18.6,18.6,0,0,0,89.52,5V7.09h.39c.27,0,.45,0,.87,0-.21-.21-.3-.27-.54-.51l2.34-2.4.51.51a13.59,13.59,0,0,0,1.62-2.94L97.8,3.31a26.24,26.24,0,0,1-2.49,3.75,5.94,5.94,0,0,1,.51.63,16.54,16.54,0,0,0,1.59-2.4l1.38.87a34.85,34.85,0,0,0-.27-4.26h4.38a11,11,0,0,0-.12,1.77V4.84l.51-.63.48.45a11.7,11.7,0,0,0,1.68-2.85l3.09,1.71A32.3,32.3,0,0,1,106,6.91q.36.4.54.63a22.56,22.56,0,0,0,1.65-2.34l2.55,1.71a41.28,41.28,0,0,1-4.53,4.8c.93,0,1.35,0,2-.06-.15-.51-.21-.66-.42-1.23L110,9.85a29.06,29.06,0,0,1,1.26,4.74l-2.4.69c-.09-.54-.12-.69-.18-1.08-.63.06-.66.06-1.11.12a9.2,9.2,0,0,1,.72,1.44,12.19,12.19,0,0,0,2.46-.15v4.17c-.84-.09-2.19-.15-3.12-.15h-.9L109.38,21c-.51.69-.66.93-1.08,1.41a7.84,7.84,0,0,0,2.82,2.19,10.91,10.91,0,0,1-1.2,4.29A2.28,2.28,0,0,1,108.48,30a4.29,4.29,0,0,1-.63.12l-1-.09c-1-.21-2.28-1.2-3.66-2.94a24.58,24.58,0,0,1-5.85,3.12,13.11,13.11,0,0,0-2.28-3.69A17.28,17.28,0,0,0,101.31,24a21.88,21.88,0,0,1-1.38-4.35H96.75ZM89.55,27a9.93,9.93,0,0,0,3.39-7.35l-1.5.09V16.21c-.27.66-.39,1-.81,2.07a10.54,10.54,0,0,1-1.2-2.22q0,.32.09,2.88l0,7.44Zm1.74-15a4.67,4.67,0,0,0,.6,0h.27c1-1,1-1,1.5-1.62-1.2-1.5-1.5-1.86-2.19-2.61v3.42a1.24,1.24,0,0,0-.3,0A7.68,7.68,0,0,0,90,11.11h-.33A8.79,8.79,0,0,0,91.53,14Zm6.81,3.18c0-.24-.06-.48-.09-.78-1,.18-1.71.27-2.43.33l-3.66.42a4.13,4.13,0,0,0-.24.51,10.09,10.09,0,0,0,1.95.09h5.73c0-.45,0-.48-.09-.93ZM99,10.24c0-.54,0-1-.06-1.83-.12.15-.18.24-.24.3A35.52,35.52,0,0,1,95.76,12c.69,0,.84-.06,1.86-.18-.09-.42-.12-.57-.24-1.11Zm5.46-.27c-.69-.84-.84-1-1.59-1.83,0,1.35,0,1.92.12,3.3C103.86,10.57,104,10.42,104.43,10Zm.81,5.79a11.84,11.84,0,0,0-.57-1.2c-.48,0-.57.06-1.47.09.06.6.09,1,.12,1.11ZM104,19.63a14.1,14.1,0,0,0,.57,1.89A9.87,9.87,0,0,0,106,19.63Zm2.28,5c.6.72.9,1,1.11,1,.45,0,.63-.69.87-3.12A22.19,22.19,0,0,1,106.26,24.61Z" transform="translate(0 -0.32)"/><path class="cls-1" d="M137.64,7.66a25.32,25.32,0,0,0,2.94-.12c-.12,1.32-.12,1.32-.18,5.94-.12,8.88-.54,13.32-1.41,14.82-.75,1.32-1.86,1.65-5.37,1.65-.21,0-.54,0-.93,0a13.62,13.62,0,0,0-.51-3.33,21.64,21.64,0,0,1-2.4,3.93,15.75,15.75,0,0,0-1.59-1.86c-6.06.6-6.93.66-12.87,1.05-.54,0-1.11.09-2,.18l-.66-4.2a24.83,24.83,0,0,0,2.49.06c1.23,0,2.07,0,4-.06V24.55h-2.88c-1,0-2,0-2.91.09V21.28a25,25,0,0,0,2.94.12h2.85v-.9h-2.4c-1.47,0-2.13,0-3.06.06a23,23,0,0,0,.12-2.85v-4A22.84,22.84,0,0,0,113.7,11c.9.06,1.68.09,3.06.09h2.4v-.87h-3.33a26.09,26.09,0,0,0-2.91.12V6.76a25.75,25.75,0,0,0,2.91.12h3.33V6c-2.25.09-3.87.12-4.83.15A15,15,0,0,0,113,3c6.63-.06,11.82-.51,13.62-1.23l2.25,3.39-.42.06-.45,0a8.72,8.72,0,0,0-.93.12c-1,.12-1.35.15-4,.39V6.88h2.88a22,22,0,0,0,2.88-.12v.81a10.52,10.52,0,0,0,1.59.09h.39V4.84a12.39,12.39,0,0,0-.18-2.73h4.77c-.15.84-.15.84-.21,5.55ZM117.57,13.6v1h1.59v-1Zm0,3.3V18h1.59V16.9Zm10.74,7.29c1.47-2.76,2.1-6,2.4-12.27a17.75,17.75,0,0,0-1.89.09V10.27a8.7,8.7,0,0,0-1.89-.09h-3.87v.87H126a22.76,22.76,0,0,0,2.4-.06,18,18,0,0,0-.09,2.61v4.32c0,1.11,0,1.89.06,2.61-.75,0-1.08,0-2.61,0h-2.7v.9h2.34c1.53,0,2.1,0,2.91-.09Zm-5.25-9.57h1.59v-1h-1.59Zm0,3.36h1.59V16.9h-1.59Zm0,7.59c2.16-.09,2.16-.09,4.56-.27.18-.3.24-.36.42-.66a8.89,8.89,0,0,0-1.44-.09h-3.54Zm12-13.65c-.24,6.06-1,10.08-2.43,13.62a9.1,9.1,0,0,0,1.32.12c1.23,0,1.47-.36,1.77-2.64a102.07,102.07,0,0,0,.63-11.1Z" transform="translate(0 -0.32)"/><path class="cls-1" d="M149.61,26.77a32.37,32.37,0,0,0,.18,3.45H145a26,26,0,0,0,.18-3.45V18c0-.36,0-.36,0-1,0-.33,0-.51,0-1l-.42.57a11.14,11.14,0,0,1-1.11,1.35,28.27,28.27,0,0,0-1.5-5.52,18.22,18.22,0,0,0,4.08-6.93,17.65,17.65,0,0,0,1.05-3.87L152,2.92c-.12.36-.12.36-.36,1.2a36.19,36.19,0,0,1-2,5.16Zm3.9-3.06c-1.71,0-2.16,0-3,.09v-4c.75.06,1.05.09,2,.12V5.59c0-1.74,0-2-.06-2.85a26.92,26.92,0,0,0,2.85.09H166c1.65,0,2.13,0,2.85-.09a22.62,22.62,0,0,0-.12,2.88V20c1,0,1.41,0,2.19-.12v4a23.79,23.79,0,0,0-2.91-.12h-2.79a16.57,16.57,0,0,0,6.18,2.46,20.65,20.65,0,0,0-2.46,4,22.11,22.11,0,0,1-7.71-4.35l2-2.1h-5.52L160,25.78a21.59,21.59,0,0,1-7.68,4.29,15.42,15.42,0,0,0-2.58-3.78,15.91,15.91,0,0,0,6-2.58ZM157,7.51h7.29v-1H157Zm0,4.11h7.29v-1H157Zm0,4.14h7.29v-1H157Zm7.29,3.18H157v1h7.29Z" transform="translate(0 -0.32)"/><path class="cls-1" d="M192.87,14.05a25.39,25.39,0,0,0,.09,2.7c-.69-.06-1.41-.09-2.34-.09H189V18.1h7.53a27.24,27.24,0,0,0,3.78-.18v4.41a32.52,32.52,0,0,0-3.84-.18h-4.2a24.29,24.29,0,0,0,8.7,3.3,25.1,25.1,0,0,0-2.43,4.29,21.75,21.75,0,0,1-5.43-2.25,16.41,16.41,0,0,1-4.26-3.33c0,.21,0,.24,0,.42s0,.9,0,1.05V27a10.15,10.15,0,0,0,.3,3h-5a19.49,19.49,0,0,0,.21-3V25.66a12.08,12.08,0,0,1,.09-1.47A16.09,16.09,0,0,1,180,27.73a24.91,24.91,0,0,1-4.89,2,18.74,18.74,0,0,0-2.61-4.11,22.89,22.89,0,0,0,8.55-3.45H177a32,32,0,0,0-3.81.18V17.92a31.27,31.27,0,0,0,3.81.18h7.38V16.66H183c-1,0-1.71,0-2.37.09.06-.63.09-1.62.09-2.67V7a22.78,22.78,0,0,0-.09-2.58,16.78,16.78,0,0,0,2.43.09h.9a14.33,14.33,0,0,0,.9-2.91L189.6,2a18.9,18.9,0,0,0-.78,1.74c-.12.27-.18.42-.33.78h2A17,17,0,0,0,193,4.42,18,18,0,0,0,192.87,7v.39A21.78,21.78,0,0,0,197.22,3l3.39,3a42.54,42.54,0,0,1-4.83,4.62A32.64,32.64,0,0,1,201,13.54l-2.37,3.78a38.14,38.14,0,0,0-5.73-3.66Zm-12.21-.24a30.89,30.89,0,0,1-5.28,2.88c-.51.21-.93.42-1.29.6l-1.53-4.23a24.29,24.29,0,0,0,7-3.12ZM176,3a31.36,31.36,0,0,1,4.68,4.17l-2.91,3.45a22.17,22.17,0,0,0-4.71-4.5ZM184.83,9h3.87V7.81h-3.87Zm0,4.35h3.87V12.13h-3.87ZM195,10.21l-2.1-2.31v5.34Z" transform="translate(0 -0.32)"/><path class="cls-1" d="M215.22,4.39a19.61,19.61,0,0,0,2.64-.12V8.68a11.77,11.77,0,0,0-1.38-.12,24.25,24.25,0,0,1-.87,3.24,15,15,0,0,0,2.4-.12v4.53a15.87,15.87,0,0,0-2.16-.12h-10a20.92,20.92,0,0,0-3.15.15V11.65a16.59,16.59,0,0,0,2.91.15,31.94,31.94,0,0,0-.81-3.24c-.69,0-1.11.06-1.62.12V4.24a16.62,16.62,0,0,0,2.88.15h2.49V3.85a9.72,9.72,0,0,0-.15-1.95h4.92a9.29,9.29,0,0,0-.15,1.89v.6Zm-6.57,25.68h-4.56a21.55,21.55,0,0,0,.15-2.94V19.84a17.09,17.09,0,0,0-.12-2.4c.72.06,1.38.09,2.46.09H215a14.76,14.76,0,0,0,2.16-.09,13.54,13.54,0,0,0-.09,1.92v8.55a14.6,14.6,0,0,0,.12,2.13h-4.56V28.48h-3.93Zm0-5.67h3.93V21.61h-3.93Zm2.67-12.6A19.88,19.88,0,0,0,212,8.56h-2.76A19.55,19.55,0,0,1,210,11.8Zm19.8-6.39a24.38,24.38,0,0,0-1,2.58c-.57,1.59-1.44,3.72-2.37,5.73a15,15,0,0,1,2.43,4.2,11.47,11.47,0,0,1,.69,3.78c0,2.07-.84,3.54-2.37,4.14a8.75,8.75,0,0,1-3.27.48c-.15,0-.51,0-1,0a8.81,8.81,0,0,0-1-4.53c.69.06,1,.09,1.26.09,1.29,0,1.74-.3,1.74-1.14a8.71,8.71,0,0,0-.75-3.3A13,13,0,0,0,223.35,14a29.32,29.32,0,0,0,2.43-7h-2.64v19.5a26.7,26.7,0,0,0,.18,3.66h-4.77c.09-1.14.15-2.34.15-3.51V4.87c0-.93,0-1.5-.09-2.28a21.64,21.64,0,0,0,2.49.12h5.58a13,13,0,0,0,2.46-.15Z" transform="translate(0 -0.32)"/><path class="cls-2" d="M96.75,19.93a8.37,8.37,0,0,0,3,2.22A17.29,17.29,0,0,0,98,25.6,7.26,7.26,0,0,1,96,24a14.11,14.11,0,0,1-3.51,6,13.3,13.3,0,0,0-2.94-2.82,24.59,24.59,0,0,0,.12,3.09H85.35c.09-.93.15-2.22.15-3.87V22.9c0-.54,0-1.92.12-3.51a16.62,16.62,0,0,1-1.8,4.38A30.86,30.86,0,0,0,82.08,19a19.38,19.38,0,0,0,3.15-7.92h-.51a12.58,12.58,0,0,0-2,.15V6.94a7.62,7.62,0,0,0,2,.15h.75V5a30.59,30.59,0,0,0-.15-3.12h4.35A18.6,18.6,0,0,0,89.52,5V7.09h.39c.27,0,.45,0,.87,0-.21-.21-.3-.27-.54-.51l2.34-2.4.51.51a13.59,13.59,0,0,0,1.62-2.94L97.8,3.31a26.24,26.24,0,0,1-2.49,3.75,5.94,5.94,0,0,1,.51.63,16.54,16.54,0,0,0,1.59-2.4l1.38.87a34.85,34.85,0,0,0-.27-4.26h4.38a11,11,0,0,0-.12,1.77V4.84l.51-.63.48.45a11.7,11.7,0,0,0,1.68-2.85l3.09,1.71A32.3,32.3,0,0,1,106,6.91q.36.4.54.63a22.56,22.56,0,0,0,1.65-2.34l2.55,1.71a41.28,41.28,0,0,1-4.53,4.8c.93,0,1.35,0,2-.06-.15-.51-.21-.66-.42-1.23L110,9.85a29.06,29.06,0,0,1,1.26,4.74l-2.4.69c-.09-.54-.12-.69-.18-1.08-.63.06-.66.06-1.11.12a9.2,9.2,0,0,1,.72,1.44,12.19,12.19,0,0,0,2.46-.15v4.17c-.84-.09-2.19-.15-3.12-.15h-.9L109.38,21c-.51.69-.66.93-1.08,1.41a7.84,7.84,0,0,0,2.82,2.19,10.91,10.91,0,0,1-1.2,4.29A2.28,2.28,0,0,1,108.48,30a4.29,4.29,0,0,1-.63.12l-1-.09c-1-.21-2.28-1.2-3.66-2.94a24.58,24.58,0,0,1-5.85,3.12,13.11,13.11,0,0,0-2.28-3.69A17.28,17.28,0,0,0,101.31,24a21.88,21.88,0,0,1-1.38-4.35H96.75ZM89.55,27a9.93,9.93,0,0,0,3.39-7.35l-1.5.09V16.21c-.27.66-.39,1-.81,2.07a10.54,10.54,0,0,1-1.2-2.22q0,.32.09,2.88l0,7.44Zm1.74-15a4.67,4.67,0,0,0,.6,0h.27c1-1,1-1,1.5-1.62-1.2-1.5-1.5-1.86-2.19-2.61v3.42a1.24,1.24,0,0,0-.3,0A7.68,7.68,0,0,0,90,11.11h-.33A8.79,8.79,0,0,0,91.53,14Zm6.81,3.18c0-.24-.06-.48-.09-.78-1,.18-1.71.27-2.43.33l-3.66.42a4.13,4.13,0,0,0-.24.51,10.09,10.09,0,0,0,1.95.09h5.73c0-.45,0-.48-.09-.93ZM99,10.24c0-.54,0-1-.06-1.83-.12.15-.18.24-.24.3A35.52,35.52,0,0,1,95.76,12c.69,0,.84-.06,1.86-.18-.09-.42-.12-.57-.24-1.11Zm5.46-.27c-.69-.84-.84-1-1.59-1.83,0,1.35,0,1.92.12,3.3C103.86,10.57,104,10.42,104.43,10Zm.81,5.79a11.84,11.84,0,0,0-.57-1.2c-.48,0-.57.06-1.47.09.06.6.09,1,.12,1.11ZM104,19.63a14.1,14.1,0,0,0,.57,1.89A9.87,9.87,0,0,0,106,19.63Zm2.28,5c.6.72.9,1,1.11,1,.45,0,.63-.69.87-3.12A22.19,22.19,0,0,1,106.26,24.61Z" transform="translate(0 -0.32)"/><path class="cls-2" d="M137.64,7.66a25.32,25.32,0,0,0,2.94-.12c-.12,1.32-.12,1.32-.18,5.94-.12,8.88-.54,13.32-1.41,14.82-.75,1.32-1.86,1.65-5.37,1.65-.21,0-.54,0-.93,0a13.62,13.62,0,0,0-.51-3.33,21.64,21.64,0,0,1-2.4,3.93,15.75,15.75,0,0,0-1.59-1.86c-6.06.6-6.93.66-12.87,1.05-.54,0-1.11.09-2,.18l-.66-4.2a24.83,24.83,0,0,0,2.49.06c1.23,0,2.07,0,4-.06V24.55h-2.88c-1,0-2,0-2.91.09V21.28a25,25,0,0,0,2.94.12h2.85v-.9h-2.4c-1.47,0-2.13,0-3.06.06a23,23,0,0,0,.12-2.85v-4A22.84,22.84,0,0,0,113.7,11c.9.06,1.68.09,3.06.09h2.4v-.87h-3.33a26.09,26.09,0,0,0-2.91.12V6.76a25.75,25.75,0,0,0,2.91.12h3.33V6c-2.25.09-3.87.12-4.83.15A15,15,0,0,0,113,3c6.63-.06,11.82-.51,13.62-1.23l2.25,3.39-.42.06-.45,0a8.72,8.72,0,0,0-.93.12c-1,.12-1.35.15-4,.39V6.88h2.88a22,22,0,0,0,2.88-.12v.81a10.52,10.52,0,0,0,1.59.09h.39V4.84a12.39,12.39,0,0,0-.18-2.73h4.77c-.15.84-.15.84-.21,5.55ZM117.57,13.6v1h1.59v-1Zm0,3.3V18h1.59V16.9Zm10.74,7.29c1.47-2.76,2.1-6,2.4-12.27a17.75,17.75,0,0,0-1.89.09V10.27a8.7,8.7,0,0,0-1.89-.09h-3.87v.87H126a22.76,22.76,0,0,0,2.4-.06,18,18,0,0,0-.09,2.61v4.32c0,1.11,0,1.89.06,2.61-.75,0-1.08,0-2.61,0h-2.7v.9h2.34c1.53,0,2.1,0,2.91-.09Zm-5.25-9.57h1.59v-1h-1.59Zm0,3.36h1.59V16.9h-1.59Zm0,7.59c2.16-.09,2.16-.09,4.56-.27.18-.3.24-.36.42-.66a8.89,8.89,0,0,0-1.44-.09h-3.54Zm12-13.65c-.24,6.06-1,10.08-2.43,13.62a9.1,9.1,0,0,0,1.32.12c1.23,0,1.47-.36,1.77-2.64a102.07,102.07,0,0,0,.63-11.1Z" transform="translate(0 -0.32)"/><path class="cls-2" d="M149.61,26.77a32.37,32.37,0,0,0,.18,3.45H145a26,26,0,0,0,.18-3.45V18c0-.36,0-.36,0-1,0-.33,0-.51,0-1l-.42.57a11.14,11.14,0,0,1-1.11,1.35,28.27,28.27,0,0,0-1.5-5.52,18.22,18.22,0,0,0,4.08-6.93,17.65,17.65,0,0,0,1.05-3.87L152,2.92c-.12.36-.12.36-.36,1.2a36.19,36.19,0,0,1-2,5.16Zm3.9-3.06c-1.71,0-2.16,0-3,.09v-4c.75.06,1.05.09,2,.12V5.59c0-1.74,0-2-.06-2.85a26.92,26.92,0,0,0,2.85.09H166c1.65,0,2.13,0,2.85-.09a22.62,22.62,0,0,0-.12,2.88V20c1,0,1.41,0,2.19-.12v4a23.79,23.79,0,0,0-2.91-.12h-2.79a16.57,16.57,0,0,0,6.18,2.46,20.65,20.65,0,0,0-2.46,4,22.11,22.11,0,0,1-7.71-4.35l2-2.1h-5.52L160,25.78a21.59,21.59,0,0,1-7.68,4.29,15.42,15.42,0,0,0-2.58-3.78,15.91,15.91,0,0,0,6-2.58ZM157,7.51h7.29v-1H157Zm0,4.11h7.29v-1H157Zm0,4.14h7.29v-1H157Zm7.29,3.18H157v1h7.29Z" transform="translate(0 -0.32)"/><path class="cls-2" d="M192.87,14.05a25.39,25.39,0,0,0,.09,2.7c-.69-.06-1.41-.09-2.34-.09H189V18.1h7.53a27.24,27.24,0,0,0,3.78-.18v4.41a32.52,32.52,0,0,0-3.84-.18h-4.2a24.29,24.29,0,0,0,8.7,3.3,25.1,25.1,0,0,0-2.43,4.29,21.75,21.75,0,0,1-5.43-2.25,16.41,16.41,0,0,1-4.26-3.33c0,.21,0,.24,0,.42s0,.9,0,1.05V27a10.15,10.15,0,0,0,.3,3h-5a19.49,19.49,0,0,0,.21-3V25.66a12.08,12.08,0,0,1,.09-1.47A16.09,16.09,0,0,1,180,27.73a24.91,24.91,0,0,1-4.89,2,18.74,18.74,0,0,0-2.61-4.11,22.89,22.89,0,0,0,8.55-3.45H177a32,32,0,0,0-3.81.18V17.92a31.27,31.27,0,0,0,3.81.18h7.38V16.66H183c-1,0-1.71,0-2.37.09.06-.63.09-1.62.09-2.67V7a22.78,22.78,0,0,0-.09-2.58,16.78,16.78,0,0,0,2.43.09h.9a14.33,14.33,0,0,0,.9-2.91L189.6,2a18.9,18.9,0,0,0-.78,1.74c-.12.27-.18.42-.33.78h2A17,17,0,0,0,193,4.42,18,18,0,0,0,192.87,7v.39A21.78,21.78,0,0,0,197.22,3l3.39,3a42.54,42.54,0,0,1-4.83,4.62A32.64,32.64,0,0,1,201,13.54l-2.37,3.78a38.14,38.14,0,0,0-5.73-3.66Zm-12.21-.24a30.89,30.89,0,0,1-5.28,2.88c-.51.21-.93.42-1.29.6l-1.53-4.23a24.29,24.29,0,0,0,7-3.12ZM176,3a31.36,31.36,0,0,1,4.68,4.17l-2.91,3.45a22.17,22.17,0,0,0-4.71-4.5ZM184.83,9h3.87V7.81h-3.87Zm0,4.35h3.87V12.13h-3.87ZM195,10.21l-2.1-2.31v5.34Z" transform="translate(0 -0.32)"/><path class="cls-2" d="M215.22,4.39a19.61,19.61,0,0,0,2.64-.12V8.68a11.77,11.77,0,0,0-1.38-.12,24.25,24.25,0,0,1-.87,3.24,15,15,0,0,0,2.4-.12v4.53a15.87,15.87,0,0,0-2.16-.12h-10a20.92,20.92,0,0,0-3.15.15V11.65a16.59,16.59,0,0,0,2.91.15,31.94,31.94,0,0,0-.81-3.24c-.69,0-1.11.06-1.62.12V4.24a16.62,16.62,0,0,0,2.88.15h2.49V3.85a9.72,9.72,0,0,0-.15-1.95h4.92a9.29,9.29,0,0,0-.15,1.89v.6Zm-6.57,25.68h-4.56a21.55,21.55,0,0,0,.15-2.94V19.84a17.09,17.09,0,0,0-.12-2.4c.72.06,1.38.09,2.46.09H215a14.76,14.76,0,0,0,2.16-.09,13.54,13.54,0,0,0-.09,1.92v8.55a14.6,14.6,0,0,0,.12,2.13h-4.56V28.48h-3.93Zm0-5.67h3.93V21.61h-3.93Zm2.67-12.6A19.88,19.88,0,0,0,212,8.56h-2.76A19.55,19.55,0,0,1,210,11.8Zm19.8-6.39a24.38,24.38,0,0,0-1,2.58c-.57,1.59-1.44,3.72-2.37,5.73a15,15,0,0,1,2.43,4.2,11.47,11.47,0,0,1,.69,3.78c0,2.07-.84,3.54-2.37,4.14a8.75,8.75,0,0,1-3.27.48c-.15,0-.51,0-1,0a8.81,8.81,0,0,0-1-4.53c.69.06,1,.09,1.26.09,1.29,0,1.74-.3,1.74-1.14a8.71,8.71,0,0,0-.75-3.3A13,13,0,0,0,223.35,14a29.32,29.32,0,0,0,2.43-7h-2.64v19.5a26.7,26.7,0,0,0,.18,3.66h-4.77c.09-1.14.15-2.34.15-3.51V4.87c0-.93,0-1.5-.09-2.28a21.64,21.64,0,0,0,2.49.12h5.58a13,13,0,0,0,2.46-.15Z" transform="translate(0 -0.32)"/><g id="緑_Gブレイバー" data-name="緑 Gブレイバー"><path class="cls-3" d="M9.05,97.62,0,18.44,64.15,40.2V68.48H53.61L48,53.83,30.79,45.74,26.54,85l10.25,24.61L49.9,90l-8.78,3.3V81.11L67.38,74l3.45,47.18-14.31,9.11,1.65-32.05L47.33,121.3,25.06,135.37Zm251.39-60,13.22-10.75,32.44,80.37-28.22,21.22ZM222,105.42,243.83,47.5l13.4-5.9-11.85,79ZM77.69,101.63l31.48-19.3V69.75l-39-6v-18l59,10.35V90.42L90,117.25Zm124.5,9.09-1-44.24L181.69,69,178.38,55.5l51.93-14.29,2.78,21.18L214,64.85l5.58,49.29Zm-55-15.35V51.89h16v27l13.92-10.78,6.72,15.14L157,103.41ZM302.44,84.83V74.6l28.35-9.45V94.28ZM124.36,53.64l-5.67-18.15,10.39,2.6,2.3,18.36Zm9.92,0-3.36-19.06,10.25,2.56V56.37Zm157.89-30.9,18.69-3.2-9.63,28-12.38,3.31Zm22-10.42,18.68-3.2-9.63,28-12.37,3.31Z" transform="translate(0 -0.32)"/><path class="cls-3" d="M9.05,97.62,0,18.44,64.15,40.2V68.48H53.61L48,53.83,30.79,45.74,26.54,85l10.25,24.61L49.9,90l-8.78,3.3V81.11L67.38,74l3.45,47.18-14.31,9.11,1.65-32.05L47.33,121.3,25.06,135.37Zm251.39-60,13.22-10.75,32.44,80.37-28.22,21.22ZM222,105.42,243.83,47.5l13.4-5.9-11.85,79ZM77.69,101.63l31.48-19.3V69.75l-39-6v-18l59,10.35V90.42L90,117.25Zm124.5,9.09-1-44.24L181.69,69,178.38,55.5l51.93-14.29,2.78,21.18L214,64.85l5.58,49.29Zm-55-15.35V51.89h16v27l13.92-10.78,6.72,15.14L157,103.41ZM302.44,84.83V74.6l28.35-9.45V94.28ZM124.36,53.64l-5.67-18.15,10.39,2.6,2.3,18.36Zm9.92,0-3.36-19.06,10.25,2.56V56.37Zm157.89-30.9,18.69-3.2-9.63,28-12.38,3.31Zm22-10.42,18.68-3.2-9.63,28-12.37,3.31Z" transform="translate(0 -0.32)"/></g><g id="Gブレイバー"><path class="cls-4" d="M71.17,62.89l39,6v14l-31,19,11,14,38-26v-33l-57-10Zm49-26,5,16,5,2-2-16Zm42,44v-28h-14v42l8.89,7.25,25.52-19.25-5.89-13.24ZM232,61.53l-2.5-19.05L179.58,56.21l2.87,11.67,19.75-2.53,1,44.54,15.23,3L212.87,64ZM223.17,105l21.45,13.87L256,43.25l-11.35,5Zm38.37-67,17,88.68,26.33-19.8-31.65-78.4Zm47.82-17.23-16.28,2.79L290,49.44l10.44-2.79Zm-5.92,63.33,26.35,8.78V66.54l-26.35,8.78ZM42.12,81.87v10L52.45,88l-15.86,23.8L25.52,85.19,30,44.24,48.77,53.1,54.3,67.48h8.85V40.92l-62-21L10,97.37l15.49,36.52,21-13.28L59.43,93.15l-1.81,35.21,12.17-7.75L66.47,75.23Zm93-29,5,2v-17l-8-2ZM331.33,10.36,315,13.15,312,39l10.44-2.79Z" transform="translate(0 -0.32)"/></g><g id="縁_バースト" data-name="縁 バースト"><path class="cls-3" d="M179.9,157.2l-15.3,13.58-11.75-6.95L181,137.28l-26.52,1,.34-12.66,38.2-2.06L194.77,144l-7.45,6.61,17.06,6.67-4.45,16.14Zm28.31,14.69-2.08-51h16.08l-.75,18.42L240,145.69l-7,14-12.06-7.53-.81,19.72Zm-130.64-5,15-45.24,9.92,2.57-8.09,46.21Zm24.74-41.54,8-3.18,4.82,10.84,2.17-12,9.59-2.74-.4,1,8.69-2.48-6,14.38-6,1.5L125,123l-4.07,9.76-5.32,1.33,14.66,33-18,2.84Zm28.86,32.5v-13h20v13Z" transform="translate(0 -0.32)"/><path class="cls-3" d="M179.9,157.2l-15.3,13.58-11.75-6.95L181,137.28l-26.52,1,.34-12.66,38.2-2.06L194.77,144l-7.45,6.61,17.06,6.67-4.45,16.14Zm28.31,14.69-2.08-51h16.08l-.75,18.42L240,145.69l-7,14-12.06-7.53-.81,19.72Zm-130.64-5,15-45.24,9.92,2.57-8.09,46.21Zm24.74-41.54,8-3.18,4.82,10.84,2.17-12,9.59-2.74-.4,1,8.69-2.48-6,14.38-6,1.5L125,123l-4.07,9.76-5.32,1.33,14.66,33-18,2.84Zm28.86,32.5v-13h20v13Z" transform="translate(0 -0.32)"/></g><g id="バースト"><path class="cls-4" d="M78.87,166.18l14.67,3.1L101.3,125l-8.13-2.11ZM103.47,126,113,168.77l15.8-2.5-19-42.78Zm28.7,30.89h18v-11h-18ZM220.43,140l.74-18.12h-14l2,49h10l.84-20.48,12.59,7.86,6-12Zm-95.26-20.12-7,2-2,11,4-1Zm3.29,10.49,5-12-7,2-2,11Zm65.27,13.21-1.63-19-36.3,2-.29,10.68,28.11-1-29.11,27.46,10,5.91,15.38-13.66,19.5,15.8,3.8-13.8L185.44,151Z" transform="translate(0 -0.32)"/></g></g></g></svg>