<?xml version="1.0" encoding="UTF-8"?>
<svg id="a" data-name="レイヤー 1" xmlns="http://www.w3.org/2000/svg" width="512" height="512" xmlns:xlink="http://www.w3.org/1999/xlink" viewBox="0 0 512 512">
  <defs>
    <style>
      .c {
        fill: url(#b);
      }

      .d {
        fill: none;
        stroke: #2f4f4f;
        stroke-miterlimit: 10;
        stroke-width: 20px;
      }
    </style>
    <linearGradient id="b" data-name="名称未設定グラデーション 33" x1="259.75" y1="331.81" x2="259.75" y2="79.21" gradientTransform="matrix(1, 0, 0, 1, 0, 0)" gradientUnits="userSpaceOnUse">
      <stop offset="0" stop-color="#43e97b"/>
      <stop offset="1" stop-color="#38f9d7"/>
    </linearGradient>
  </defs>
  <path d="M279.15,292.48c-33.2,46.4-82.8,77.6-156.8,98.8-10-19.6-16.8-29.6-32-46.4,36.4-7.6,58-14.8,81.2-26.8,16.8-8.4,27.2-15.6,37.6-25.6h-30.8c-20.8,13.2-36.8,20-70,30.8-10.4-21.6-15.6-30-30.8-46.8,48-11.2,79.2-26.8,101.2-50.4h-9.6c-22,0-31.2,.4-43.6,1.2,1.2-12.8,2-23.6,2-45.6V115.68c0-22-.4-32-2-45.2,14.4,1.2,25.6,1.6,50.4,1.6h185.2c24.8,0,36-.4,50.4-1.6-1.2,13.2-1.6,21.6-1.6,45.2v66c0,23.6,.4,32.4,1.6,45.6-12.4-.8-22-1.2-44-1.2h-119.6c-6,7.6-7.6,9.6-12.4,15.6h174.4c18.8,0,24,0,32-1.2-.8,7.6-1.2,8.4-2.4,44-.8,18-5.6,68.8-7.6,84.8-4.8,31.2-10.8,44.4-24.4,54-12.8,9.2-30.8,12.8-61.2,12.8-8.4,0-20.8-.4-38-1.6-2-20.4-5.6-35.2-12.4-50.8-32.4,26-60.4,41.6-104.8,56.8-12-19.2-20-29.2-36-44.8,51.2-15.2,78.8-29.2,106.8-53.2,18.4-15.6,32-32,41.2-50h-24Zm-92-160.4h161.6v-15.6H187.15v15.6Zm0,53.2h161.6v-16H187.15v16Zm176,107.2c-16.4,37.2-33.2,61.2-60,84.8,14.8,2,26,3.2,35.6,3.2,18.8,0,22-1.2,25.2-8.8,6.4-15.2,10.8-43.6,12.4-79.2h-13.2Z" style="fill: none; stroke: #2f4f4f; stroke-miterlimit: 10; stroke-width: 20px;"/>
  <path d="M279.15,292.48c-33.2,46.4-82.8,77.6-156.8,98.8-10-19.6-16.8-29.6-32-46.4,36.4-7.6,58-14.8,81.2-26.8,16.8-8.4,27.2-15.6,37.6-25.6h-30.8c-20.8,13.2-36.8,20-70,30.8-10.4-21.6-15.6-30-30.8-46.8,48-11.2,79.2-26.8,101.2-50.4h-9.6c-22,0-31.2,.4-43.6,1.2,1.2-12.8,2-23.6,2-45.6V115.68c0-22-.4-32-2-45.2,14.4,1.2,25.6,1.6,50.4,1.6h185.2c24.8,0,36-.4,50.4-1.6-1.2,13.2-1.6,21.6-1.6,45.2v66c0,23.6,.4,32.4,1.6,45.6-12.4-.8-22-1.2-44-1.2h-119.6c-6,7.6-7.6,9.6-12.4,15.6h174.4c18.8,0,24,0,32-1.2-.8,7.6-1.2,8.4-2.4,44-.8,18-5.6,68.8-7.6,84.8-4.8,31.2-10.8,44.4-24.4,54-12.8,9.2-30.8,12.8-61.2,12.8-8.4,0-20.8-.4-38-1.6-2-20.4-5.6-35.2-12.4-50.8-32.4,26-60.4,41.6-104.8,56.8-12-19.2-20-29.2-36-44.8,51.2-15.2,78.8-29.2,106.8-53.2,18.4-15.6,32-32,41.2-50h-24Zm-92-160.4h161.6v-15.6H187.15v15.6Zm0,53.2h161.6v-16H187.15v16Zm176,107.2c-16.4,37.2-33.2,61.2-60,84.8,14.8,2,26,3.2,35.6,3.2,18.8,0,22-1.2,25.2-8.8,6.4-15.2,10.8-43.6,12.4-79.2h-13.2Z" style="fill: url(#b);"/>
</svg>