<?xml version="1.0" encoding="UTF-8"?>
<svg id="a" data-name="レイヤー 1" xmlns="http://www.w3.org/2000/svg" width="512" height="512" xmlns:xlink="http://www.w3.org/1999/xlink" viewBox="0 0 512 512">
  <defs>
    <style>
      .c {
        fill: url(#b);
      }

      .d {
        fill: none;
        stroke: #2f4f4f;
        stroke-miterlimit: 10;
        stroke-width: 20px;
      }
    </style>
    <linearGradient id="b" data-name="名称未設定グラデーション 6" x1="256" y1="334.76" x2="256" y2="75.88" gradientTransform="matrix(1, 0, 0, 1, 0, 0)" gradientUnits="userSpaceOnUse">
      <stop offset="0" stop-color="#fd0"/>
      <stop offset="1" stop-color="#fbb034"/>
    </linearGradient>
  </defs>
  <path d="M163,100.13c-5.2-8.8-9.2-14.8-16-23.6l61.2-9.6c8.8,12,13.6,19.6,21.2,33.2h52.4c8.4-14,12.4-22.4,17.2-33.2l64.8,10c-6,9.2-11.6,16.4-16.8,23.2h34.8c21.2,0,33.6-.8,47.2-2.4v54.8c-10-1.2-19.6-1.6-35.2-1.6h-26.4l44,13.6c-7.6,16.4-14,28.8-21.6,41.2h7.6c19.6,0,30.4-.4,41.6-2v55.2c-13.6-1.6-20.4-2-41.6-2H115c-18.8,0-29.2,.4-42,2v-55.2c11.2,1.6,22,2,42,2h7.2c-8.4-17.6-14-27.6-24-41.2l41.2-13.6h-19.6c-15.2,0-25.6,.4-36.8,1.6v-54.8c13.6,1.6,25.6,2.4,46.4,2.4h33.6Zm-49.6,210c0-20.8-.4-30.8-1.6-41.2,13.2,1.2,24,1.6,39.2,1.6h208.4c18.8,0,26.8-.4,39.6-1.6-1.2,9.6-1.6,19.6-1.6,41.2v87.6c0,20.8,.8,36.8,2.4,48.4h-63.6v-13.2H174.6v13.2h-63.6c1.6-12,2.4-27.2,2.4-47.2v-88.8Zm76.4-104.4v-54.8h-36.8c8.8,12.4,12.8,19.2,23.6,41.2l-41.6,13.6h54.8Zm-15.2,124.4h161.6v-16H174.6v16Zm0,57.6h161.6v-16H174.6v16Zm90.4-182v-54.8h-19.2v54.8h19.2Zm108,0l-39.2-11.2c9.6-16.4,14.4-27.2,20-43.6h-32.8v54.8h52Z" style="fill: none; stroke: #2f4f4f; stroke-miterlimit: 10; stroke-width: 20px;"/>
  <path d="M163,100.13c-5.2-8.8-9.2-14.8-16-23.6l61.2-9.6c8.8,12,13.6,19.6,21.2,33.2h52.4c8.4-14,12.4-22.4,17.2-33.2l64.8,10c-6,9.2-11.6,16.4-16.8,23.2h34.8c21.2,0,33.6-.8,47.2-2.4v54.8c-10-1.2-19.6-1.6-35.2-1.6h-26.4l44,13.6c-7.6,16.4-14,28.8-21.6,41.2h7.6c19.6,0,30.4-.4,41.6-2v55.2c-13.6-1.6-20.4-2-41.6-2H115c-18.8,0-29.2,.4-42,2v-55.2c11.2,1.6,22,2,42,2h7.2c-8.4-17.6-14-27.6-24-41.2l41.2-13.6h-19.6c-15.2,0-25.6,.4-36.8,1.6v-54.8c13.6,1.6,25.6,2.4,46.4,2.4h33.6Zm-49.6,210c0-20.8-.4-30.8-1.6-41.2,13.2,1.2,24,1.6,39.2,1.6h208.4c18.8,0,26.8-.4,39.6-1.6-1.2,9.6-1.6,19.6-1.6,41.2v87.6c0,20.8,.8,36.8,2.4,48.4h-63.6v-13.2H174.6v13.2h-63.6c1.6-12,2.4-27.2,2.4-47.2v-88.8Zm76.4-104.4v-54.8h-36.8c8.8,12.4,12.8,19.2,23.6,41.2l-41.6,13.6h54.8Zm-15.2,124.4h161.6v-16H174.6v16Zm0,57.6h161.6v-16H174.6v16Zm90.4-182v-54.8h-19.2v54.8h19.2Zm108,0l-39.2-11.2c9.6-16.4,14.4-27.2,20-43.6h-32.8v54.8h52Z" style="fill: url(#b);"/>
</svg>