<?xml version="1.0" encoding="UTF-8"?>
<svg id="a" data-name="レイヤー 1" xmlns="http://www.w3.org/2000/svg" width="512" height="512" xmlns:xlink="http://www.w3.org/1999/xlink" viewBox="0 0 512 512">
  <defs>
    <style>
      .c {
        fill: url(#b);
      }

      .d {
        fill: none;
        stroke: #2f4f4f;
        stroke-miterlimit: 10;
        stroke-width: 20px;
      }
    </style>
    <linearGradient id="b" data-name="名称未設定グラデーション 62" x1="256.63" y1="332.34" x2="256.63" y2="75.64" gradientTransform="matrix(1, 0, 0, 1, 0, 0)" gradientUnits="userSpaceOnUse">
      <stop offset="0" stop-color="#ff0844"/>
      <stop offset="1" stop-color="#ff845e"/>
    </linearGradient>
  </defs>
  <path d="M169.84,298.76c-10,0-18,.4-27.6,1.2v-49.2c11.2,1.6,17.2,2,29.6,2h24.8v-15.2h-12c-13.6,0-21.6,.4-30.8,1.2,.8-8,.8-12,1.2-20.4l-34,46c-20.8-23.2-34.4-35.2-61.2-52.8l36.4-43.2c24.4,14.4,40.8,27.2,58.8,45.2,.4-9.2,.4-11.6,.4-16.8v-53.6c0-6,0-7.6-.4-12.4l-26,31.2c-20.8-22-34-33.2-61.2-51.6l40-43.6c19.6,12.8,31.2,21.6,46,34.4,10.8,1.2,18.4,1.6,34,1.6,6.8-13.6,10-21.6,12-34l60.8,5.2q-2,4.4-6,13.2c-2,4.4-5.2,10.4-8.4,15.6h11.6c18.4,0,28-.4,38-1.6-1.2,10.4-1.2,19.2-1.2,41.6v37.6c19.2-36.4,29.6-70.4,34.8-112.8l58.4,10c-1.6,4.4-2,6-4,14.4-.8,4-4.8,18.4-11.6,42.4h42.8c14.4,0,21.6-.4,29.6-2.4v54.4c-6-1.2-8-1.2-17.2-1.6-2,40.8-2.8,48.4-6,69.6-4.4,30.4-10.8,53.2-20.8,77.2,17.2,20,30,31.2,52.8,46.8-12,18.8-18.4,31.6-29.2,59.6-23.6-17.6-35.2-28.8-54-52-16.8,24-28.4,36.8-50,54.8-8.8-16.4-16.8-28.4-27.2-40.4-5.6,30.4-14,36.4-48.8,36.4-3.6,0-16.4-.4-23.6-.8-1.2-21.2-2.8-28.4-10-48.8,8,.8,16,1.2,21.2,1.2,8.8,0,10.4-.8,12-4.8,1.6-4.4,2.8-17.2,3.2-28.4h-24.8c-10,36.8-26.4,63.6-52.8,87.6-12.4-20-19.2-28-36.4-44,30.4-26.8,42-53.2,44.4-100h-7.6Zm-14.8,12.4c-17.6,64.8-26.8,90.8-44.4,128.4l-48.8-40.8c16.4-24.4,30.4-62.4,44.8-121.6l48.4,34Zm51.6-157.2h37.6v-14h-37.6v14Zm0,48.4h37.6v-14.8h-37.6v14.8Zm24.4,96.4q-.4,9.2-1.2,14.8h42.4c12.4,0,20.8-.4,28.4-1.2-.8,5.2-1.2,8.8-1.2,21.2-.4,13.2-2,32.4-3.6,48.4,15.2-13.2,29.2-29.2,41.2-48-12.8-26.4-20.8-50.8-25.6-77.2-2.4,3.6-5.2,7.6-7.6,11.2v32c-9.6-.8-16.4-1.2-28-1.2h-44.8Zm48-46c5.6,0,9.6,0,15.2-.8-3.6-5.6-5.2-8-10.4-14-5.2-.4-8-.4-11.2-.4h-21.6v15.2h28Zm74.8-68c-2.4,5.6-3.6,7.6-6.4,13.2,2.8,30.8,6.4,46.4,17.2,74,6.4-25.6,8.8-50.8,9.2-87.2h-20Z" style="fill: none; stroke: #2f4f4f; stroke-miterlimit: 10; stroke-width: 20px;"/>
  <path d="M169.84,298.76c-10,0-18,.4-27.6,1.2v-49.2c11.2,1.6,17.2,2,29.6,2h24.8v-15.2h-12c-13.6,0-21.6,.4-30.8,1.2,.8-8,.8-12,1.2-20.4l-34,46c-20.8-23.2-34.4-35.2-61.2-52.8l36.4-43.2c24.4,14.4,40.8,27.2,58.8,45.2,.4-9.2,.4-11.6,.4-16.8v-53.6c0-6,0-7.6-.4-12.4l-26,31.2c-20.8-22-34-33.2-61.2-51.6l40-43.6c19.6,12.8,31.2,21.6,46,34.4,10.8,1.2,18.4,1.6,34,1.6,6.8-13.6,10-21.6,12-34l60.8,5.2q-2,4.4-6,13.2c-2,4.4-5.2,10.4-8.4,15.6h11.6c18.4,0,28-.4,38-1.6-1.2,10.4-1.2,19.2-1.2,41.6v37.6c19.2-36.4,29.6-70.4,34.8-112.8l58.4,10c-1.6,4.4-2,6-4,14.4-.8,4-4.8,18.4-11.6,42.4h42.8c14.4,0,21.6-.4,29.6-2.4v54.4c-6-1.2-8-1.2-17.2-1.6-2,40.8-2.8,48.4-6,69.6-4.4,30.4-10.8,53.2-20.8,77.2,17.2,20,30,31.2,52.8,46.8-12,18.8-18.4,31.6-29.2,59.6-23.6-17.6-35.2-28.8-54-52-16.8,24-28.4,36.8-50,54.8-8.8-16.4-16.8-28.4-27.2-40.4-5.6,30.4-14,36.4-48.8,36.4-3.6,0-16.4-.4-23.6-.8-1.2-21.2-2.8-28.4-10-48.8,8,.8,16,1.2,21.2,1.2,8.8,0,10.4-.8,12-4.8,1.6-4.4,2.8-17.2,3.2-28.4h-24.8c-10,36.8-26.4,63.6-52.8,87.6-12.4-20-19.2-28-36.4-44,30.4-26.8,42-53.2,44.4-100h-7.6Zm-14.8,12.4c-17.6,64.8-26.8,90.8-44.4,128.4l-48.8-40.8c16.4-24.4,30.4-62.4,44.8-121.6l48.4,34Zm51.6-157.2h37.6v-14h-37.6v14Zm0,48.4h37.6v-14.8h-37.6v14.8Zm24.4,96.4q-.4,9.2-1.2,14.8h42.4c12.4,0,20.8-.4,28.4-1.2-.8,5.2-1.2,8.8-1.2,21.2-.4,13.2-2,32.4-3.6,48.4,15.2-13.2,29.2-29.2,41.2-48-12.8-26.4-20.8-50.8-25.6-77.2-2.4,3.6-5.2,7.6-7.6,11.2v32c-9.6-.8-16.4-1.2-28-1.2h-44.8Zm48-46c5.6,0,9.6,0,15.2-.8-3.6-5.6-5.2-8-10.4-14-5.2-.4-8-.4-11.2-.4h-21.6v15.2h28Zm74.8-68c-2.4,5.6-3.6,7.6-6.4,13.2,2.8,30.8,6.4,46.4,17.2,74,6.4-25.6,8.8-50.8,9.2-87.2h-20Z" style="fill: url(#b);"/>
</svg>