<svg id="_レイヤー_" data-name="&lt;レイヤー&gt;" xmlns="http://www.w3.org/2000/svg" viewBox="0 0 233.51 129.22"><defs><style>.cls-1,.cls-2{fill:#fff;}.cls-1,.cls-3{stroke:#000;stroke-miterlimit:10;}.cls-3{fill:none;}</style></defs><path class="cls-1" d="M56.83,18.28a26.4,26.4,0,0,0-.71-6.4l4,.26a24.12,24.12,0,0,1,.77,6.55l-3.19-.11.35.13a50.42,50.42,0,0,0,5.74,1.8l-2.27,6.21a56.63,56.63,0,0,0-5.59-2.28l-2.54-.92C48.81,34,42.62,38.3,31.37,38.89a16.46,16.46,0,0,0-2.12-7.16C38.63,32,43.54,29,46.88,21.17L39.6,18.52a31.42,31.42,0,0,1-8.22,4.89,18.65,18.65,0,0,0-3.75-5.89c5.69-1.85,12.05-6.9,14.62-11.62l6.07,3.75c-.79.84-1,1-1.62,1.79-.94,1-1.07,1.15-1.45,1.53l-.78.81Zm8.85-5.55a27.57,27.57,0,0,1,.85,6.45l-3.85-.1a29.43,29.43,0,0,0-.76-6.59Z" transform="translate(-10.31 -5.19)"/><path class="cls-1" d="M65.52,28.72a53.57,53.57,0,0,0,7.21,3l17.06,6.21a62.2,62.2,0,0,0,7.44,2.34l-2.51,6.89a74,74,0,0,0-7.28-2.89l-17-6.18c-4-1.46-5.19-1.85-7.43-2.47Z" transform="translate(-10.31 -5.19)"/><path class="cls-1" d="M123.31,37.26a15.68,15.68,0,0,0-1.89,2.31c-6.15,8.23-9.33,12.21-13.81,17.29a118.17,118.17,0,0,0,12.75,3.06A62.06,62.06,0,0,0,119,49.79l6.38-.1a81.67,81.67,0,0,1,2.29,20.15l-7.24.89a29.44,29.44,0,0,0,.14-4.48c-5.43-1-9.26-1.79-15-3.24l-8.46-2.18a18.18,18.18,0,0,0-2.08-.4l1.5-7c.67.28,1,.38,1.13.45a9.23,9.23,0,0,0,.91.29l1.11.37a8,8,0,0,0,.91.28,174.42,174.42,0,0,0,12.39-15.58,34,34,0,0,0,3.71-5.89Z" transform="translate(-10.31 -5.19)"/><path class="cls-1" d="M159.06,49.26a6.38,6.38,0,0,0-.75.74c-.11.08-.26.27-.45.44s-.47.52-.59.64c-.84.86-.84.86-1.27,1.27l9,3.16a6.43,6.43,0,0,0,2.78.57l1.9,4a9.58,9.58,0,0,0-2,2.16c-4,5.26-8.09,9-12.54,11.45-4.6,2.53-9.66,3.88-16.49,4.43a17.35,17.35,0,0,0-2.31-7A33.26,33.26,0,0,0,151,68.19a26.7,26.7,0,0,0,9.65-8l-9.53-3.35a35.62,35.62,0,0,1-11.37,6,18.92,18.92,0,0,0-3.51-6.13,29.89,29.89,0,0,0,13.46-7.43,14.7,14.7,0,0,0,3.1-3.73Z" transform="translate(-10.31 -5.19)"/><path class="cls-1" d="M187.79,60.21a46.22,46.22,0,0,0-1.91,4.72L183.29,72a51.61,51.61,0,0,0-1.68,5.17l-6.93-2.52a38.61,38.61,0,0,0,2.11-5.13l2.58-7.07a39.6,39.6,0,0,0,1.5-4.8Zm16.61,6c-.87,2-1.1,2.47-1.94,4.75l-1.52,4.18a48.94,48.94,0,0,1-4.6,10.09c-2.49,3.5-6,5.55-10.73,6.37a31.46,31.46,0,0,1-8.49.22,17.42,17.42,0,0,0-1.42-7.43,24.42,24.42,0,0,0,7.86.4c3.76-.54,6.13-2.06,7.85-5a66,66,0,0,0,3.14-7.43l1.35-3.71a36.88,36.88,0,0,0,1.57-5Z" transform="translate(-10.31 -5.19)"/><path class="cls-1" d="M243.18,85.14a4.78,4.78,0,0,0-1.79,1.45,25.68,25.68,0,0,1-14.26,8.19,19.77,19.77,0,0,0-2.58-5.35,21.53,21.53,0,0,1-5.23,7.93,18.85,18.85,0,0,1-7.76,4,34.46,34.46,0,0,1-6,.92,19.19,19.19,0,0,0-2-7.27c4.38.18,7.52-.45,10-2s4.05-3.91,5.78-8.65a10.84,10.84,0,0,0,.68-2.55l6.71,2.45a19.93,19.93,0,0,0-1.3,3s-.36.88-.49,1.24a4.3,4.3,0,0,1,1-.13,14.38,14.38,0,0,0,8.21-3.89l-17-6.2a51.26,51.26,0,0,0-5.77-1.81l2.27-6.25a36.21,36.21,0,0,0,5.67,2.43L238,79.48c2,.72,2.26.78,3.21.72Z" transform="translate(-10.31 -5.19)"/><path class="cls-2" d="M56.83,18.28a26.4,26.4,0,0,0-.71-6.4l4,.26a24.12,24.12,0,0,1,.77,6.55l-3.19-.11.35.13a50.42,50.42,0,0,0,5.74,1.8l-2.27,6.21a56.63,56.63,0,0,0-5.59-2.28l-2.54-.92C48.81,34,42.62,38.3,31.37,38.89a16.46,16.46,0,0,0-2.12-7.16C38.63,32,43.54,29,46.88,21.17L39.6,18.52a31.42,31.42,0,0,1-8.22,4.89,18.65,18.65,0,0,0-3.75-5.89c5.69-1.85,12.05-6.9,14.62-11.62l6.07,3.75c-.79.84-1,1-1.62,1.79-.94,1-1.07,1.15-1.45,1.53l-.78.81Zm8.85-5.55a27.57,27.57,0,0,1,.85,6.45l-3.85-.1a29.43,29.43,0,0,0-.76-6.59Z" transform="translate(-10.31 -5.19)"/><path class="cls-2" d="M65.52,28.72a53.57,53.57,0,0,0,7.21,3l17.06,6.21a62.2,62.2,0,0,0,7.44,2.34l-2.51,6.89a74,74,0,0,0-7.28-2.89l-17-6.18c-4-1.46-5.19-1.85-7.43-2.47Z" transform="translate(-10.31 -5.19)"/><path class="cls-2" d="M123.31,37.26a15.68,15.68,0,0,0-1.89,2.31c-6.15,8.23-9.33,12.21-13.81,17.29a118.17,118.17,0,0,0,12.75,3.06A62.06,62.06,0,0,0,119,49.79l6.38-.1a81.67,81.67,0,0,1,2.29,20.15l-7.24.89a29.44,29.44,0,0,0,.14-4.48c-5.43-1-9.26-1.79-15-3.24l-8.46-2.18a18.18,18.18,0,0,0-2.08-.4l1.5-7c.67.28,1,.38,1.13.45a9.23,9.23,0,0,0,.91.29l1.11.37a8,8,0,0,0,.91.28,174.42,174.42,0,0,0,12.39-15.58,34,34,0,0,0,3.71-5.89Z" transform="translate(-10.31 -5.19)"/><path class="cls-2" d="M159.06,49.26a6.38,6.38,0,0,0-.75.74c-.11.08-.26.27-.45.44s-.47.52-.59.64c-.84.86-.84.86-1.27,1.27l9,3.16a6.43,6.43,0,0,0,2.78.57l1.9,4a9.58,9.58,0,0,0-2,2.16c-4,5.26-8.09,9-12.54,11.45-4.6,2.53-9.66,3.88-16.49,4.43a17.35,17.35,0,0,0-2.31-7A33.26,33.26,0,0,0,151,68.19a26.7,26.7,0,0,0,9.65-8l-9.53-3.35a35.62,35.62,0,0,1-11.37,6,18.92,18.92,0,0,0-3.51-6.13,29.89,29.89,0,0,0,13.46-7.43,14.7,14.7,0,0,0,3.1-3.73Z" transform="translate(-10.31 -5.19)"/><path class="cls-2" d="M187.79,60.21a46.22,46.22,0,0,0-1.91,4.72L183.29,72a51.61,51.61,0,0,0-1.68,5.17l-6.93-2.52a38.61,38.61,0,0,0,2.11-5.13l2.58-7.07a39.6,39.6,0,0,0,1.5-4.8Zm16.61,6c-.87,2-1.1,2.47-1.94,4.75l-1.52,4.18a48.94,48.94,0,0,1-4.6,10.09c-2.49,3.5-6,5.55-10.73,6.37a31.46,31.46,0,0,1-8.49.22,17.42,17.42,0,0,0-1.42-7.43,24.42,24.42,0,0,0,7.86.4c3.76-.54,6.13-2.06,7.85-5a66,66,0,0,0,3.14-7.43l1.35-3.71a36.88,36.88,0,0,0,1.57-5Z" transform="translate(-10.31 -5.19)"/><path class="cls-2" d="M243.18,85.14a4.78,4.78,0,0,0-1.79,1.45,25.68,25.68,0,0,1-14.26,8.19,19.77,19.77,0,0,0-2.58-5.35,21.53,21.53,0,0,1-5.23,7.93,18.85,18.85,0,0,1-7.76,4,34.46,34.46,0,0,1-6,.92,19.19,19.19,0,0,0-2-7.27c4.38.18,7.52-.45,10-2s4.05-3.91,5.78-8.65a10.84,10.84,0,0,0,.68-2.55l6.71,2.45a19.93,19.93,0,0,0-1.3,3s-.36.88-.49,1.24a4.3,4.3,0,0,1,1-.13,14.38,14.38,0,0,0,8.21-3.89l-17-6.2a51.26,51.26,0,0,0-5.77-1.81l2.27-6.25a36.21,36.21,0,0,0,5.67,2.43L238,79.48c2,.72,2.26.78,3.21.72Z" transform="translate(-10.31 -5.19)"/><path class="cls-3" d="M56.83,18.28a26.4,26.4,0,0,0-.71-6.4l4,.26a24.12,24.12,0,0,1,.77,6.55l-3.19-.11.35.13a50.42,50.42,0,0,0,5.74,1.8l-2.27,6.21a56.63,56.63,0,0,0-5.59-2.28l-2.54-.92C48.81,34,42.62,38.3,31.37,38.89a16.46,16.46,0,0,0-2.12-7.16C38.63,32,43.54,29,46.88,21.17L39.6,18.52a31.42,31.42,0,0,1-8.22,4.89,18.65,18.65,0,0,0-3.75-5.89c5.69-1.85,12.05-6.9,14.62-11.62l6.07,3.75c-.79.84-1,1-1.62,1.79-.94,1-1.07,1.15-1.45,1.53l-.78.81Zm8.85-5.55a27.57,27.57,0,0,1,.85,6.45l-3.85-.1a29.43,29.43,0,0,0-.76-6.59Z" transform="translate(-10.31 -5.19)"/><path class="cls-3" d="M65.52,28.72a53.57,53.57,0,0,0,7.21,3l17.06,6.21a62.2,62.2,0,0,0,7.44,2.34l-2.51,6.89a74,74,0,0,0-7.28-2.89l-17-6.18c-4-1.46-5.19-1.85-7.43-2.47Z" transform="translate(-10.31 -5.19)"/><path class="cls-3" d="M123.31,37.26a15.68,15.68,0,0,0-1.89,2.31c-6.15,8.23-9.33,12.21-13.81,17.29a118.17,118.17,0,0,0,12.75,3.06A62.06,62.06,0,0,0,119,49.79l6.38-.1a81.67,81.67,0,0,1,2.29,20.15l-7.24.89a29.44,29.44,0,0,0,.14-4.48c-5.43-1-9.26-1.79-15-3.24l-8.46-2.18a18.18,18.18,0,0,0-2.08-.4l1.5-7c.67.28,1,.38,1.13.45a9.23,9.23,0,0,0,.91.29l1.11.37a8,8,0,0,0,.91.28,174.42,174.42,0,0,0,12.39-15.58,34,34,0,0,0,3.71-5.89Z" transform="translate(-10.31 -5.19)"/><path class="cls-3" d="M159.06,49.26a6.38,6.38,0,0,0-.75.74c-.11.08-.26.27-.45.44s-.47.52-.59.64c-.84.86-.84.86-1.27,1.27l9,3.16a6.43,6.43,0,0,0,2.78.57l1.9,4a9.58,9.58,0,0,0-2,2.16c-4,5.26-8.09,9-12.54,11.45-4.6,2.53-9.66,3.88-16.49,4.43a17.35,17.35,0,0,0-2.31-7A33.26,33.26,0,0,0,151,68.19a26.7,26.7,0,0,0,9.65-8l-9.53-3.35a35.62,35.62,0,0,1-11.37,6,18.92,18.92,0,0,0-3.51-6.13,29.89,29.89,0,0,0,13.46-7.43,14.7,14.7,0,0,0,3.1-3.73Z" transform="translate(-10.31 -5.19)"/><path class="cls-3" d="M187.79,60.21a46.22,46.22,0,0,0-1.91,4.72L183.29,72a51.61,51.61,0,0,0-1.68,5.17l-6.93-2.52a38.61,38.61,0,0,0,2.11-5.13l2.58-7.07a39.6,39.6,0,0,0,1.5-4.8Zm16.61,6c-.87,2-1.1,2.47-1.94,4.75l-1.52,4.18a48.94,48.94,0,0,1-4.6,10.09c-2.49,3.5-6,5.55-10.73,6.37a31.46,31.46,0,0,1-8.49.22,17.42,17.42,0,0,0-1.42-7.43,24.42,24.42,0,0,0,7.86.4c3.76-.54,6.13-2.06,7.85-5a66,66,0,0,0,3.14-7.43l1.35-3.71a36.88,36.88,0,0,0,1.57-5Z" transform="translate(-10.31 -5.19)"/><path class="cls-3" d="M243.18,85.14a4.78,4.78,0,0,0-1.79,1.45,25.68,25.68,0,0,1-14.26,8.19,19.77,19.77,0,0,0-2.58-5.35,21.53,21.53,0,0,1-5.23,7.93,18.85,18.85,0,0,1-7.76,4,34.46,34.46,0,0,1-6,.92,19.19,19.19,0,0,0-2-7.27c4.38.18,7.52-.45,10-2s4.05-3.91,5.78-8.65a10.84,10.84,0,0,0,.68-2.55l6.71,2.45a19.93,19.93,0,0,0-1.3,3s-.36.88-.49,1.24a4.3,4.3,0,0,1,1-.13,14.38,14.38,0,0,0,8.21-3.89l-17-6.2a51.26,51.26,0,0,0-5.77-1.81l2.27-6.25a36.21,36.21,0,0,0,5.67,2.43L238,79.48c2,.72,2.26.78,3.21.72Z" transform="translate(-10.31 -5.19)"/><path class="cls-1" d="M37.46,61.84A11.68,11.68,0,0,0,36,61.56c-1.48-.26-3.84-.79-5.65-1.25l-1.14,3.14a22.15,22.15,0,0,1,5.43,1.29c4.39,1.6,7.27,3.9,8.56,6.8a9.47,9.47,0,0,1,.13,7.2,9.2,9.2,0,0,1-12.1,5.58c-4.43-1.61-5.92-5.51-4.05-10.65.07-.18.19-.5.33-.89a22.81,22.81,0,0,0,6.22-.2c-.31.73-.49,1.11-.76,1.86a6.37,6.37,0,0,0-.54,2.36,1.78,1.78,0,0,0,1.19,1.64c1.53.56,3-.31,3.68-2.14a4.05,4.05,0,0,0-.6-3.77,8.48,8.48,0,0,0-3.91-2.48,20.35,20.35,0,0,0-5.51-1.19L25,75.19l-.33.93c-.8,2.17-1.22,2.91-2,3.46a4.57,4.57,0,0,1-4.22.25,13.48,13.48,0,0,1-6.68-5.63,6.57,6.57,0,0,1-.63-5.49c.7-1.92,2.64-3.6,5.47-4.71a20.25,20.25,0,0,1,6.48-1.25l1.53-4.21-2.74-.91-3.43-1.34a7.47,7.47,0,0,0-.77-.23l2-5.63a28.73,28.73,0,0,0,4.78,2.1l1.35.49a6.69,6.69,0,0,1,.73.23l.42-1.15a28.5,28.5,0,0,0,1.5-4.91l6.18,2.25a29.65,29.65,0,0,0-1.84,4.39L32.36,55a41.37,41.37,0,0,0,7,1.16ZM21,68.65c-2,.17-3.76,1.1-4.12,2.1a1.46,1.46,0,0,0,.37,1.42,3.69,3.69,0,0,0,1.4,1.16c.46.17.66,0,1.09-1.22Zm22.81-.59a32.88,32.88,0,0,0-4-11l5.87-1.47a32,32,0,0,1,4.16,10.45Z" transform="translate(-10.31 -5.19)"/><path class="cls-1" d="M65.62,62.26a25.56,25.56,0,0,0-1.17,5.56A18.84,18.84,0,0,1,71,68.93l.78.29a24,24,0,0,0,2.85-5l5.86,3.47a21.34,21.34,0,0,0-1.37,1.76c-1.22,1.66-1.83,2.57-1.9,2.67A12.79,12.79,0,0,1,81,76.36a12,12,0,0,1,.78,10.51C79.74,92.55,74.9,96,68.64,96.19a35,35,0,0,1-7.11-.48,18.14,18.14,0,0,0-.68-7c3.86,1,7,1.27,9.24.7a7.84,7.84,0,0,0,5.65-5.3c1-2.82.41-5.11-2-7.31-4,4.9-7.17,8-10.57,10.26C58.77,90,55.39,90.8,52.36,89.7c-4.32-1.57-5.9-6.35-3.91-11.82a14.9,14.9,0,0,1,9.89-9.29c.2-1.87.31-2.84.63-5a9,9,0,0,0,.15-2.41ZM54.13,79.51c-.8,2.17-.5,3.82.71,4.26a3.24,3.24,0,0,0,2.76-.69,39.54,39.54,0,0,1,.06-7.83A8.71,8.71,0,0,0,54.13,79.51Zm9.2-.17A36,36,0,0,0,68.27,74a10.32,10.32,0,0,0-4.69-.57A40.64,40.64,0,0,0,63.33,79.34Z" transform="translate(-10.31 -5.19)"/><path class="cls-1" d="M90.74,74c.59.26,1.05.43,1.34.53.93.34,2.24.73,6.22,1.9,5.26,1.55,8.79,2.63,15.66,4.85l3.73,1.2,1.53.47c1.23.41,1.45.45,1.63.52a3.88,3.88,0,0,0,.87.15l-2,6.58a5.87,5.87,0,0,0-1-.44,17.8,17.8,0,0,0-9.09-.47c-4.36.88-7.56,3.11-8.62,6a4.84,4.84,0,0,0,1.39,5.52,20.05,20.05,0,0,0,6.35,3.76,11,11,0,0,0,1.08.36l-3.29,6.48a9.78,9.78,0,0,0-1.25-.66A28.81,28.81,0,0,1,97,105.54C93.48,102,92.5,98,94.15,93.43a13,13,0,0,1,6-7,15.51,15.51,0,0,1,4.6-1.76L103,84.27c-.81-.22-2.1-.56-9-2.46a42.61,42.61,0,0,0-5.28-1.15Zm22.35,17.35a24.68,24.68,0,0,1,1.58,6.44l-4,.32a23.67,23.67,0,0,0-1.54-6.54Zm5.53-.33a26.27,26.27,0,0,1,1.67,6.31l-3.88.33a26.94,26.94,0,0,0-1.52-6.38Z" transform="translate(-10.31 -5.19)"/><path class="cls-1" d="M142.25,88.49a64.74,64.74,0,0,0-1.81,11.31c1.81,0,3,0,4.58.17,3.76.24,3.76.24,5.19.31a7.43,7.43,0,0,0,1.65,0l-.27,7.1a85.81,85.81,0,0,0-14-1.33c-5.16-.06-8.2,1-9,3.08s1,3.92,6,5.73a55.79,55.79,0,0,0,10.88,2.66,17.23,17.23,0,0,0,2.09.16l-2,6.95c-.91-.29-1.31-.4-3.21-.85a86.29,86.29,0,0,1-9.22-2.66c-5.14-1.88-8.47-3.94-10.28-6.29a8.43,8.43,0,0,1-.84-7.91,10.16,10.16,0,0,1,6.35-6,25.06,25.06,0,0,1,5.45-1.09c.27-3.42.41-4.34,1.31-10.15a21,21,0,0,0,.29-2.57Z" transform="translate(-10.31 -5.19)"/><path class="cls-1" d="M161.2,108.41c1.11.4,1.11.4,4.94,1.11a73.82,73.82,0,0,1,12.4,3.26c4.67,1.7,7.25,4,8,7.34a9.54,9.54,0,0,1-.4,5.32c-1.6,4.39-5.93,7.5-11.45,8.24-3.71.51-7.23.2-13.35-1.22a21.16,21.16,0,0,0-.22-7,32.15,32.15,0,0,0,10.56,1.86c2.71,0,4.76-.65,6.13-1.85a5.67,5.67,0,0,0,1.56-2.18c.78-2.15-.39-3.82-3.35-4.9a56.78,56.78,0,0,0-15.79-2.84Zm10.11-9.54a53.79,53.79,0,0,0,14.06,7.34c.65.23,1.25.46,2.48.86l-3,5.79A94.39,94.39,0,0,1,167.33,104Z" transform="translate(-10.31 -5.19)"/></svg>