<svg xmlns="http://www.w3.org/2000/svg" viewBox="0 0 227.27 80.94"><defs><style>.cls-1,.cls-2{fill:#fff;}.cls-1,.cls-3{stroke:#000;stroke-miterlimit:10;}.cls-3{fill:none;}</style></defs><g id="レイヤー_2" data-name="レイヤー 2"><g id="レイヤー_1-2" data-name="レイヤー 1"><path class="cls-1" d="M28.88,8.94A25.86,25.86,0,0,0,26,3.17l3.8-1.11A24.44,24.44,0,0,1,32.8,8l-3,1h.38a50.71,50.71,0,0,0,6-.27v6.61a57.28,57.28,0,0,0-6-.22H27.4c-.68,11.36-5,17.55-15.39,22a16.49,16.49,0,0,0-4.44-6c8.89-3,12.5-7.44,13-15.95H12.77a31.53,31.53,0,0,1-6,7.41,18.36,18.36,0,0,0-5.55-4.26c4.72-3.69,9-10.6,9.77-15.92l7,1.44C17.48,4.8,17.37,5.06,17,6c-.53,1.29-.61,1.44-.84,1.93l-.45,1ZM35.3.7a26.68,26.68,0,0,1,3,5.77L34.66,7.69a29.14,29.14,0,0,0-3-5.93Z" transform="translate(-0.27 -0.11)"/><path class="cls-1" d="M40.63,15.78a54.8,54.8,0,0,0,7.79.34H66.58a63.64,63.64,0,0,0,7.79-.34v7.33a73.31,73.31,0,0,0-7.83-.23H48.45c-4.25,0-5.5,0-7.82.23Z" transform="translate(-0.27 -0.11)"/><path class="cls-1" d="M97.85,4a15.07,15.07,0,0,0-1,2.81c-3,9.84-4.6,14.67-7.07,21a114.61,114.61,0,0,0,13-1.48,62.4,62.4,0,0,0-4.79-9L104,15a82.34,82.34,0,0,1,9,18.16l-6.5,3.31a29,29,0,0,0-1.4-4.26c-5.44,1-9.31,1.48-15.2,2.09l-8.7.84a18.94,18.94,0,0,0-2.09.34l-1-7.11c.72,0,1,0,1.22,0a9.22,9.22,0,0,0,1,0l1.18,0a9,9,0,0,0,1,0,177.17,177.17,0,0,0,6.3-18.89,33.24,33.24,0,0,0,1.48-6.8Z" transform="translate(-0.27 -0.11)"/><path class="cls-1" d="M135.55,3.09a5.28,5.28,0,0,0-.46,1c-.07.11-.15.34-.26.57s-.27.64-.35.8c-.49,1.1-.49,1.1-.75,1.63l9.53-.11a6.36,6.36,0,0,0,2.81-.42l3.16,3.11a9.41,9.41,0,0,0-1.11,2.7c-1.93,6.31-4.52,11.25-7.86,15.05s-7.75,7-14,9.8a17.6,17.6,0,0,0-4.56-5.77,33.28,33.28,0,0,0,12.69-7.76,26.63,26.63,0,0,0,6.34-10.79l-10.1.12A35.69,35.69,0,0,1,122,22.5a18.89,18.89,0,0,0-5.39-4.56,29.87,29.87,0,0,0,10.1-11.58,14.52,14.52,0,0,0,1.64-4.56Z" transform="translate(-0.27 -0.11)"/><path class="cls-1" d="M166.29,3.54a46.45,46.45,0,0,0-.19,5.1V16.2a50.27,50.27,0,0,0,.19,5.43h-7.37a39.39,39.39,0,0,0,.23-5.55V8.56a38.12,38.12,0,0,0-.23-5Zm17.67,0c-.15,2.13-.19,2.7-.19,5.13v4.45a49.26,49.26,0,0,1-.87,11.06c-1.14,4.14-3.73,7.25-7.91,9.65a31.78,31.78,0,0,1-7.9,3.11,17.32,17.32,0,0,0-3.88-6.5,24.65,24.65,0,0,0,7.53-2.31c3.34-1.79,5-4,5.66-7.37a64.12,64.12,0,0,0,.42-8.06V8.75a36.89,36.89,0,0,0-.23-5.21Z" transform="translate(-0.27 -0.11)"/><path class="cls-1" d="M226.86,8a5,5,0,0,0-1.18,2,25.7,25.7,0,0,1-10.6,12.58,19.82,19.82,0,0,0-4.25-4.14,21.46,21.46,0,0,1-2.21,9.23,18.9,18.9,0,0,1-5.92,6.42A34.29,34.29,0,0,1,197.34,37,19.2,19.2,0,0,0,193,30.86c4.18-1.33,6.91-3,8.7-5.28s2.47-5,2.47-10.1a10.38,10.38,0,0,0-.23-2.63h7.14a21.29,21.29,0,0,0-.19,3.27s0,.95,0,1.33a5.53,5.53,0,0,1,.88-.46,14.37,14.37,0,0,0,6.38-6.45H200a50.81,50.81,0,0,0-6,.26V4.15a35.78,35.78,0,0,0,6.15.34H220c2.13,0,2.39,0,3.27-.41Z" transform="translate(-0.27 -0.11)"/><path class="cls-2" d="M28.88,8.94A25.86,25.86,0,0,0,26,3.17l3.8-1.11A24.44,24.44,0,0,1,32.8,8l-3,1h.38a50.71,50.71,0,0,0,6-.27v6.61a57.28,57.28,0,0,0-6-.22H27.4c-.68,11.36-5,17.55-15.39,22a16.49,16.49,0,0,0-4.44-6c8.89-3,12.5-7.44,13-15.95H12.77a31.53,31.53,0,0,1-6,7.41,18.36,18.36,0,0,0-5.55-4.26c4.72-3.69,9-10.6,9.77-15.92l7,1.44C17.48,4.8,17.37,5.06,17,6c-.53,1.29-.61,1.44-.84,1.93l-.45,1ZM35.3.7a26.68,26.68,0,0,1,3,5.77L34.66,7.69a29.14,29.14,0,0,0-3-5.93Z" transform="translate(-0.27 -0.11)"/><path class="cls-2" d="M40.63,15.78a54.8,54.8,0,0,0,7.79.34H66.58a63.64,63.64,0,0,0,7.79-.34v7.33a73.31,73.31,0,0,0-7.83-.23H48.45c-4.25,0-5.5,0-7.82.23Z" transform="translate(-0.27 -0.11)"/><path class="cls-2" d="M97.85,4a15.07,15.07,0,0,0-1,2.81c-3,9.84-4.6,14.67-7.07,21a114.61,114.61,0,0,0,13-1.48,62.4,62.4,0,0,0-4.79-9L104,15a82.34,82.34,0,0,1,9,18.16l-6.5,3.31a29,29,0,0,0-1.4-4.26c-5.44,1-9.31,1.48-15.2,2.09l-8.7.84a18.94,18.94,0,0,0-2.09.34l-1-7.11c.72,0,1,0,1.22,0a9.22,9.22,0,0,0,1,0l1.18,0a9,9,0,0,0,1,0,177.17,177.17,0,0,0,6.3-18.89,33.24,33.24,0,0,0,1.48-6.8Z" transform="translate(-0.27 -0.11)"/><path class="cls-2" d="M135.55,3.09a5.28,5.28,0,0,0-.46,1c-.07.11-.15.34-.26.57s-.27.64-.35.8c-.49,1.1-.49,1.1-.75,1.63l9.53-.11a6.36,6.36,0,0,0,2.81-.42l3.16,3.11a9.41,9.41,0,0,0-1.11,2.7c-1.93,6.31-4.52,11.25-7.86,15.05s-7.75,7-14,9.8a17.6,17.6,0,0,0-4.56-5.77,33.28,33.28,0,0,0,12.69-7.76,26.63,26.63,0,0,0,6.34-10.79l-10.1.12A35.69,35.69,0,0,1,122,22.5a18.89,18.89,0,0,0-5.39-4.56,29.87,29.87,0,0,0,10.1-11.58,14.52,14.52,0,0,0,1.64-4.56Z" transform="translate(-0.27 -0.11)"/><path class="cls-2" d="M166.29,3.54a46.45,46.45,0,0,0-.19,5.1V16.2a50.27,50.27,0,0,0,.19,5.43h-7.37a39.39,39.39,0,0,0,.23-5.55V8.56a38.12,38.12,0,0,0-.23-5Zm17.67,0c-.15,2.13-.19,2.7-.19,5.13v4.45a49.26,49.26,0,0,1-.87,11.06c-1.14,4.14-3.73,7.25-7.91,9.65a31.78,31.78,0,0,1-7.9,3.11,17.32,17.32,0,0,0-3.88-6.5,24.65,24.65,0,0,0,7.53-2.31c3.34-1.79,5-4,5.66-7.37a64.12,64.12,0,0,0,.42-8.06V8.75a36.89,36.89,0,0,0-.23-5.21Z" transform="translate(-0.27 -0.11)"/><path class="cls-2" d="M226.86,8a5,5,0,0,0-1.18,2,25.7,25.7,0,0,1-10.6,12.58,19.82,19.82,0,0,0-4.25-4.14,21.46,21.46,0,0,1-2.21,9.23,18.9,18.9,0,0,1-5.92,6.42A34.29,34.29,0,0,1,197.34,37,19.2,19.2,0,0,0,193,30.86c4.18-1.33,6.91-3,8.7-5.28s2.47-5,2.47-10.1a10.38,10.38,0,0,0-.23-2.63h7.14a21.29,21.29,0,0,0-.19,3.27s0,.95,0,1.33a5.53,5.53,0,0,1,.88-.46,14.37,14.37,0,0,0,6.38-6.45H200a50.81,50.81,0,0,0-6,.26V4.15a35.78,35.78,0,0,0,6.15.34H220c2.13,0,2.39,0,3.27-.41Z" transform="translate(-0.27 -0.11)"/><path class="cls-3" d="M28.88,8.94A25.86,25.86,0,0,0,26,3.17l3.8-1.11A24.44,24.44,0,0,1,32.8,8l-3,1h.38a50.71,50.71,0,0,0,6-.27v6.61a57.28,57.28,0,0,0-6-.22H27.4c-.68,11.36-5,17.55-15.39,22a16.49,16.49,0,0,0-4.44-6c8.89-3,12.5-7.44,13-15.95H12.77a31.53,31.53,0,0,1-6,7.41,18.36,18.36,0,0,0-5.55-4.26c4.72-3.69,9-10.6,9.77-15.92l7,1.44C17.48,4.8,17.37,5.06,17,6c-.53,1.29-.61,1.44-.84,1.93l-.45,1ZM35.3.7a26.68,26.68,0,0,1,3,5.77L34.66,7.69a29.14,29.14,0,0,0-3-5.93Z" transform="translate(-0.27 -0.11)"/><path class="cls-3" d="M40.63,15.78a54.8,54.8,0,0,0,7.79.34H66.58a63.64,63.64,0,0,0,7.79-.34v7.33a73.31,73.31,0,0,0-7.83-.23H48.45c-4.25,0-5.5,0-7.82.23Z" transform="translate(-0.27 -0.11)"/><path class="cls-3" d="M97.85,4a15.07,15.07,0,0,0-1,2.81c-3,9.84-4.6,14.67-7.07,21a114.61,114.61,0,0,0,13-1.48,62.4,62.4,0,0,0-4.79-9L104,15a82.34,82.34,0,0,1,9,18.16l-6.5,3.31a29,29,0,0,0-1.4-4.26c-5.44,1-9.31,1.48-15.2,2.09l-8.7.84a18.94,18.94,0,0,0-2.09.34l-1-7.11c.72,0,1,0,1.22,0a9.22,9.22,0,0,0,1,0l1.18,0a9,9,0,0,0,1,0,177.17,177.17,0,0,0,6.3-18.89,33.24,33.24,0,0,0,1.48-6.8Z" transform="translate(-0.27 -0.11)"/><path class="cls-3" d="M135.55,3.09a5.28,5.28,0,0,0-.46,1c-.07.11-.15.34-.26.57s-.27.64-.35.8c-.49,1.1-.49,1.1-.75,1.63l9.53-.11a6.36,6.36,0,0,0,2.81-.42l3.16,3.11a9.41,9.41,0,0,0-1.11,2.7c-1.93,6.31-4.52,11.25-7.86,15.05s-7.75,7-14,9.8a17.6,17.6,0,0,0-4.56-5.77,33.28,33.28,0,0,0,12.69-7.76,26.63,26.63,0,0,0,6.34-10.79l-10.1.12A35.69,35.69,0,0,1,122,22.5a18.89,18.89,0,0,0-5.39-4.56,29.87,29.87,0,0,0,10.1-11.58,14.52,14.52,0,0,0,1.64-4.56Z" transform="translate(-0.27 -0.11)"/><path class="cls-3" d="M166.29,3.54a46.45,46.45,0,0,0-.19,5.1V16.2a50.27,50.27,0,0,0,.19,5.43h-7.37a39.39,39.39,0,0,0,.23-5.55V8.56a38.12,38.12,0,0,0-.23-5Zm17.67,0c-.15,2.13-.19,2.7-.19,5.13v4.45a49.26,49.26,0,0,1-.87,11.06c-1.14,4.14-3.73,7.25-7.91,9.65a31.78,31.78,0,0,1-7.9,3.11,17.32,17.32,0,0,0-3.88-6.5,24.65,24.65,0,0,0,7.53-2.31c3.34-1.79,5-4,5.66-7.37a64.12,64.12,0,0,0,.42-8.06V8.75a36.89,36.89,0,0,0-.23-5.21Z" transform="translate(-0.27 -0.11)"/><path class="cls-3" d="M226.86,8a5,5,0,0,0-1.18,2,25.7,25.7,0,0,1-10.6,12.58,19.82,19.82,0,0,0-4.25-4.14,21.46,21.46,0,0,1-2.21,9.23,18.9,18.9,0,0,1-5.92,6.42A34.29,34.29,0,0,1,197.34,37,19.2,19.2,0,0,0,193,30.86c4.18-1.33,6.91-3,8.7-5.28s2.47-5,2.47-10.1a10.38,10.38,0,0,0-.23-2.63h7.14a21.29,21.29,0,0,0-.19,3.27s0,.95,0,1.33a5.53,5.53,0,0,1,.88-.46,14.37,14.37,0,0,0,6.38-6.45H200a50.81,50.81,0,0,0-6,.26V4.15a35.78,35.78,0,0,0,6.15.34H220c2.13,0,2.39,0,3.27-.41Z" transform="translate(-0.27 -0.11)"/></g><g id="_レイヤー_" data-name="&lt;レイヤー&gt;"><path class="cls-1" d="M25.59,56.49c-.57.08-.69.08-1.45.23-1.48.27-3.87.57-5.74.76v3.34A22.49,22.49,0,0,1,24,60.18c4.68,0,8.17,1.18,10.37,3.46a9.47,9.47,0,0,1,2.59,6.72,9.22,9.22,0,0,1-9.46,9.39c-4.71,0-7.45-3.16-7.45-8.63v-1a22.75,22.75,0,0,0,5.78-2.32c0,.8-.08,1.22-.08,2a6.42,6.42,0,0,0,.3,2.39,1.8,1.8,0,0,0,1.68,1.14c1.63,0,2.73-1.33,2.73-3.27a4.07,4.07,0,0,0-1.86-3.34,8.47,8.47,0,0,0-4.52-1,20.33,20.33,0,0,0-5.59.76l0,6.73v1c0,2.32-.15,3.16-.72,4a4.58,4.58,0,0,1-3.88,1.67,13.51,13.51,0,0,1-8.2-3A6.59,6.59,0,0,1,3.21,72c0-2.06,1.25-4.3,3.53-6.31a20.1,20.1,0,0,1,5.66-3.38V57.78l-2.89.08-3.68-.08a7.07,7.07,0,0,0-.8,0l-.07-6a28.47,28.47,0,0,0,5.2.34H11.6a7.51,7.51,0,0,1,.76,0V51a27.8,27.8,0,0,0-.26-5.13h6.57a29.78,29.78,0,0,0-.23,4.75v1.21a40.83,40.83,0,0,0,7-1.29ZM12.4,68.54c-1.78.83-3.15,2.31-3.15,3.38a1.48,1.48,0,0,0,.83,1.21,3.7,3.7,0,0,0,1.71.61c.5,0,.61-.26.61-1.52Zm21.24-8.36a33.14,33.14,0,0,0-7.48-8.93l5-3.38a32.07,32.07,0,0,1,7.49,8.4Z" transform="translate(-0.27 -0.11)"/><path class="cls-1" d="M52.19,47.26a25.91,25.91,0,0,0,.8,5.62,18.86,18.86,0,0,1,6.49-1.17h.84a24.26,24.26,0,0,0,1-5.63L68,47.34a20.15,20.15,0,0,0-.68,2.12c-.57,2-.84,3-.87,3.16a12.73,12.73,0,0,1,5,2.62,12,12,0,0,1,4.33,9.61c0,6-3.38,10.91-9.19,13.26a34.58,34.58,0,0,1-6.84,2,18.39,18.39,0,0,0-3-6.35c4-.34,7-1.21,8.93-2.51a7.86,7.86,0,0,0,3.49-6.91c0-3-1.37-4.94-4.37-6.19-2,6-4,10-6.42,13.26-3.15,4.25-6,6.19-9.27,6.19-4.6,0-7.71-4-7.71-9.76a14.89,14.89,0,0,1,6.11-12.13c-.45-1.82-.68-2.77-1.1-4.86a9,9,0,0,0-.68-2.32ZM47.29,67.4c0,2.32.83,3.76,2.12,3.76a3.22,3.22,0,0,0,2.36-1.6,39.88,39.88,0,0,1-2.62-7.37A8.72,8.72,0,0,0,47.29,67.4Zm8.58-3.31a35.13,35.13,0,0,0,2.81-6.72,10.19,10.19,0,0,0-4.59,1.06A41.81,41.81,0,0,0,55.87,64.09Z" transform="translate(-0.27 -0.11)"/><path class="cls-1" d="M79.81,49.73c.65,0,1.15,0,1.45,0,1,0,2.35-.08,6.5-.34,5.47-.35,9.15-.54,16.37-.8l3.91-.15,1.6-.08c1.29,0,1.52-.08,1.71-.08a2.9,2.9,0,0,0,.87-.15l.35,6.88A5.59,5.59,0,0,0,111.5,55a17.84,17.84,0,0,0-8.7,2.66c-3.8,2.32-6,5.51-6,8.63A4.87,4.87,0,0,0,100,71a20.1,20.1,0,0,0,7.26,1.37c.3,0,.57,0,1.14,0l-.87,7.22a8.46,8.46,0,0,0-1.41-.19,28.72,28.72,0,0,1-9.61-2.13c-4.49-2.09-6.8-5.59-6.8-10.41a13,13,0,0,1,3.23-8.59A15.51,15.51,0,0,1,96.61,55l-1.79.19c-.83.08-2.16.19-9.27.76a40.41,40.41,0,0,0-5.36.73Zm26.94,8.66a24.69,24.69,0,0,1,3.69,5.51l-3.65,1.67A23.77,23.77,0,0,0,103.11,60Zm5.09-2.2a26,26,0,0,1,3.73,5.36L112,63.18a26.35,26.35,0,0,0-3.61-5.47Z" transform="translate(-0.27 -0.11)"/><path class="cls-1" d="M133.16,45.7A66.9,66.9,0,0,0,135.33,57c1.71-.61,2.81-1,4.37-1.41,3.61-1.06,3.61-1.06,5-1.48a7.05,7.05,0,0,0,1.55-.57l2.17,6.76a85.78,85.78,0,0,0-13.6,3.54c-4.86,1.71-7.37,3.72-7.37,6s2.28,3.35,7.56,3.35a55.45,55.45,0,0,0,11.13-1.22,16,16,0,0,0,2-.57l.5,7.22c-.95,0-1.37.08-3.31.3a83.82,83.82,0,0,1-9.57.65c-5.47,0-9.31-.8-11.82-2.39a8.48,8.48,0,0,1-3.49-7.15,10.16,10.16,0,0,1,3.91-7.82,24.22,24.22,0,0,1,4.75-2.89c-.91-3.31-1.1-4.22-2.24-10a18.77,18.77,0,0,0-.61-2.51Z" transform="translate(-0.27 -0.11)"/><path class="cls-1" d="M157.79,57.94c1.18,0,1.18,0,5-.65a73.82,73.82,0,0,1,12.76-1.18c5,0,8.21,1.33,10,4.18A9.5,9.5,0,0,1,187,65.42c0,4.68-3,9.08-7.94,11.67-3.31,1.74-6.73,2.66-13,3.42A20.91,20.91,0,0,0,163.49,74a32.35,32.35,0,0,0,10.56-1.86c2.55-1,4.26-2.24,5.13-3.84a5.57,5.57,0,0,0,.72-2.58c0-2.28-1.67-3.46-4.82-3.46A56.51,56.51,0,0,0,159.27,65ZM164,45.51a53.51,53.51,0,0,0,15.73,2.09c.69,0,1.33,0,2.62,0L181.54,54a93.69,93.69,0,0,1-19.49-2.31Z" transform="translate(-0.27 -0.11)"/></g></g></svg>